<mxfile host="app.diagrams.net" agent="Mozilla/5.0 (Macintosh; Intel Mac OS X 10_15_7) AppleWebKit/605.1.15 (KHTML, like Gecko) Version/18.3 Safari/605.1.15" version="26.1.0" pages="3">
  <diagram name="Page-1" id="6slvv6IzBOBA_isSImfn">
    <mxGraphModel grid="1" page="1" gridSize="10" guides="1" tooltips="1" connect="1" arrows="1" fold="1" pageScale="1" pageWidth="827" pageHeight="1169" math="0" shadow="0">
      <root>
        <mxCell id="0" />
        <mxCell id="1" parent="0" />
        <mxCell id="uFLB6n6X3wPtEoQjT_Hl-1" value="&lt;span style=&quot;background-color: transparent;&quot;&gt;1. Komponentti&lt;/span&gt;&lt;strike style=&quot;background-color: transparent;&quot;&gt;Luokka&lt;/strike&gt;&lt;span style=&quot;background-color: transparent;&quot;&gt;diagrammi&lt;/span&gt;&lt;br&gt;&lt;ul&gt;&lt;li&gt;&lt;span style=&quot;background-color: transparent;&quot;&gt;pakettien nimet&lt;/span&gt;&lt;/li&gt;&lt;li&gt;&lt;span style=&quot;background-color: transparent;&quot;&gt;mooduulien nimet&lt;/span&gt;&lt;/li&gt;&lt;li&gt;Tehtävän anto on lähempänä komponenttidiagrammia ja käytän sitä.&lt;/li&gt;&lt;li&gt;Käytän PlantUML:ia kuvauksiin&lt;/li&gt;&lt;li&gt;VSCodeen on kuitenkin saatavilla PyUML extensio, joka luo luokkakuvaukset moduuleittain&lt;/li&gt;&lt;/ul&gt;&lt;span style=&quot;background-color: transparent;&quot;&gt;2. Sekvenssidiagrammi ylätaso&amp;nbsp;&lt;/span&gt;&lt;span style=&quot;background-color: transparent; text-align: center;&quot;&gt;moodulien run-funktiolle asti.&lt;/span&gt;&lt;div&gt;&lt;span style=&quot;background-color: transparent; text-align: center; color: rgb(0, 0, 0);&quot;&gt;3. Käyttäjälle olisi hyvä&amp;nbsp;&lt;/span&gt;&lt;span style=&quot;background-color: transparent; text-align: center;&quot;&gt;parametrien esittely kuvamuodossa, jossa näkee&lt;/span&gt;&lt;span style=&quot;background-color: transparent; text-align: center;&quot;&gt;&amp;nbsp;mitkä parametrit liityvät mihinkin moduuliin&lt;/span&gt;&lt;/div&gt;" style="text;html=1;align=left;verticalAlign=middle;resizable=0;points=[];autosize=1;strokeColor=none;fillColor=none;" parent="1" vertex="1">
          <mxGeometry x="-799" y="105" width="640" height="180" as="geometry" />
        </mxCell>
      </root>
    </mxGraphModel>
  </diagram>
  <diagram id="VObJvwFbvEZq3bLkSwPC" name="Page-2">
    <mxGraphModel dx="6017" dy="2775" grid="1" gridSize="10" guides="1" tooltips="1" connect="1" arrows="1" fold="1" page="1" pageScale="1" pageWidth="827" pageHeight="1169" math="0" shadow="0">
      <root>
        <mxCell id="0" />
        <mxCell id="1" parent="0" />
        <UserObject label="" plantUmlData="{&#xa;  &quot;data&quot;: &quot;@startuml\nallowmixing\npackage \&quot;pyAPES\&quot; {\n    package \&quot;bottomlayer\&quot; {\n        component \&quot;baresoil\&quot; {\n            class Baresoil {\n                run()\n                update()\n                restore()\n                heat_balance()\n            }\n        }\n        component \&quot;organiclayer\&quot; {\n            class OrganicLayer{\n                run()\n                update_state()\n                heat_and_water_exchange()\n                water_heat_tendencies()\n                water_exchange()\n                reflectance()\n                thermal_conductivity()\n                surface_atm_conductance()\n                evaporation_through_organic_layer()\n                water_retention_curve()\n                theta_psi()\n                psi_theta()\n                hydraulic_conductivity()\n                saturation_vapor_pressure()\n                moss_atm_conductance()\n                soil_boundary_layer_conductance()\n            }\n        }\n        component \&quot;carbon\&quot; {\n            class BryophyteFarquhar {\n                co2_exchange()\n                conductance()\n                relative_capacity()\n                photo_farquhar()\n                topt_deltaS_conversion()\n            }\n            class OrganicRespiration {\n                respiration()\n            }\n            class BryophyteCarbon {\n                carbon_exchange()\n            }\n            class SoilRespiration {\n                respiration()\n            }\n        }\n        OrganicLayer -&gt; BryophyteFarquhar\n        OrganicLayer -&gt; OrganicRespiration\n    }\n    package \&quot;canopy\&quot; {\n        component \&quot;forestfloor\&quot; {\n            class ForestFloor {\n                run()\n                update()\n            }\n        }\n        component \&quot;mlm_canopy\&quot; {\n            class CanopyModel {\n                run()\n                run_daily()\n                #_restore()\n            }\n        }\n        component \&quot;interception\&quot; {\n            class Interception {\n                run()\n                update()\n            }\n        }\n        ForestFloor -&gt; OrganicLayer\n        ForestFloor -&gt; SoilRespiration\n        ForestFloor -&gt; DegreeDaySnow\n        CanopyModel -&gt; PlantType\n        CanopyModel -&gt; ForestFloor\n        CanopyModel -&gt; Radiation\n        CanopyModel -&gt; Micromet\n        CanopyModel -&gt; Interception\n\n    }\n    package \&quot;leaf\&quot; {\n        component \&quot;boundarylayer\&quot; {\n            entity \&quot;StaticFunctions\&quot; {\n                leaf_boundary_layer_conductance()\n            }\n        }\n        component \&quot;photo\&quot; {\n            entity \&quot;StaticFunctions\&quot; {\n                lead_Ags_ebal()\n                photo_c3_analytical()\n                photo_c3_medlyn()\n                photo_c3_medlyn_farquhar()\n                photo_c3_bwb()\n                photo_farquhar()\n                photo_temperature_response()\n                apparent_photocapacity()\n                topt_deltaS_conversion()\n                photo_Toptima()\n            }\n        }\n    }\n    package \&quot;microclimate\&quot; {\n        component \&quot;micromet\&quot; {\n            class Micromet {\n                normalized_flow_stats()\n                update_state()\n                scalar_profiles()\n                closure_1_model_U()\n                closure_1_model_scalar()\n                mixing_length()\n                e_sat()\n                latent_heat()\n            }\n        }\n        component \&quot;radiation\&quot; {\n            class Radiation {\n                shortwave_profiles()\n                longwave_profiles()\n                solar_angles()\n                kbeam()\n                kdiffuse()\n                canopy_sw_ZhaoQualls()\n                canopy_sw_Spitters()\n                compute_clouds_rad()\n                canopy_lw()\n                canopy_lw_ZhaoQualls()\n                test_radiation_functions()\n            }\n        }\n    }\n    package \&quot;planttype\&quot; {\n        component \&quot;phenology\&quot; {\n            class Photo_cycle {\n                run()\n            }\n            class LAI_cycle {\n                run()\n                daylength()\n            }\n        }\n        component \&quot;planttype\&quot; {\n            class PlantType {\n                run()\n                update_daily()\n                leaf_gas_exchange()\n                #_outputs()\n            }\n        }\n        component \&quot;rootzone\&quot; {\n            class RootUptake {\n                wateruptake()\n                RootDistribution()\n            }\n        }\n        PlantType -&gt; Photo_cycle\n        PlantType -&gt; LAI_cycle\n        PlantType -&gt; RootUptake\n    }\n    package \&quot;snow\&quot; {\n        component \&quot;snowpack\&quot; {\n            class DegreeDaySnow {\n                update()\n                run()\n        }\n    }\n    package \&quot;soil\&quot; {\n        component \&quot;soil\&quot; {\n            class Soil_1D {\n                run()\n                #_fill()\n                form_profile()\n            }\n        }\n        component \&quot;heat\&quot; {\n            class Heat_1D {\n                run()\n                update_state()\n                heatflow1D()\n                heat_content()\n                heat_balance()\n                frozen_water()\n                solid_volumetric_heat_capacity()\n                volumetric_heat_capacity()\n                thermal_conductivity()\n            }\n        }\n        component \&quot;water\&quot; {\n            class Water_1D {\n                run()\n                update_state()\n            }\n            class WaterBucket {\n                update_state()\n                run()\n                waterFlow1D()\n                waterStorage1D()\n                drainage_hooghoud()\n                theta_psi()\n                psi_theta()\n                h_to_cellmoist()\n                diff_wcapa()\n                hydraulic_conductivity()\n                relcond()\n                gwl_Wsto()\n                get_gwl()\n                rew()\n                wrc()\n                theta_psi()\n                psi_theta()\n            }\n        }\n        Soil_1D-&gt;Water_1D\n        Soil_1D-&gt;Heat_1D\n    }\n    package \&quot;parameters\&quot; {\n        component \&quot;mlm_outputs\&quot;\n        component \&quot;mlm_parameters\&quot;\n        component \&quot;parameter_tools\&quot;\n        component \&quot;parametersets\&quot;\n    }\n    package \&quot;utils\&quot; {\n        component \&quot;constant\&quot;\n        component \&quot;iotools\&quot;\n        component \&quot;utilities\&quot;\n    }\n    package \&quot;pyAPES_utilities\&quot; {\n        package \&quot;soiltypes\&quot; {\n            component \&quot;mineral\&quot;\n            component \&quot;organic\&quot;\n            component \&quot;sphagnum_peat\&quot;\n        }\n        component \&quot;dataprocessing_scripts\&quot;\n        component \&quot;directory_structure\&quot;\n        component \&quot;parameter_utilities\&quot;\n        component \&quot;plotting\&quot;\n        component \&quot;timeseries_tools\&quot;\n    }\n    component \&quot;parallelAPES\&quot;\n    component \&quot;pyAPES_MLM\&quot;\n    }\n}\n@enduml&quot;,&#xa;  &quot;format&quot;: &quot;svg&quot;&#xa;}" id="fh3OPGb_nih9qnzZzEq0-9">
          <mxCell style="shape=image;noLabel=1;verticalAlign=top;aspect=fixed;imageAspect=0;image=data:image/svg+xml,PD94bWwgdmVyc2lvbj0iMS4wIiBlbmNvZGluZz0idXMtYXNjaWkiIHN0YW5kYWxvbmU9Im5vIj8+PHN2ZyB4bWxucz0iaHR0cDovL3d3dy53My5vcmcvMjAwMC9zdmciIHhtbG5zOnhsaW5rPSJodHRwOi8vd3d3LnczLm9yZy8xOTk5L3hsaW5rIiBjb250ZW50U3R5bGVUeXBlPSJ0ZXh0L2NzcyIgaGVpZ2h0PSIxMDA2cHgiIHByZXNlcnZlQXNwZWN0UmF0aW89Im5vbmUiIHN0eWxlPSJ3aWR0aDo2NTAzcHg7aGVpZ2h0OjEwMDZweDtiYWNrZ3JvdW5kOiNGRkZGRkY7IiB2ZXJzaW9uPSIxLjEiIHZpZXdCb3g9IjAgMCA2NTAzIDEwMDYiIHdpZHRoPSI2NTAzcHgiIHpvb21BbmRQYW49Im1hZ25pZnkiPjxkZWZzLz48Zz48IS0tY2x1c3RlciBweUFQRVMtLT48ZyBpZD0iY2x1c3Rlcl9weUFQRVMiPjxwYXRoIGQ9Ik04LjUsODMuODQgTDUxLjUsODMuODQgQTMuNzUsMy43NSAwIDAgMSA1NCw4Ni4zNCBMNjEsMTA0LjgyNDQgTDY0OTMuNSwxMDQuODI0NCBBMi41LDIuNSAwIDAgMSA2NDk2LDEwNy4zMjQ0IEw2NDk2LDk5Ny4zNCBBMi41LDIuNSAwIDAgMSA2NDkzLjUsOTk5Ljg0IEw4LjUsOTk5Ljg0IEEyLjUsMi41IDAgMCAxIDYsOTk3LjM0IEw2LDg2LjM0IEEyLjUsMi41IDAgMCAxIDguNSw4My44NCAiIGZpbGw9Im5vbmUiIHN0eWxlPSJzdHJva2U6IzAwMDAwMDtzdHJva2Utd2lkdGg6MS41OyIvPjxsaW5lIHN0eWxlPSJzdHJva2U6IzAwMDAwMDtzdHJva2Utd2lkdGg6MS41OyIgeDE9IjYiIHgyPSI2MSIgeTE9IjEwNC44MjQ0IiB5Mj0iMTA0LjgyNDQiLz48dGV4dCBmaWxsPSIjMDAwMDAwIiBmb250LWZhbWlseT0ic2Fucy1zZXJpZiIgZm9udC1zaXplPSIxNCIgZm9udC13ZWlnaHQ9ImJvbGQiIGxlbmd0aEFkanVzdD0ic3BhY2luZyIgdGV4dExlbmd0aD0iNDIiIHg9IjEwIiB5PSI5OS4wNzQ0Ij5weUFQRVM8L3RleHQ+PC9nPjwhLS1jbHVzdGVyIGJvdHRvbWxheWVyLS0+PGcgaWQ9ImNsdXN0ZXJfYm90dG9tbGF5ZXIiPjxwYXRoIGQ9Ik01MTkwLjUsMTczLjM0IEw1MjY5LjUsMTczLjM0IEEzLjc1LDMuNzUgMCAwIDEgNTI3MiwxNzUuODQgTDUyNzksMTk0LjMyNDQgTDY0NjkuNSwxOTQuMzI0NCBBMi41LDIuNSAwIDAgMSA2NDcyLDE5Ni44MjQ0IEw2NDcyLDU3Mi44NCBBMi41LDIuNSAwIDAgMSA2NDY5LjUsNTc1LjM0IEw1MTkwLjUsNTc1LjM0IEEyLjUsMi41IDAgMCAxIDUxODgsNTcyLjg0IEw1MTg4LDE3NS44NCBBMi41LDIuNSAwIDAgMSA1MTkwLjUsMTczLjM0ICIgZmlsbD0ibm9uZSIgc3R5bGU9InN0cm9rZTojMDAwMDAwO3N0cm9rZS13aWR0aDoxLjU7Ii8+PGxpbmUgc3R5bGU9InN0cm9rZTojMDAwMDAwO3N0cm9rZS13aWR0aDoxLjU7IiB4MT0iNTE4OCIgeDI9IjUyNzkiIHkxPSIxOTQuMzI0NCIgeTI9IjE5NC4zMjQ0Ii8+PHRleHQgZmlsbD0iIzAwMDAwMCIgZm9udC1mYW1pbHk9InNhbnMtc2VyaWYiIGZvbnQtc2l6ZT0iMTQiIGZvbnQtd2VpZ2h0PSJib2xkIiBsZW5ndGhBZGp1c3Q9InNwYWNpbmciIHRleHRMZW5ndGg9Ijc4IiB4PSI1MTkyIiB5PSIxODguNTc0NCI+Ym90dG9tbGF5ZXI8L3RleHQ+PC9nPjwhLS1jbHVzdGVyIGJhcmVzb2lsLS0+PGcgaWQ9ImNsdXN0ZXJfYmFyZXNvaWwiPjxyZWN0IGZpbGw9Im5vbmUiIGhlaWdodD0iMTU3IiByeD0iMi41IiByeT0iMi41IiBzdHlsZT0ic3Ryb2tlOiMxODE4MTg7c3Ryb2tlLXdpZHRoOjEuMDsiIHdpZHRoPSIxNDQiIHg9IjYzMDQiIHk9IjMwNC4zNCIvPjxyZWN0IGZpbGw9Im5vbmUiIGhlaWdodD0iMTAiIHN0eWxlPSJzdHJva2U6IzE4MTgxODtzdHJva2Utd2lkdGg6MS4wOyIgd2lkdGg9IjE1IiB4PSI2NDI4IiB5PSIzMDkuMzQiLz48cmVjdCBmaWxsPSJub25lIiBoZWlnaHQ9IjIiIHN0eWxlPSJzdHJva2U6IzE4MTgxODtzdHJva2Utd2lkdGg6MS4wOyIgd2lkdGg9IjQiIHg9IjY0MjYiIHk9IjMxMS4zNCIvPjxyZWN0IGZpbGw9Im5vbmUiIGhlaWdodD0iMiIgc3R5bGU9InN0cm9rZTojMTgxODE4O3N0cm9rZS13aWR0aDoxLjA7IiB3aWR0aD0iNCIgeD0iNjQyNiIgeT0iMzE1LjM0Ii8+PHRleHQgZmlsbD0iIzAwMDAwMCIgZm9udC1mYW1pbHk9InNhbnMtc2VyaWYiIGZvbnQtc2l6ZT0iMTQiIGZvbnQtd2VpZ2h0PSJib2xkIiBsZW5ndGhBZGp1c3Q9InNwYWNpbmciIHRleHRMZW5ndGg9IjU2IiB4PSI2MzQ4IiB5PSIzMzAuNTc0NCI+YmFyZXNvaWw8L3RleHQ+PC9nPjwhLS1jbHVzdGVyIG9yZ2FuaWNsYXllci0tPjxnIGlkPSJjbHVzdGVyX29yZ2FuaWNsYXllciI+PHJlY3QgZmlsbD0ibm9uZSIgaGVpZ2h0PSIzMzciIHJ4PSIyLjUiIHJ5PSIyLjUiIHN0eWxlPSJzdHJva2U6IzE4MTgxODtzdHJva2Utd2lkdGg6MS4wOyIgd2lkdGg9IjI5MiIgeD0iNTk4OCIgeT0iMjE0LjM0Ii8+PHJlY3QgZmlsbD0ibm9uZSIgaGVpZ2h0PSIxMCIgc3R5bGU9InN0cm9rZTojMTgxODE4O3N0cm9rZS13aWR0aDoxLjA7IiB3aWR0aD0iMTUiIHg9IjYyNjAiIHk9IjIxOS4zNCIvPjxyZWN0IGZpbGw9Im5vbmUiIGhlaWdodD0iMiIgc3R5bGU9InN0cm9rZTojMTgxODE4O3N0cm9rZS13aWR0aDoxLjA7IiB3aWR0aD0iNCIgeD0iNjI1OCIgeT0iMjIxLjM0Ii8+PHJlY3QgZmlsbD0ibm9uZSIgaGVpZ2h0PSIyIiBzdHlsZT0ic3Ryb2tlOiMxODE4MTg7c3Ryb2tlLXdpZHRoOjEuMDsiIHdpZHRoPSI0IiB4PSI2MjU4IiB5PSIyMjUuMzQiLz48dGV4dCBmaWxsPSIjMDAwMDAwIiBmb250LWZhbWlseT0ic2Fucy1zZXJpZiIgZm9udC1zaXplPSIxNCIgZm9udC13ZWlnaHQ9ImJvbGQiIGxlbmd0aEFkanVzdD0ic3BhY2luZyIgdGV4dExlbmd0aD0iODQiIHg9IjYwOTIiIHk9IjI0MC41NzQ0Ij5vcmdhbmljbGF5ZXI8L3RleHQ+PC9nPjwhLS1jbHVzdGVyIGNhcmJvbi0tPjxnIGlkPSJjbHVzdGVyX2NhcmJvbiI+PHJlY3QgZmlsbD0ibm9uZSIgaGVpZ2h0PSIxNzIiIHJ4PSIyLjUiIHJ5PSIyLjUiIHN0eWxlPSJzdHJva2U6IzE4MTgxODtzdHJva2Utd2lkdGg6MS4wOyIgd2lkdGg9Ijc1MiIgeD0iNTIxMiIgeT0iMjk2Ljg0Ii8+PHJlY3QgZmlsbD0ibm9uZSIgaGVpZ2h0PSIxMCIgc3R5bGU9InN0cm9rZTojMTgxODE4O3N0cm9rZS13aWR0aDoxLjA7IiB3aWR0aD0iMTUiIHg9IjU5NDQiIHk9IjMwMS44NCIvPjxyZWN0IGZpbGw9Im5vbmUiIGhlaWdodD0iMiIgc3R5bGU9InN0cm9rZTojMTgxODE4O3N0cm9rZS13aWR0aDoxLjA7IiB3aWR0aD0iNCIgeD0iNTk0MiIgeT0iMzAzLjg0Ii8+PHJlY3QgZmlsbD0ibm9uZSIgaGVpZ2h0PSIyIiBzdHlsZT0ic3Ryb2tlOiMxODE4MTg7c3Ryb2tlLXdpZHRoOjEuMDsiIHdpZHRoPSI0IiB4PSI1OTQyIiB5PSIzMDcuODQiLz48dGV4dCBmaWxsPSIjMDAwMDAwIiBmb250LWZhbWlseT0ic2Fucy1zZXJpZiIgZm9udC1zaXplPSIxNCIgZm9udC13ZWlnaHQ9ImJvbGQiIGxlbmd0aEFkanVzdD0ic3BhY2luZyIgdGV4dExlbmd0aD0iNDIiIHg9IjU1NjciIHk9IjMyMy4wNzQ0Ij5jYXJib248L3RleHQ+PC9nPjwhLS1jbHVzdGVyIGNhbm9weS0tPjxnIGlkPSJjbHVzdGVyX2Nhbm9weSI+PHBhdGggZD0iTTQxMTkuNSwyNzAuODQgTDQxNjIuNSwyNzAuODQgQTMuNzUsMy43NSAwIDAgMSA0MTY1LDI3My4zNCBMNDE3MiwyOTEuODI0NCBMNTE2MS41LDI5MS44MjQ0IEEyLjUsMi41IDAgMCAxIDUxNjQsMjk0LjMyNDQgTDUxNjQsNDc1LjM0IEEyLjUsMi41IDAgMCAxIDUxNjEuNSw0NzcuODQgTDQxMTkuNSw0NzcuODQgQTIuNSwyLjUgMCAwIDEgNDExNyw0NzUuMzQgTDQxMTcsMjczLjM0IEEyLjUsMi41IDAgMCAxIDQxMTkuNSwyNzAuODQgIiBmaWxsPSJub25lIiBzdHlsZT0ic3Ryb2tlOiMwMDAwMDA7c3Ryb2tlLXdpZHRoOjEuNTsiLz48bGluZSBzdHlsZT0ic3Ryb2tlOiMwMDAwMDA7c3Ryb2tlLXdpZHRoOjEuNTsiIHgxPSI0MTE3IiB4Mj0iNDE3MiIgeTE9IjI5MS44MjQ0IiB5Mj0iMjkxLjgyNDQiLz48dGV4dCBmaWxsPSIjMDAwMDAwIiBmb250LWZhbWlseT0ic2Fucy1zZXJpZiIgZm9udC1zaXplPSIxNCIgZm9udC13ZWlnaHQ9ImJvbGQiIGxlbmd0aEFkanVzdD0ic3BhY2luZyIgdGV4dExlbmd0aD0iNDIiIHg9IjQxMjEiIHk9IjI4Ni4wNzQ0Ij5jYW5vcHk8L3RleHQ+PC9nPjwhLS1jbHVzdGVyIGZvcmVzdGZsb29yLS0+PGcgaWQ9ImNsdXN0ZXJfZm9yZXN0Zmxvb3IiPjxyZWN0IGZpbGw9Im5vbmUiIGhlaWdodD0iMTI3IiByeD0iMi41IiByeT0iMi41IiBzdHlsZT0ic3Ryb2tlOiMxODE4MTg7c3Ryb2tlLXdpZHRoOjEuMDsiIHdpZHRoPSIxNDIiIHg9IjQ5OTgiIHk9IjMxOS4zNCIvPjxyZWN0IGZpbGw9Im5vbmUiIGhlaWdodD0iMTAiIHN0eWxlPSJzdHJva2U6IzE4MTgxODtzdHJva2Utd2lkdGg6MS4wOyIgd2lkdGg9IjE1IiB4PSI1MTIwIiB5PSIzMjQuMzQiLz48cmVjdCBmaWxsPSJub25lIiBoZWlnaHQ9IjIiIHN0eWxlPSJzdHJva2U6IzE4MTgxODtzdHJva2Utd2lkdGg6MS4wOyIgd2lkdGg9IjQiIHg9IjUxMTgiIHk9IjMyNi4zNCIvPjxyZWN0IGZpbGw9Im5vbmUiIGhlaWdodD0iMiIgc3R5bGU9InN0cm9rZTojMTgxODE4O3N0cm9rZS13aWR0aDoxLjA7IiB3aWR0aD0iNCIgeD0iNTExOCIgeT0iMzMwLjM0Ii8+PHRleHQgZmlsbD0iIzAwMDAwMCIgZm9udC1mYW1pbHk9InNhbnMtc2VyaWYiIGZvbnQtc2l6ZT0iMTQiIGZvbnQtd2VpZ2h0PSJib2xkIiBsZW5ndGhBZGp1c3Q9InNwYWNpbmciIHRleHRMZW5ndGg9Ijc3IiB4PSI1MDMwLjUiIHk9IjM0NS41NzQ0Ij5mb3Jlc3RmbG9vcjwvdGV4dD48L2c+PCEtLWNsdXN0ZXIgbWxtX2Nhbm9weS0tPjxnIGlkPSJjbHVzdGVyX21sbV9jYW5vcHkiPjxyZWN0IGZpbGw9Im5vbmUiIGhlaWdodD0iMTQyIiByeD0iMi41IiByeT0iMi41IiBzdHlsZT0ic3Ryb2tlOiMxODE4MTg7c3Ryb2tlLXdpZHRoOjEuMDsiIHdpZHRoPSIxNDIiIHg9IjQ4MzIiIHk9IjMxMS44NCIvPjxyZWN0IGZpbGw9Im5vbmUiIGhlaWdodD0iMTAiIHN0eWxlPSJzdHJva2U6IzE4MTgxODtzdHJva2Utd2lkdGg6MS4wOyIgd2lkdGg9IjE1IiB4PSI0OTU0IiB5PSIzMTYuODQiLz48cmVjdCBmaWxsPSJub25lIiBoZWlnaHQ9IjIiIHN0eWxlPSJzdHJva2U6IzE4MTgxODtzdHJva2Utd2lkdGg6MS4wOyIgd2lkdGg9IjQiIHg9IjQ5NTIiIHk9IjMxOC44NCIvPjxyZWN0IGZpbGw9Im5vbmUiIGhlaWdodD0iMiIgc3R5bGU9InN0cm9rZTojMTgxODE4O3N0cm9rZS13aWR0aDoxLjA7IiB3aWR0aD0iNCIgeD0iNDk1MiIgeT0iMzIyLjg0Ii8+PHRleHQgZmlsbD0iIzAwMDAwMCIgZm9udC1mYW1pbHk9InNhbnMtc2VyaWYiIGZvbnQtc2l6ZT0iMTQiIGZvbnQtd2VpZ2h0PSJib2xkIiBsZW5ndGhBZGp1c3Q9InNwYWNpbmciIHRleHRMZW5ndGg9IjcyIiB4PSI0ODY3IiB5PSIzMzguMDc0NCI+bWxtX2Nhbm9weTwvdGV4dD48L2c+PCEtLWNsdXN0ZXIgaW50ZXJjZXB0aW9uLS0+PGcgaWQ9ImNsdXN0ZXJfaW50ZXJjZXB0aW9uIj48cmVjdCBmaWxsPSJub25lIiBoZWlnaHQ9IjEyNyIgcng9IjIuNSIgcnk9IjIuNSIgc3R5bGU9InN0cm9rZTojMTgxODE4O3N0cm9rZS13aWR0aDoxLjA7IiB3aWR0aD0iMTQ4IiB4PSI0NjYwIiB5PSIzMTkuMzQiLz48cmVjdCBmaWxsPSJub25lIiBoZWlnaHQ9IjEwIiBzdHlsZT0ic3Ryb2tlOiMxODE4MTg7c3Ryb2tlLXdpZHRoOjEuMDsiIHdpZHRoPSIxNSIgeD0iNDc4OCIgeT0iMzI0LjM0Ii8+PHJlY3QgZmlsbD0ibm9uZSIgaGVpZ2h0PSIyIiBzdHlsZT0ic3Ryb2tlOiMxODE4MTg7c3Ryb2tlLXdpZHRoOjEuMDsiIHdpZHRoPSI0IiB4PSI0Nzg2IiB5PSIzMjYuMzQiLz48cmVjdCBmaWxsPSJub25lIiBoZWlnaHQ9IjIiIHN0eWxlPSJzdHJva2U6IzE4MTgxODtzdHJva2Utd2lkdGg6MS4wOyIgd2lkdGg9IjQiIHg9IjQ3ODYiIHk9IjMzMC4zNCIvPjx0ZXh0IGZpbGw9IiMwMDAwMDAiIGZvbnQtZmFtaWx5PSJzYW5zLXNlcmlmIiBmb250LXNpemU9IjE0IiBmb250LXdlaWdodD0iYm9sZCIgbGVuZ3RoQWRqdXN0PSJzcGFjaW5nIiB0ZXh0TGVuZ3RoPSI4NCIgeD0iNDY5MiIgeT0iMzQ1LjU3NDQiPmludGVyY2VwdGlvbjwvdGV4dD48L2c+PCEtLWNsdXN0ZXIgbGVhZi0tPjxnIGlkPSJjbHVzdGVyX2xlYWYiPjxwYXRoIGQ9Ik0zNTAxLjUsMjE4LjM0IEwzNTMwLjUsMjE4LjM0IEEzLjc1LDMuNzUgMCAwIDEgMzUzMywyMjAuODQgTDM1NDAsMjM5LjMyNDQgTDQwOTAuNSwyMzkuMzI0NCBBMi41LDIuNSAwIDAgMSA0MDkzLDI0MS44MjQ0IEw0MDkzLDUyNy44NCBBMi41LDIuNSAwIDAgMSA0MDkwLjUsNTMwLjM0IEwzNTAxLjUsNTMwLjM0IEEyLjUsMi41IDAgMCAxIDM0OTksNTI3Ljg0IEwzNDk5LDIyMC44NCBBMi41LDIuNSAwIDAgMSAzNTAxLjUsMjE4LjM0ICIgZmlsbD0ibm9uZSIgc3R5bGU9InN0cm9rZTojMDAwMDAwO3N0cm9rZS13aWR0aDoxLjU7Ii8+PGxpbmUgc3R5bGU9InN0cm9rZTojMDAwMDAwO3N0cm9rZS13aWR0aDoxLjU7IiB4MT0iMzQ5OSIgeDI9IjM1NDAiIHkxPSIyMzkuMzI0NCIgeTI9IjIzOS4zMjQ0Ii8+PHRleHQgZmlsbD0iIzAwMDAwMCIgZm9udC1mYW1pbHk9InNhbnMtc2VyaWYiIGZvbnQtc2l6ZT0iMTQiIGZvbnQtd2VpZ2h0PSJib2xkIiBsZW5ndGhBZGp1c3Q9InNwYWNpbmciIHRleHRMZW5ndGg9IjI4IiB4PSIzNTAzIiB5PSIyMzMuNTc0NCI+bGVhZjwvdGV4dD48L2c+PCEtLWNsdXN0ZXIgYm91bmRhcnlsYXllci0tPjxnIGlkPSJjbHVzdGVyX2JvdW5kYXJ5bGF5ZXIiPjxyZWN0IGZpbGw9Im5vbmUiIGhlaWdodD0iMTEyIiByeD0iMi41IiByeT0iMi41IiBzdHlsZT0ic3Ryb2tlOiMxODE4MTg7c3Ryb2tlLXdpZHRoOjEuMDsiIHdpZHRoPSIyNzgiIHg9IjM3OTEiIHk9IjMyNi44NCIvPjxyZWN0IGZpbGw9Im5vbmUiIGhlaWdodD0iMTAiIHN0eWxlPSJzdHJva2U6IzE4MTgxODtzdHJva2Utd2lkdGg6MS4wOyIgd2lkdGg9IjE1IiB4PSI0MDQ5IiB5PSIzMzEuODQiLz48cmVjdCBmaWxsPSJub25lIiBoZWlnaHQ9IjIiIHN0eWxlPSJzdHJva2U6IzE4MTgxODtzdHJva2Utd2lkdGg6MS4wOyIgd2lkdGg9IjQiIHg9IjQwNDciIHk9IjMzMy44NCIvPjxyZWN0IGZpbGw9Im5vbmUiIGhlaWdodD0iMiIgc3R5bGU9InN0cm9rZTojMTgxODE4O3N0cm9rZS13aWR0aDoxLjA7IiB3aWR0aD0iNCIgeD0iNDA0NyIgeT0iMzM3Ljg0Ii8+PHRleHQgZmlsbD0iIzAwMDAwMCIgZm9udC1mYW1pbHk9InNhbnMtc2VyaWYiIGZvbnQtc2l6ZT0iMTQiIGZvbnQtd2VpZ2h0PSJib2xkIiBsZW5ndGhBZGp1c3Q9InNwYWNpbmciIHRleHRMZW5ndGg9IjkxIiB4PSIzODg0LjUiIHk9IjM1My4wNzQ0Ij5ib3VuZGFyeWxheWVyPC90ZXh0PjwvZz48IS0tY2x1c3RlciBwaG90by0tPjxnIGlkPSJjbHVzdGVyX3Bob3RvIj48cmVjdCBmaWxsPSJub25lIiBoZWlnaHQ9IjI0NyIgcng9IjIuNSIgcnk9IjIuNSIgc3R5bGU9InN0cm9rZTojMTgxODE4O3N0cm9rZS13aWR0aDoxLjA7IiB3aWR0aD0iMjQ0IiB4PSIzNTIzIiB5PSIyNTkuMzQiLz48cmVjdCBmaWxsPSJub25lIiBoZWlnaHQ9IjEwIiBzdHlsZT0ic3Ryb2tlOiMxODE4MTg7c3Ryb2tlLXdpZHRoOjEuMDsiIHdpZHRoPSIxNSIgeD0iMzc0NyIgeT0iMjY0LjM0Ii8+PHJlY3QgZmlsbD0ibm9uZSIgaGVpZ2h0PSIyIiBzdHlsZT0ic3Ryb2tlOiMxODE4MTg7c3Ryb2tlLXdpZHRoOjEuMDsiIHdpZHRoPSI0IiB4PSIzNzQ1IiB5PSIyNjYuMzQiLz48cmVjdCBmaWxsPSJub25lIiBoZWlnaHQ9IjIiIHN0eWxlPSJzdHJva2U6IzE4MTgxODtzdHJva2Utd2lkdGg6MS4wOyIgd2lkdGg9IjQiIHg9IjM3NDUiIHk9IjI3MC4zNCIvPjx0ZXh0IGZpbGw9IiMwMDAwMDAiIGZvbnQtZmFtaWx5PSJzYW5zLXNlcmlmIiBmb250LXNpemU9IjE0IiBmb250LXdlaWdodD0iYm9sZCIgbGVuZ3RoQWRqdXN0PSJzcGFjaW5nIiB0ZXh0TGVuZ3RoPSIzNSIgeD0iMzYyNy41IiB5PSIyODUuNTc0NCI+cGhvdG88L3RleHQ+PC9nPjwhLS1jbHVzdGVyIG1pY3JvY2xpbWF0ZS0tPjxnIGlkPSJjbHVzdGVyX21pY3JvY2xpbWF0ZSI+PHBhdGggZD0iTTI5NjEuNSwyMTAuODQgTDMwNDguNSwyMTAuODQgQTMuNzUsMy43NSAwIDAgMSAzMDUxLDIxMy4zNCBMMzA1OCwyMzEuODI0NCBMMzQ3Mi41LDIzMS44MjQ0IEEyLjUsMi41IDAgMCAxIDM0NzUsMjM0LjMyNDQgTDM0NzUsNTM1LjM0IEEyLjUsMi41IDAgMCAxIDM0NzIuNSw1MzcuODQgTDI5NjEuNSw1MzcuODQgQTIuNSwyLjUgMCAwIDEgMjk1OSw1MzUuMzQgTDI5NTksMjEzLjM0IEEyLjUsMi41IDAgMCAxIDI5NjEuNSwyMTAuODQgIiBmaWxsPSJub25lIiBzdHlsZT0ic3Ryb2tlOiMwMDAwMDA7c3Ryb2tlLXdpZHRoOjEuNTsiLz48bGluZSBzdHlsZT0ic3Ryb2tlOiMwMDAwMDA7c3Ryb2tlLXdpZHRoOjEuNTsiIHgxPSIyOTU5IiB4Mj0iMzA1OCIgeTE9IjIzMS44MjQ0IiB5Mj0iMjMxLjgyNDQiLz48dGV4dCBmaWxsPSIjMDAwMDAwIiBmb250LWZhbWlseT0ic2Fucy1zZXJpZiIgZm9udC1zaXplPSIxNCIgZm9udC13ZWlnaHQ9ImJvbGQiIGxlbmd0aEFkanVzdD0ic3BhY2luZyIgdGV4dExlbmd0aD0iODYiIHg9IjI5NjMiIHk9IjIyNi4wNzQ0Ij5taWNyb2NsaW1hdGU8L3RleHQ+PC9nPjwhLS1jbHVzdGVyIG1pY3JvbWV0LS0+PGcgaWQ9ImNsdXN0ZXJfbWljcm9tZXQiPjxyZWN0IGZpbGw9Im5vbmUiIGhlaWdodD0iMjE3IiByeD0iMi41IiByeT0iMi41IiBzdHlsZT0ic3Ryb2tlOiMxODE4MTg7c3Ryb2tlLXdpZHRoOjEuMDsiIHdpZHRoPSIyMTYiIHg9IjMyMzUiIHk9IjI3NC4zNCIvPjxyZWN0IGZpbGw9Im5vbmUiIGhlaWdodD0iMTAiIHN0eWxlPSJzdHJva2U6IzE4MTgxODtzdHJva2Utd2lkdGg6MS4wOyIgd2lkdGg9IjE1IiB4PSIzNDMxIiB5PSIyNzkuMzQiLz48cmVjdCBmaWxsPSJub25lIiBoZWlnaHQ9IjIiIHN0eWxlPSJzdHJva2U6IzE4MTgxODtzdHJva2Utd2lkdGg6MS4wOyIgd2lkdGg9IjQiIHg9IjM0MjkiIHk9IjI4MS4zNCIvPjxyZWN0IGZpbGw9Im5vbmUiIGhlaWdodD0iMiIgc3R5bGU9InN0cm9rZTojMTgxODE4O3N0cm9rZS13aWR0aDoxLjA7IiB3aWR0aD0iNCIgeD0iMzQyOSIgeT0iMjg1LjM0Ii8+PHRleHQgZmlsbD0iIzAwMDAwMCIgZm9udC1mYW1pbHk9InNhbnMtc2VyaWYiIGZvbnQtc2l6ZT0iMTQiIGZvbnQtd2VpZ2h0PSJib2xkIiBsZW5ndGhBZGp1c3Q9InNwYWNpbmciIHRleHRMZW5ndGg9IjU4IiB4PSIzMzE0IiB5PSIzMDAuNTc0NCI+bWljcm9tZXQ8L3RleHQ+PC9nPjwhLS1jbHVzdGVyIHJhZGlhdGlvbi0tPjxnIGlkPSJjbHVzdGVyX3JhZGlhdGlvbiI+PHJlY3QgZmlsbD0ibm9uZSIgaGVpZ2h0PSIyNjIiIHJ4PSIyLjUiIHJ5PSIyLjUiIHN0eWxlPSJzdHJva2U6IzE4MTgxODtzdHJva2Utd2lkdGg6MS4wOyIgd2lkdGg9IjIyOCIgeD0iMjk4MyIgeT0iMjUxLjg0Ii8+PHJlY3QgZmlsbD0ibm9uZSIgaGVpZ2h0PSIxMCIgc3R5bGU9InN0cm9rZTojMTgxODE4O3N0cm9rZS13aWR0aDoxLjA7IiB3aWR0aD0iMTUiIHg9IjMxOTEiIHk9IjI1Ni44NCIvPjxyZWN0IGZpbGw9Im5vbmUiIGhlaWdodD0iMiIgc3R5bGU9InN0cm9rZTojMTgxODE4O3N0cm9rZS13aWR0aDoxLjA7IiB3aWR0aD0iNCIgeD0iMzE4OSIgeT0iMjU4Ljg0Ii8+PHJlY3QgZmlsbD0ibm9uZSIgaGVpZ2h0PSIyIiBzdHlsZT0ic3Ryb2tlOiMxODE4MTg7c3Ryb2tlLXdpZHRoOjEuMDsiIHdpZHRoPSI0IiB4PSIzMTg5IiB5PSIyNjIuODQiLz48dGV4dCBmaWxsPSIjMDAwMDAwIiBmb250LWZhbWlseT0ic2Fucy1zZXJpZiIgZm9udC1zaXplPSIxNCIgZm9udC13ZWlnaHQ9ImJvbGQiIGxlbmd0aEFkanVzdD0ic3BhY2luZyIgdGV4dExlbmd0aD0iNjMiIHg9IjMwNjUuNSIgeT0iMjc4LjA3NDQiPnJhZGlhdGlvbjwvdGV4dD48L2c+PCEtLWNsdXN0ZXIgcGxhbnR0eXBlLS0+PGcgaWQ9ImNsdXN0ZXJfcGxhbnR0eXBlIj48cGF0aCBkPSJNMjA5Ni41LDI2My4zNCBMMjE2MC41LDI2My4zNCBBMy43NSwzLjc1IDAgMCAxIDIxNjMsMjY1Ljg0IEwyMTcwLDI4NC4zMjQ0IEwyOTMyLjUsMjg0LjMyNDQgQTIuNSwyLjUgMCAwIDEgMjkzNSwyODYuODI0NCBMMjkzNSw0ODIuODQgQTIuNSwyLjUgMCAwIDEgMjkzMi41LDQ4NS4zNCBMMjA5Ni41LDQ4NS4zNCBBMi41LDIuNSAwIDAgMSAyMDk0LDQ4Mi44NCBMMjA5NCwyNjUuODQgQTIuNSwyLjUgMCAwIDEgMjA5Ni41LDI2My4zNCAiIGZpbGw9Im5vbmUiIHN0eWxlPSJzdHJva2U6IzAwMDAwMDtzdHJva2Utd2lkdGg6MS41OyIvPjxsaW5lIHN0eWxlPSJzdHJva2U6IzAwMDAwMDtzdHJva2Utd2lkdGg6MS41OyIgeDE9IjIwOTQiIHgyPSIyMTcwIiB5MT0iMjg0LjMyNDQiIHkyPSIyODQuMzI0NCIvPjx0ZXh0IGZpbGw9IiMwMDAwMDAiIGZvbnQtZmFtaWx5PSJzYW5zLXNlcmlmIiBmb250LXNpemU9IjE0IiBmb250LXdlaWdodD0iYm9sZCIgbGVuZ3RoQWRqdXN0PSJzcGFjaW5nIiB0ZXh0TGVuZ3RoPSI2MyIgeD0iMjA5OCIgeT0iMjc4LjU3NDQiPnBsYW50dHlwZTwvdGV4dD48L2c+PCEtLWNsdXN0ZXIgcGhlbm9sb2d5LS0+PGcgaWQ9ImNsdXN0ZXJfcGhlbm9sb2d5Ij48cmVjdCBmaWxsPSJub25lIiBoZWlnaHQ9IjEyNyIgcng9IjIuNSIgcnk9IjIuNSIgc3R5bGU9InN0cm9rZTojMTgxODE4O3N0cm9rZS13aWR0aDoxLjA7IiB3aWR0aD0iMjcyIiB4PSIyNjM5IiB5PSIzMTkuMzQiLz48cmVjdCBmaWxsPSJub25lIiBoZWlnaHQ9IjEwIiBzdHlsZT0ic3Ryb2tlOiMxODE4MTg7c3Ryb2tlLXdpZHRoOjEuMDsiIHdpZHRoPSIxNSIgeD0iMjg5MSIgeT0iMzI0LjM0Ii8+PHJlY3QgZmlsbD0ibm9uZSIgaGVpZ2h0PSIyIiBzdHlsZT0ic3Ryb2tlOiMxODE4MTg7c3Ryb2tlLXdpZHRoOjEuMDsiIHdpZHRoPSI0IiB4PSIyODg5IiB5PSIzMjYuMzQiLz48cmVjdCBmaWxsPSJub25lIiBoZWlnaHQ9IjIiIHN0eWxlPSJzdHJva2U6IzE4MTgxODtzdHJva2Utd2lkdGg6MS4wOyIgd2lkdGg9IjQiIHg9IjI4ODkiIHk9IjMzMC4zNCIvPjx0ZXh0IGZpbGw9IiMwMDAwMDAiIGZvbnQtZmFtaWx5PSJzYW5zLXNlcmlmIiBmb250LXNpemU9IjE0IiBmb250LXdlaWdodD0iYm9sZCIgbGVuZ3RoQWRqdXN0PSJzcGFjaW5nIiB0ZXh0TGVuZ3RoPSI2MyIgeD0iMjc0My41IiB5PSIzNDUuNTc0NCI+cGhlbm9sb2d5PC90ZXh0PjwvZz48IS0tY2x1c3RlciBwbGFudHR5cGUtLT48ZyBpZD0iY2x1c3Rlcl9wbGFudHR5cGUiPjxyZWN0IGZpbGw9Im5vbmUiIGhlaWdodD0iMTU3IiByeD0iMi41IiByeT0iMi41IiBzdHlsZT0ic3Ryb2tlOiMxODE4MTg7c3Ryb2tlLXdpZHRoOjEuMDsiIHdpZHRoPSIxOTQiIHg9IjI0MjEiIHk9IjMwNC4zNCIvPjxyZWN0IGZpbGw9Im5vbmUiIGhlaWdodD0iMTAiIHN0eWxlPSJzdHJva2U6IzE4MTgxODtzdHJva2Utd2lkdGg6MS4wOyIgd2lkdGg9IjE1IiB4PSIyNTk1IiB5PSIzMDkuMzQiLz48cmVjdCBmaWxsPSJub25lIiBoZWlnaHQ9IjIiIHN0eWxlPSJzdHJva2U6IzE4MTgxODtzdHJva2Utd2lkdGg6MS4wOyIgd2lkdGg9IjQiIHg9IjI1OTMiIHk9IjMxMS4zNCIvPjxyZWN0IGZpbGw9Im5vbmUiIGhlaWdodD0iMiIgc3R5bGU9InN0cm9rZTojMTgxODE4O3N0cm9rZS13aWR0aDoxLjA7IiB3aWR0aD0iNCIgeD0iMjU5MyIgeT0iMzE1LjM0Ii8+PHRleHQgZmlsbD0iIzAwMDAwMCIgZm9udC1mYW1pbHk9InNhbnMtc2VyaWYiIGZvbnQtc2l6ZT0iMTQiIGZvbnQtd2VpZ2h0PSJib2xkIiBsZW5ndGhBZGp1c3Q9InNwYWNpbmciIHRleHRMZW5ndGg9IjYzIiB4PSIyNDg2LjUiIHk9IjMzMC41NzQ0Ij5wbGFudHR5cGU8L3RleHQ+PC9nPjwhLS1jbHVzdGVyIHJvb3R6b25lLS0+PGcgaWQ9ImNsdXN0ZXJfcm9vdHpvbmUiPjxyZWN0IGZpbGw9Im5vbmUiIGhlaWdodD0iMTI3IiByeD0iMi41IiByeT0iMi41IiBzdHlsZT0ic3Ryb2tlOiMxODE4MTg7c3Ryb2tlLXdpZHRoOjEuMDsiIHdpZHRoPSIxNzIiIHg9IjIyMjUiIHk9IjMxOS4zNCIvPjxyZWN0IGZpbGw9Im5vbmUiIGhlaWdodD0iMTAiIHN0eWxlPSJzdHJva2U6IzE4MTgxODtzdHJva2Utd2lkdGg6MS4wOyIgd2lkdGg9IjE1IiB4PSIyMzc3IiB5PSIzMjQuMzQiLz48cmVjdCBmaWxsPSJub25lIiBoZWlnaHQ9IjIiIHN0eWxlPSJzdHJva2U6IzE4MTgxODtzdHJva2Utd2lkdGg6MS4wOyIgd2lkdGg9IjQiIHg9IjIzNzUiIHk9IjMyNi4zNCIvPjxyZWN0IGZpbGw9Im5vbmUiIGhlaWdodD0iMiIgc3R5bGU9InN0cm9rZTojMTgxODE4O3N0cm9rZS13aWR0aDoxLjA7IiB3aWR0aD0iNCIgeD0iMjM3NSIgeT0iMzMwLjM0Ii8+PHRleHQgZmlsbD0iIzAwMDAwMCIgZm9udC1mYW1pbHk9InNhbnMtc2VyaWYiIGZvbnQtc2l6ZT0iMTQiIGZvbnQtd2VpZ2h0PSJib2xkIiBsZW5ndGhBZGp1c3Q9InNwYWNpbmciIHRleHRMZW5ndGg9IjU2IiB4PSIyMjgzIiB5PSIzNDUuNTc0NCI+cm9vdHpvbmU8L3RleHQ+PC9nPjwhLS1jbHVzdGVyIHNub3ctLT48ZyBpZD0iY2x1c3Rlcl9zbm93Ij48cGF0aCBkPSJNMzIuNSwxMjQuODQgTDYyLjUsMTI0Ljg0IEEzLjc1LDMuNzUgMCAwIDEgNjUsMTI3LjM0IEw3MiwxNDUuODI0NCBMMjA2Ny41LDE0NS44MjQ0IEEyLjUsMi41IDAgMCAxIDIwNzAsMTQ4LjMyNDQgTDIwNzAsOTczLjM0IEEyLjUsMi41IDAgMCAxIDIwNjcuNSw5NzUuODQgTDMyLjUsOTc1Ljg0IEEyLjUsMi41IDAgMCAxIDMwLDk3My4zNCBMMzAsMTI3LjM0IEEyLjUsMi41IDAgMCAxIDMyLjUsMTI0Ljg0ICIgZmlsbD0ibm9uZSIgc3R5bGU9InN0cm9rZTojMDAwMDAwO3N0cm9rZS13aWR0aDoxLjU7Ii8+PGxpbmUgc3R5bGU9InN0cm9rZTojMDAwMDAwO3N0cm9rZS13aWR0aDoxLjU7IiB4MT0iMzAiIHgyPSI3MiIgeTE9IjE0NS44MjQ0IiB5Mj0iMTQ1LjgyNDQiLz48dGV4dCBmaWxsPSIjMDAwMDAwIiBmb250LWZhbWlseT0ic2Fucy1zZXJpZiIgZm9udC1zaXplPSIxNCIgZm9udC13ZWlnaHQ9ImJvbGQiIGxlbmd0aEFkanVzdD0ic3BhY2luZyIgdGV4dExlbmd0aD0iMjkiIHg9IjM0IiB5PSIxNDAuMDc0NCI+c25vdzwvdGV4dD48L2c+PCEtLWNsdXN0ZXIgc25vd3BhY2stLT48ZyBpZD0iY2x1c3Rlcl9zbm93cGFjayI+PHJlY3QgZmlsbD0ibm9uZSIgaGVpZ2h0PSIxMjciIHJ4PSIyLjUiIHJ5PSIyLjUiIHN0eWxlPSJzdHJva2U6IzE4MTgxODtzdHJva2Utd2lkdGg6MS4wOyIgd2lkdGg9IjE1NiIgeD0iMTg5MCIgeT0iMzE5LjM0Ii8+PHJlY3QgZmlsbD0ibm9uZSIgaGVpZ2h0PSIxMCIgc3R5bGU9InN0cm9rZTojMTgxODE4O3N0cm9rZS13aWR0aDoxLjA7IiB3aWR0aD0iMTUiIHg9IjIwMjYiIHk9IjMyNC4zNCIvPjxyZWN0IGZpbGw9Im5vbmUiIGhlaWdodD0iMiIgc3R5bGU9InN0cm9rZTojMTgxODE4O3N0cm9rZS13aWR0aDoxLjA7IiB3aWR0aD0iNCIgeD0iMjAyNCIgeT0iMzI2LjM0Ii8+PHJlY3QgZmlsbD0ibm9uZSIgaGVpZ2h0PSIyIiBzdHlsZT0ic3Ryb2tlOiMxODE4MTg7c3Ryb2tlLXdpZHRoOjEuMDsiIHdpZHRoPSI0IiB4PSIyMDI0IiB5PSIzMzAuMzQiLz48dGV4dCBmaWxsPSIjMDAwMDAwIiBmb250LWZhbWlseT0ic2Fucy1zZXJpZiIgZm9udC1zaXplPSIxNCIgZm9udC13ZWlnaHQ9ImJvbGQiIGxlbmd0aEFkanVzdD0ic3BhY2luZyIgdGV4dExlbmd0aD0iNTciIHg9IjE5MzkuNSIgeT0iMzQ1LjU3NDQiPnNub3dwYWNrPC90ZXh0PjwvZz48IS0tY2x1c3RlciBzb2lsLS0+PGcgaWQ9ImNsdXN0ZXJfc29pbCI+PHBhdGggZD0iTTk4MS41LDE2NS44NCBMMTAxMC41LDE2NS44NCBBMy43NSwzLjc1IDAgMCAxIDEwMTMsMTY4LjM0IEwxMDIwLDE4Ni44MjQ0IEwxODYzLjUsMTg2LjgyNDQgQTIuNSwyLjUgMCAwIDEgMTg2NiwxODkuMzI0NCBMMTg2Niw1ODAuMzQgQTIuNSwyLjUgMCAwIDEgMTg2My41LDU4Mi44NCBMOTgxLjUsNTgyLjg0IEEyLjUsMi41IDAgMCAxIDk3OSw1ODAuMzQgTDk3OSwxNjguMzQgQTIuNSwyLjUgMCAwIDEgOTgxLjUsMTY1Ljg0ICIgZmlsbD0ibm9uZSIgc3R5bGU9InN0cm9rZTojMDAwMDAwO3N0cm9rZS13aWR0aDoxLjU7Ii8+PGxpbmUgc3R5bGU9InN0cm9rZTojMDAwMDAwO3N0cm9rZS13aWR0aDoxLjU7IiB4MT0iOTc5IiB4Mj0iMTAyMCIgeTE9IjE4Ni44MjQ0IiB5Mj0iMTg2LjgyNDQiLz48dGV4dCBmaWxsPSIjMDAwMDAwIiBmb250LWZhbWlseT0ic2Fucy1zZXJpZiIgZm9udC1zaXplPSIxNCIgZm9udC13ZWlnaHQ9ImJvbGQiIGxlbmd0aEFkanVzdD0ic3BhY2luZyIgdGV4dExlbmd0aD0iMjgiIHg9Ijk4MyIgeT0iMTgxLjA3NDQiPnNvaWw8L3RleHQ+PC9nPjwhLS1jbHVzdGVyIHNvaWwtLT48ZyBpZD0iY2x1c3Rlcl9zb2lsIj48cmVjdCBmaWxsPSJub25lIiBoZWlnaHQ9IjE0MiIgcng9IjIuNSIgcnk9IjIuNSIgc3R5bGU9InN0cm9rZTojMTgxODE4O3N0cm9rZS13aWR0aDoxLjA7IiB3aWR0aD0iMTYwIiB4PSIxNjgyIiB5PSIzMTEuODQiLz48cmVjdCBmaWxsPSJub25lIiBoZWlnaHQ9IjEwIiBzdHlsZT0ic3Ryb2tlOiMxODE4MTg7c3Ryb2tlLXdpZHRoOjEuMDsiIHdpZHRoPSIxNSIgeD0iMTgyMiIgeT0iMzE2Ljg0Ii8+PHJlY3QgZmlsbD0ibm9uZSIgaGVpZ2h0PSIyIiBzdHlsZT0ic3Ryb2tlOiMxODE4MTg7c3Ryb2tlLXdpZHRoOjEuMDsiIHdpZHRoPSI0IiB4PSIxODIwIiB5PSIzMTguODQiLz48cmVjdCBmaWxsPSJub25lIiBoZWlnaHQ9IjIiIHN0eWxlPSJzdHJva2U6IzE4MTgxODtzdHJva2Utd2lkdGg6MS4wOyIgd2lkdGg9IjQiIHg9IjE4MjAiIHk9IjMyMi44NCIvPjx0ZXh0IGZpbGw9IiMwMDAwMDAiIGZvbnQtZmFtaWx5PSJzYW5zLXNlcmlmIiBmb250LXNpemU9IjE0IiBmb250LXdlaWdodD0iYm9sZCIgbGVuZ3RoQWRqdXN0PSJzcGFjaW5nIiB0ZXh0TGVuZ3RoPSIyOCIgeD0iMTc0OCIgeT0iMzM4LjA3NDQiPnNvaWw8L3RleHQ+PC9nPjwhLS1jbHVzdGVyIGhlYXQtLT48ZyBpZD0iY2x1c3Rlcl9oZWF0Ij48cmVjdCBmaWxsPSJub25lIiBoZWlnaHQ9IjIzMiIgcng9IjIuNSIgcnk9IjIuNSIgc3R5bGU9InN0cm9rZTojMTgxODE4O3N0cm9rZS13aWR0aDoxLjA7IiB3aWR0aD0iMjcwIiB4PSIxMzg4IiB5PSIyNjYuODQiLz48cmVjdCBmaWxsPSJub25lIiBoZWlnaHQ9IjEwIiBzdHlsZT0ic3Ryb2tlOiMxODE4MTg7c3Ryb2tlLXdpZHRoOjEuMDsiIHdpZHRoPSIxNSIgeD0iMTYzOCIgeT0iMjcxLjg0Ii8+PHJlY3QgZmlsbD0ibm9uZSIgaGVpZ2h0PSIyIiBzdHlsZT0ic3Ryb2tlOiMxODE4MTg7c3Ryb2tlLXdpZHRoOjEuMDsiIHdpZHRoPSI0IiB4PSIxNjM2IiB5PSIyNzMuODQiLz48cmVjdCBmaWxsPSJub25lIiBoZWlnaHQ9IjIiIHN0eWxlPSJzdHJva2U6IzE4MTgxODtzdHJva2Utd2lkdGg6MS4wOyIgd2lkdGg9IjQiIHg9IjE2MzYiIHk9IjI3Ny44NCIvPjx0ZXh0IGZpbGw9IiMwMDAwMDAiIGZvbnQtZmFtaWx5PSJzYW5zLXNlcmlmIiBmb250LXNpemU9IjE0IiBmb250LXdlaWdodD0iYm9sZCIgbGVuZ3RoQWRqdXN0PSJzcGFjaW5nIiB0ZXh0TGVuZ3RoPSIyOCIgeD0iMTUwOSIgeT0iMjkzLjA3NDQiPmhlYXQ8L3RleHQ+PC9nPjwhLS1jbHVzdGVyIHdhdGVyLS0+PGcgaWQ9ImNsdXN0ZXJfd2F0ZXIiPjxyZWN0IGZpbGw9Im5vbmUiIGhlaWdodD0iMzUyIiByeD0iMi41IiByeT0iMi41IiBzdHlsZT0ic3Ryb2tlOiMxODE4MTg7c3Ryb2tlLXdpZHRoOjEuMDsiIHdpZHRoPSIzNjEiIHg9IjEwMDMiIHk9IjIwNi44NCIvPjxyZWN0IGZpbGw9Im5vbmUiIGhlaWdodD0iMTAiIHN0eWxlPSJzdHJva2U6IzE4MTgxODtzdHJva2Utd2lkdGg6MS4wOyIgd2lkdGg9IjE1IiB4PSIxMzQ0IiB5PSIyMTEuODQiLz48cmVjdCBmaWxsPSJub25lIiBoZWlnaHQ9IjIiIHN0eWxlPSJzdHJva2U6IzE4MTgxODtzdHJva2Utd2lkdGg6MS4wOyIgd2lkdGg9IjQiIHg9IjEzNDIiIHk9IjIxMy44NCIvPjxyZWN0IGZpbGw9Im5vbmUiIGhlaWdodD0iMiIgc3R5bGU9InN0cm9rZTojMTgxODE4O3N0cm9rZS13aWR0aDoxLjA7IiB3aWR0aD0iNCIgeD0iMTM0MiIgeT0iMjE3Ljg0Ii8+PHRleHQgZmlsbD0iIzAwMDAwMCIgZm9udC1mYW1pbHk9InNhbnMtc2VyaWYiIGZvbnQtc2l6ZT0iMTQiIGZvbnQtd2VpZ2h0PSJib2xkIiBsZW5ndGhBZGp1c3Q9InNwYWNpbmciIHRleHRMZW5ndGg9IjM2IiB4PSIxMTY1LjUiIHk9IjIzMy4wNzQ0Ij53YXRlcjwvdGV4dD48L2c+PCEtLWNsdXN0ZXIgcGFyYW1ldGVycy0tPjxnIGlkPSJjbHVzdGVyX3BhcmFtZXRlcnMiPjxwYXRoIGQ9Ik02MTIuNSwzMzUuODQgTDY4NC41LDMzNS44NCBBMy43NSwzLjc1IDAgMCAxIDY4NywzMzguMzQgTDY5NCwzNTYuODI0NCBMOTUyLjUsMzU2LjgyNDQgQTIuNSwyLjUgMCAwIDEgOTU1LDM1OS4zMjQ0IEw5NTUsNjYxLjM0IEEyLjUsMi41IDAgMCAxIDk1Mi41LDY2My44NCBMNjEyLjUsNjYzLjg0IEEyLjUsMi41IDAgMCAxIDYxMCw2NjEuMzQgTDYxMCwzMzguMzQgQTIuNSwyLjUgMCAwIDEgNjEyLjUsMzM1Ljg0ICIgZmlsbD0ibm9uZSIgc3R5bGU9InN0cm9rZTojMDAwMDAwO3N0cm9rZS13aWR0aDoxLjU7Ii8+PGxpbmUgc3R5bGU9InN0cm9rZTojMDAwMDAwO3N0cm9rZS13aWR0aDoxLjU7IiB4MT0iNjEwIiB4Mj0iNjk0IiB5MT0iMzU2LjgyNDQiIHkyPSIzNTYuODI0NCIvPjx0ZXh0IGZpbGw9IiMwMDAwMDAiIGZvbnQtZmFtaWx5PSJzYW5zLXNlcmlmIiBmb250LXNpemU9IjE0IiBmb250LXdlaWdodD0iYm9sZCIgbGVuZ3RoQWRqdXN0PSJzcGFjaW5nIiB0ZXh0TGVuZ3RoPSI3MSIgeD0iNjE0IiB5PSIzNTEuMDc0NCI+cGFyYW1ldGVyczwvdGV4dD48L2c+PCEtLWNsdXN0ZXIgdXRpbHMtLT48ZyBpZD0iY2x1c3Rlcl91dGlscyI+PHBhdGggZD0iTTMzNi41LDMzNS44NCBMMzcyLjUsMzM1Ljg0IEEzLjc1LDMuNzUgMCAwIDEgMzc1LDMzOC4zNCBMMzgyLDM1Ni44MjQ0IEw1ODMuNSwzNTYuODI0NCBBMi41LDIuNSAwIDAgMSA1ODYsMzU5LjMyNDQgTDU4Niw2NjEuMzQgQTIuNSwyLjUgMCAwIDEgNTgzLjUsNjYzLjg0IEwzMzYuNSw2NjMuODQgQTIuNSwyLjUgMCAwIDEgMzM0LDY2MS4zNCBMMzM0LDMzOC4zNCBBMi41LDIuNSAwIDAgMSAzMzYuNSwzMzUuODQgIiBmaWxsPSJub25lIiBzdHlsZT0ic3Ryb2tlOiMwMDAwMDA7c3Ryb2tlLXdpZHRoOjEuNTsiLz48bGluZSBzdHlsZT0ic3Ryb2tlOiMwMDAwMDA7c3Ryb2tlLXdpZHRoOjEuNTsiIHgxPSIzMzQiIHgyPSIzODIiIHkxPSIzNTYuODI0NCIgeTI9IjM1Ni44MjQ0Ii8+PHRleHQgZmlsbD0iIzAwMDAwMCIgZm9udC1mYW1pbHk9InNhbnMtc2VyaWYiIGZvbnQtc2l6ZT0iMTQiIGZvbnQtd2VpZ2h0PSJib2xkIiBsZW5ndGhBZGp1c3Q9InNwYWNpbmciIHRleHRMZW5ndGg9IjM1IiB4PSIzMzgiIHk9IjM1MS4wNzQ0Ij51dGlsczwvdGV4dD48L2c+PCEtLWNsdXN0ZXIgcHlBUEVTX3V0aWxpdGllcy0tPjxnIGlkPSJjbHVzdGVyX3B5QVBFU191dGlsaXRpZXMiPjxwYXRoIGQ9Ik01ODguNSw2ODcuODQgTDcwMS41LDY4Ny44NCBBMy43NSwzLjc1IDAgMCAxIDcwNCw2OTAuMzQgTDcxMSw3MDguODI0NCBMMTUwMC41LDcwOC44MjQ0IEEyLjUsMi41IDAgMCAxIDE1MDMsNzExLjMyNDQgTDE1MDMsOTQ5LjM0IEEyLjUsMi41IDAgMCAxIDE1MDAuNSw5NTEuODQgTDU4OC41LDk1MS44NCBBMi41LDIuNSAwIDAgMSA1ODYsOTQ5LjM0IEw1ODYsNjkwLjM0IEEyLjUsMi41IDAgMCAxIDU4OC41LDY4Ny44NCAiIGZpbGw9Im5vbmUiIHN0eWxlPSJzdHJva2U6IzAwMDAwMDtzdHJva2Utd2lkdGg6MS41OyIvPjxsaW5lIHN0eWxlPSJzdHJva2U6IzAwMDAwMDtzdHJva2Utd2lkdGg6MS41OyIgeDE9IjU4NiIgeDI9IjcxMSIgeTE9IjcwOC44MjQ0IiB5Mj0iNzA4LjgyNDQiLz48dGV4dCBmaWxsPSIjMDAwMDAwIiBmb250LWZhbWlseT0ic2Fucy1zZXJpZiIgZm9udC1zaXplPSIxNCIgZm9udC13ZWlnaHQ9ImJvbGQiIGxlbmd0aEFkanVzdD0ic3BhY2luZyIgdGV4dExlbmd0aD0iMTEyIiB4PSI1OTAiIHk9IjcwMy4wNzQ0Ij5weUFQRVNfdXRpbGl0aWVzPC90ZXh0PjwvZz48IS0tY2x1c3RlciBzb2lsdHlwZXMtLT48ZyBpZD0iY2x1c3Rlcl9zb2lsdHlwZXMiPjxwYXRoIGQ9Ik0xMjM1LjUsNzI4Ljg0IEwxMjk5LjUsNzI4Ljg0IEEzLjc1LDMuNzUgMCAwIDEgMTMwMiw3MzEuMzQgTDEzMDksNzQ5LjgyNDQgTDE0NzYuNSw3NDkuODI0NCBBMi41LDIuNSAwIDAgMSAxNDc5LDc1Mi4zMjQ0IEwxNDc5LDkyNS4zNCBBMi41LDIuNSAwIDAgMSAxNDc2LjUsOTI3Ljg0IEwxMjM1LjUsOTI3Ljg0IEEyLjUsMi41IDAgMCAxIDEyMzMsOTI1LjM0IEwxMjMzLDczMS4zNCBBMi41LDIuNSAwIDAgMSAxMjM1LjUsNzI4Ljg0ICIgZmlsbD0ibm9uZSIgc3R5bGU9InN0cm9rZTojMDAwMDAwO3N0cm9rZS13aWR0aDoxLjU7Ii8+PGxpbmUgc3R5bGU9InN0cm9rZTojMDAwMDAwO3N0cm9rZS13aWR0aDoxLjU7IiB4MT0iMTIzMyIgeDI9IjEzMDkiIHkxPSI3NDkuODI0NCIgeTI9Ijc0OS44MjQ0Ii8+PHRleHQgZmlsbD0iIzAwMDAwMCIgZm9udC1mYW1pbHk9InNhbnMtc2VyaWYiIGZvbnQtc2l6ZT0iMTQiIGZvbnQtd2VpZ2h0PSJib2xkIiBsZW5ndGhBZGp1c3Q9InNwYWNpbmciIHRleHRMZW5ndGg9IjYzIiB4PSIxMjM3IiB5PSI3NDQuMDc0NCI+c29pbHR5cGVzPC90ZXh0PjwvZz48IS0tY2xhc3MgQmFyZXNvaWwtLT48ZyBpZD0iZWxlbV9CYXJlc29pbCI+PHJlY3QgY29kZUxpbmU9IjUiIGZpbGw9IiNGMUYxRjEiIGhlaWdodD0iMTA3LjkzNzUiIGlkPSJCYXJlc29pbCIgcng9IjIuNSIgcnk9IjIuNSIgc3R5bGU9InN0cm9rZTojMTgxODE4O3N0cm9rZS13aWR0aDowLjU7IiB3aWR0aD0iMTEyIiB4PSI2MzIwIiB5PSIzMzcuMzQiLz48ZWxsaXBzZSBjeD0iNjM0NS44IiBjeT0iMzUzLjM0IiBmaWxsPSIjQUREMUIyIiByeD0iMTEiIHJ5PSIxMSIgc3R5bGU9InN0cm9rZTojMTgxODE4O3N0cm9rZS13aWR0aDoxLjA7Ii8+PHBhdGggZD0iTTYzNDMuNDI1LDM1Ny41OSBMNjM0My40MjUsMzU5LjM0IEw2MzQ4LjM2MjUsMzU5LjM0IEw2MzQ4LjM2MjUsMzU3LjU5IEw2MzQzLjQyNSwzNTcuNTkgWiBNNjM0NC4xMTI1LDM1OC4yNzc1IFE2MzQ0LjExMjUsMzU4LjI3NzUgNjM0NC4xMTI1LDM0OS4wOSBMNjM0Mi4zNjI1LDM0OS4wOSBRNjM0Mi4zNjI1LDM0OS4wOSA2MzQyLjM2MjUsMzU4LjI3NzUgTDYzNDQuMTEyNSwzNTguMjc3NSBaIE02MzQ3LjY3NSwzNTguMjc3NSBMNjM0OS40MjUsMzU4LjI3NzUgUTYzNDkuNDI1LDM1OC4yNzc1IDYzNDkuNDI1LDM1NS40NjUgTDYzNDcuNjc1LDM1NS40NjUgUTYzNDcuNjc1LDM1NS40NjUgNjM0Ny42NzUsMzU4LjI3NzUgWiBNNjM0Ny42NzUsMzQ5LjA5IFE2MzQ3LjY3NSwzNDkuMDkgNjM0Ny42NzUsMzUxLjkwMjUgTDYzNDkuNDI1LDM1MS45MDI1IFE2MzQ5LjQyNSwzNTEuOTAyNSA2MzQ5LjQyNSwzNDkuMDkgTDYzNDcuNjc1LDM0OS4wOSBaIE02MzQzLjQyNSwzNDkuNzc3NSBMNjM0OC4zNjI1LDM0OS43Nzc1IEw2MzQ4LjM2MjUsMzQ4LjAyNzUgTDYzNDMuNDI1LDM0OC4wMjc1IEw2MzQzLjQyNSwzNDkuNzc3NSBaICIgZmlsbD0iIzAwMDAwMCIvPjx0ZXh0IGZpbGw9IiMwMDAwMDAiIGZvbnQtZmFtaWx5PSJzYW5zLXNlcmlmIiBmb250LXNpemU9IjE0IiBsZW5ndGhBZGp1c3Q9InNwYWNpbmciIHRleHRMZW5ndGg9IjU2IiB4PSI2MzYyLjIiIHk9IjM1OS4wODIyIj5CYXJlc29pbDwvdGV4dD48bGluZSBzdHlsZT0ic3Ryb2tlOiMxODE4MTg7c3Ryb2tlLXdpZHRoOjAuNTsiIHgxPSI2MzIxIiB4Mj0iNjQzMSIgeTE9IjM2OS4zNCIgeTI9IjM2OS4zNCIvPjxsaW5lIHN0eWxlPSJzdHJva2U6IzE4MTgxODtzdHJva2Utd2lkdGg6MC41OyIgeDE9IjYzMjEiIHgyPSI2NDMxIiB5MT0iMzc3LjM0IiB5Mj0iMzc3LjM0Ii8+PHRleHQgZmlsbD0iIzAwMDAwMCIgZm9udC1mYW1pbHk9InNhbnMtc2VyaWYiIGZvbnQtc2l6ZT0iMTQiIGxlbmd0aEFkanVzdD0ic3BhY2luZyIgdGV4dExlbmd0aD0iMzciIHg9IjYzMjYiIHk9IjM5NC41NzQ0Ij5ydW4oKTwvdGV4dD48dGV4dCBmaWxsPSIjMDAwMDAwIiBmb250LWZhbWlseT0ic2Fucy1zZXJpZiIgZm9udC1zaXplPSIxNCIgbGVuZ3RoQWRqdXN0PSJzcGFjaW5nIiB0ZXh0TGVuZ3RoPSI1OCIgeD0iNjMyNiIgeT0iNDA5LjU1ODgiPnVwZGF0ZSgpPC90ZXh0Pjx0ZXh0IGZpbGw9IiMwMDAwMDAiIGZvbnQtZmFtaWx5PSJzYW5zLXNlcmlmIiBmb250LXNpemU9IjE0IiBsZW5ndGhBZGp1c3Q9InNwYWNpbmciIHRleHRMZW5ndGg9IjY1IiB4PSI2MzI2IiB5PSI0MjQuNTQzMSI+cmVzdG9yZSgpPC90ZXh0Pjx0ZXh0IGZpbGw9IiMwMDAwMDAiIGZvbnQtZmFtaWx5PSJzYW5zLXNlcmlmIiBmb250LXNpemU9IjE0IiBsZW5ndGhBZGp1c3Q9InNwYWNpbmciIHRleHRMZW5ndGg9IjEwMCIgeD0iNjMyNiIgeT0iNDM5LjUyNzUiPmhlYXRfYmFsYW5jZSgpPC90ZXh0PjwvZz48IS0tY2xhc3MgT3JnYW5pY0xheWVyLS0+PGcgaWQ9ImVsZW1fT3JnYW5pY0xheWVyIj48cmVjdCBjb2RlTGluZT0iMTMiIGZpbGw9IiNGMUYxRjEiIGhlaWdodD0iMjg3Ljc1IiBpZD0iT3JnYW5pY0xheWVyIiByeD0iMi41IiByeT0iMi41IiBzdHlsZT0ic3Ryb2tlOiMxODE4MTg7c3Ryb2tlLXdpZHRoOjAuNTsiIHdpZHRoPSIyNTkiIHg9IjYwMDQuNSIgeT0iMjQ3LjM0Ii8+PGVsbGlwc2UgY3g9IjYwODcuNzUiIGN5PSIyNjMuMzQiIGZpbGw9IiNBREQxQjIiIHJ4PSIxMSIgcnk9IjExIiBzdHlsZT0ic3Ryb2tlOiMxODE4MTg7c3Ryb2tlLXdpZHRoOjEuMDsiLz48cGF0aCBkPSJNNjA4NS4zNzUsMjY3LjU5IEw2MDg1LjM3NSwyNjkuMzQgTDYwOTAuMzEyNSwyNjkuMzQgTDYwOTAuMzEyNSwyNjcuNTkgTDYwODUuMzc1LDI2Ny41OSBaIE02MDg2LjA2MjUsMjY4LjI3NzUgUTYwODYuMDYyNSwyNjguMjc3NSA2MDg2LjA2MjUsMjU5LjA5IEw2MDg0LjMxMjUsMjU5LjA5IFE2MDg0LjMxMjUsMjU5LjA5IDYwODQuMzEyNSwyNjguMjc3NSBMNjA4Ni4wNjI1LDI2OC4yNzc1IFogTTYwODkuNjI1LDI2OC4yNzc1IEw2MDkxLjM3NSwyNjguMjc3NSBRNjA5MS4zNzUsMjY4LjI3NzUgNjA5MS4zNzUsMjY1LjQ2NSBMNjA4OS42MjUsMjY1LjQ2NSBRNjA4OS42MjUsMjY1LjQ2NSA2MDg5LjYyNSwyNjguMjc3NSBaIE02MDg5LjYyNSwyNTkuMDkgUTYwODkuNjI1LDI1OS4wOSA2MDg5LjYyNSwyNjEuOTAyNSBMNjA5MS4zNzUsMjYxLjkwMjUgUTYwOTEuMzc1LDI2MS45MDI1IDYwOTEuMzc1LDI1OS4wOSBMNjA4OS42MjUsMjU5LjA5IFogTTYwODUuMzc1LDI1OS43Nzc1IEw2MDkwLjMxMjUsMjU5Ljc3NzUgTDYwOTAuMzEyNSwyNTguMDI3NSBMNjA4NS4zNzUsMjU4LjAyNzUgTDYwODUuMzc1LDI1OS43Nzc1IFogIiBmaWxsPSIjMDAwMDAwIi8+PHRleHQgZmlsbD0iIzAwMDAwMCIgZm9udC1mYW1pbHk9InNhbnMtc2VyaWYiIGZvbnQtc2l6ZT0iMTQiIGxlbmd0aEFkanVzdD0ic3BhY2luZyIgdGV4dExlbmd0aD0iODQiIHg9IjYxMDguMjUiIHk9IjI2OS4wODIyIj5PcmdhbmljTGF5ZXI8L3RleHQ+PGxpbmUgc3R5bGU9InN0cm9rZTojMTgxODE4O3N0cm9rZS13aWR0aDowLjU7IiB4MT0iNjAwNS41IiB4Mj0iNjI2Mi41IiB5MT0iMjc5LjM0IiB5Mj0iMjc5LjM0Ii8+PGxpbmUgc3R5bGU9InN0cm9rZTojMTgxODE4O3N0cm9rZS13aWR0aDowLjU7IiB4MT0iNjAwNS41IiB4Mj0iNjI2Mi41IiB5MT0iMjg3LjM0IiB5Mj0iMjg3LjM0Ii8+PHRleHQgZmlsbD0iIzAwMDAwMCIgZm9udC1mYW1pbHk9InNhbnMtc2VyaWYiIGZvbnQtc2l6ZT0iMTQiIGxlbmd0aEFkanVzdD0ic3BhY2luZyIgdGV4dExlbmd0aD0iMzciIHg9IjYwMTAuNSIgeT0iMzA0LjU3NDQiPnJ1bigpPC90ZXh0Pjx0ZXh0IGZpbGw9IiMwMDAwMDAiIGZvbnQtZmFtaWx5PSJzYW5zLXNlcmlmIiBmb250LXNpemU9IjE0IiBsZW5ndGhBZGp1c3Q9InNwYWNpbmciIHRleHRMZW5ndGg9IjEwMCIgeD0iNjAxMC41IiB5PSIzMTkuNTU4OCI+dXBkYXRlX3N0YXRlKCk8L3RleHQ+PHRleHQgZmlsbD0iIzAwMDAwMCIgZm9udC1mYW1pbHk9InNhbnMtc2VyaWYiIGZvbnQtc2l6ZT0iMTQiIGxlbmd0aEFkanVzdD0ic3BhY2luZyIgdGV4dExlbmd0aD0iMTc4IiB4PSI2MDEwLjUiIHk9IjMzNC41NDMxIj5oZWF0X2FuZF93YXRlcl9leGNoYW5nZSgpPC90ZXh0Pjx0ZXh0IGZpbGw9IiMwMDAwMDAiIGZvbnQtZmFtaWx5PSJzYW5zLXNlcmlmIiBmb250LXNpemU9IjE0IiBsZW5ndGhBZGp1c3Q9InNwYWNpbmciIHRleHRMZW5ndGg9IjE2NCIgeD0iNjAxMC41IiB5PSIzNDkuNTI3NSI+d2F0ZXJfaGVhdF90ZW5kZW5jaWVzKCk8L3RleHQ+PHRleHQgZmlsbD0iIzAwMDAwMCIgZm9udC1mYW1pbHk9InNhbnMtc2VyaWYiIGZvbnQtc2l6ZT0iMTQiIGxlbmd0aEFkanVzdD0ic3BhY2luZyIgdGV4dExlbmd0aD0iMTE1IiB4PSI2MDEwLjUiIHk9IjM2NC41MTE5Ij53YXRlcl9leGNoYW5nZSgpPC90ZXh0Pjx0ZXh0IGZpbGw9IiMwMDAwMDAiIGZvbnQtZmFtaWx5PSJzYW5zLXNlcmlmIiBmb250LXNpemU9IjE0IiBsZW5ndGhBZGp1c3Q9InNwYWNpbmciIHRleHRMZW5ndGg9IjkzIiB4PSI2MDEwLjUiIHk9IjM3OS40OTYzIj5yZWZsZWN0YW5jZSgpPC90ZXh0Pjx0ZXh0IGZpbGw9IiMwMDAwMDAiIGZvbnQtZmFtaWx5PSJzYW5zLXNlcmlmIiBmb250LXNpemU9IjE0IiBsZW5ndGhBZGp1c3Q9InNwYWNpbmciIHRleHRMZW5ndGg9IjE1NyIgeD0iNjAxMC41IiB5PSIzOTQuNDgwNiI+dGhlcm1hbF9jb25kdWN0aXZpdHkoKTwvdGV4dD48dGV4dCBmaWxsPSIjMDAwMDAwIiBmb250LWZhbWlseT0ic2Fucy1zZXJpZiIgZm9udC1zaXplPSIxNCIgbGVuZ3RoQWRqdXN0PSJzcGFjaW5nIiB0ZXh0TGVuZ3RoPSIxNzgiIHg9IjYwMTAuNSIgeT0iNDA5LjQ2NSI+c3VyZmFjZV9hdG1fY29uZHVjdGFuY2UoKTwvdGV4dD48dGV4dCBmaWxsPSIjMDAwMDAwIiBmb250LWZhbWlseT0ic2Fucy1zZXJpZiIgZm9udC1zaXplPSIxNCIgbGVuZ3RoQWRqdXN0PSJzcGFjaW5nIiB0ZXh0TGVuZ3RoPSIyNDciIHg9IjYwMTAuNSIgeT0iNDI0LjQ0OTQiPmV2YXBvcmF0aW9uX3Rocm91Z2hfb3JnYW5pY19sYXllcigpPC90ZXh0Pjx0ZXh0IGZpbGw9IiMwMDAwMDAiIGZvbnQtZmFtaWx5PSJzYW5zLXNlcmlmIiBmb250LXNpemU9IjE0IiBsZW5ndGhBZGp1c3Q9InNwYWNpbmciIHRleHRMZW5ndGg9IjE2NCIgeD0iNjAxMC41IiB5PSI0MzkuNDMzOCI+d2F0ZXJfcmV0ZW50aW9uX2N1cnZlKCk8L3RleHQ+PHRleHQgZmlsbD0iIzAwMDAwMCIgZm9udC1mYW1pbHk9InNhbnMtc2VyaWYiIGZvbnQtc2l6ZT0iMTQiIGxlbmd0aEFkanVzdD0ic3BhY2luZyIgdGV4dExlbmd0aD0iNzkiIHg9IjYwMTAuNSIgeT0iNDU0LjQxODEiPnRoZXRhX3BzaSgpPC90ZXh0Pjx0ZXh0IGZpbGw9IiMwMDAwMDAiIGZvbnQtZmFtaWx5PSJzYW5zLXNlcmlmIiBmb250LXNpemU9IjE0IiBsZW5ndGhBZGp1c3Q9InNwYWNpbmciIHRleHRMZW5ndGg9Ijc5IiB4PSI2MDEwLjUiIHk9IjQ2OS40MDI1Ij5wc2lfdGhldGEoKTwvdGV4dD48dGV4dCBmaWxsPSIjMDAwMDAwIiBmb250LWZhbWlseT0ic2Fucy1zZXJpZiIgZm9udC1zaXplPSIxNCIgbGVuZ3RoQWRqdXN0PSJzcGFjaW5nIiB0ZXh0TGVuZ3RoPSIxNzAiIHg9IjYwMTAuNSIgeT0iNDg0LjM4NjkiPmh5ZHJhdWxpY19jb25kdWN0aXZpdHkoKTwvdGV4dD48dGV4dCBmaWxsPSIjMDAwMDAwIiBmb250LWZhbWlseT0ic2Fucy1zZXJpZiIgZm9udC1zaXplPSIxNCIgbGVuZ3RoQWRqdXN0PSJzcGFjaW5nIiB0ZXh0TGVuZ3RoPSIxOTEiIHg9IjYwMTAuNSIgeT0iNDk5LjM3MTMiPnNhdHVyYXRpb25fdmFwb3JfcHJlc3N1cmUoKTwvdGV4dD48dGV4dCBmaWxsPSIjMDAwMDAwIiBmb250LWZhbWlseT0ic2Fucy1zZXJpZiIgZm9udC1zaXplPSIxNCIgbGVuZ3RoQWRqdXN0PSJzcGFjaW5nIiB0ZXh0TGVuZ3RoPSIxNTgiIHg9IjYwMTAuNSIgeT0iNTE0LjM1NTYiPm1vc3NfYXRtX2NvbmR1Y3RhbmNlKCk8L3RleHQ+PHRleHQgZmlsbD0iIzAwMDAwMCIgZm9udC1mYW1pbHk9InNhbnMtc2VyaWYiIGZvbnQtc2l6ZT0iMTQiIGxlbmd0aEFkanVzdD0ic3BhY2luZyIgdGV4dExlbmd0aD0iMjMzIiB4PSI2MDEwLjUiIHk9IjUyOS4zNCI+c29pbF9ib3VuZGFyeV9sYXllcl9jb25kdWN0YW5jZSgpPC90ZXh0PjwvZz48IS0tY2xhc3MgQnJ5b3BoeXRlRmFycXVoYXItLT48ZyBpZD0iZWxlbV9CcnlvcGh5dGVGYXJxdWhhciI+PHJlY3QgY29kZUxpbmU9IjMzIiBmaWxsPSIjRjFGMUYxIiBoZWlnaHQ9IjEyMi45MjE5IiBpZD0iQnJ5b3BoeXRlRmFycXVoYXIiIHJ4PSIyLjUiIHJ5PSIyLjUiIHN0eWxlPSJzdHJva2U6IzE4MTgxODtzdHJva2Utd2lkdGg6MC41OyIgd2lkdGg9IjE4MiIgeD0iNTc2NiIgeT0iMzI5Ljg0Ii8+PGVsbGlwc2UgY3g9IjU3OTQuOTUiIGN5PSIzNDUuODQiIGZpbGw9IiNBREQxQjIiIHJ4PSIxMSIgcnk9IjExIiBzdHlsZT0ic3Ryb2tlOiMxODE4MTg7c3Ryb2tlLXdpZHRoOjEuMDsiLz48cGF0aCBkPSJNNTc5Mi41NzUsMzUwLjA5IEw1NzkyLjU3NSwzNTEuODQgTDU3OTcuNTEyNSwzNTEuODQgTDU3OTcuNTEyNSwzNTAuMDkgTDU3OTIuNTc1LDM1MC4wOSBaIE01NzkzLjI2MjUsMzUwLjc3NzUgUTU3OTMuMjYyNSwzNTAuNzc3NSA1NzkzLjI2MjUsMzQxLjU5IEw1NzkxLjUxMjUsMzQxLjU5IFE1NzkxLjUxMjUsMzQxLjU5IDU3OTEuNTEyNSwzNTAuNzc3NSBMNTc5My4yNjI1LDM1MC43Nzc1IFogTTU3OTYuODI1LDM1MC43Nzc1IEw1Nzk4LjU3NSwzNTAuNzc3NSBRNTc5OC41NzUsMzUwLjc3NzUgNTc5OC41NzUsMzQ3Ljk2NSBMNTc5Ni44MjUsMzQ3Ljk2NSBRNTc5Ni44MjUsMzQ3Ljk2NSA1Nzk2LjgyNSwzNTAuNzc3NSBaIE01Nzk2LjgyNSwzNDEuNTkgUTU3OTYuODI1LDM0MS41OSA1Nzk2LjgyNSwzNDQuNDAyNSBMNTc5OC41NzUsMzQ0LjQwMjUgUTU3OTguNTc1LDM0NC40MDI1IDU3OTguNTc1LDM0MS41OSBMNTc5Ni44MjUsMzQxLjU5IFogTTU3OTIuNTc1LDM0Mi4yNzc1IEw1Nzk3LjUxMjUsMzQyLjI3NzUgTDU3OTcuNTEyNSwzNDAuNTI3NSBMNTc5Mi41NzUsMzQwLjUyNzUgTDU3OTIuNTc1LDM0Mi4yNzc1IFogIiBmaWxsPSIjMDAwMDAwIi8+PHRleHQgZmlsbD0iIzAwMDAwMCIgZm9udC1mYW1pbHk9InNhbnMtc2VyaWYiIGZvbnQtc2l6ZT0iMTQiIGxlbmd0aEFkanVzdD0ic3BhY2luZyIgdGV4dExlbmd0aD0iMTE5IiB4PSI1ODEyLjA1IiB5PSIzNTEuNTgyMiI+QnJ5b3BoeXRlRmFycXVoYXI8L3RleHQ+PGxpbmUgc3R5bGU9InN0cm9rZTojMTgxODE4O3N0cm9rZS13aWR0aDowLjU7IiB4MT0iNTc2NyIgeDI9IjU5NDciIHkxPSIzNjEuODQiIHkyPSIzNjEuODQiLz48bGluZSBzdHlsZT0ic3Ryb2tlOiMxODE4MTg7c3Ryb2tlLXdpZHRoOjAuNTsiIHgxPSI1NzY3IiB4Mj0iNTk0NyIgeTE9IjM2OS44NCIgeTI9IjM2OS44NCIvPjx0ZXh0IGZpbGw9IiMwMDAwMDAiIGZvbnQtZmFtaWx5PSJzYW5zLXNlcmlmIiBmb250LXNpemU9IjE0IiBsZW5ndGhBZGp1c3Q9InNwYWNpbmciIHRleHRMZW5ndGg9IjEwMCIgeD0iNTc3MiIgeT0iMzg3LjA3NDQiPmNvMl9leGNoYW5nZSgpPC90ZXh0Pjx0ZXh0IGZpbGw9IiMwMDAwMDAiIGZvbnQtZmFtaWx5PSJzYW5zLXNlcmlmIiBmb250LXNpemU9IjE0IiBsZW5ndGhBZGp1c3Q9InNwYWNpbmciIHRleHRMZW5ndGg9IjkzIiB4PSI1NzcyIiB5PSI0MDIuMDU4OCI+Y29uZHVjdGFuY2UoKTwvdGV4dD48dGV4dCBmaWxsPSIjMDAwMDAwIiBmb250LWZhbWlseT0ic2Fucy1zZXJpZiIgZm9udC1zaXplPSIxNCIgbGVuZ3RoQWRqdXN0PSJzcGFjaW5nIiB0ZXh0TGVuZ3RoPSIxMzUiIHg9IjU3NzIiIHk9IjQxNy4wNDMxIj5yZWxhdGl2ZV9jYXBhY2l0eSgpPC90ZXh0Pjx0ZXh0IGZpbGw9IiMwMDAwMDAiIGZvbnQtZmFtaWx5PSJzYW5zLXNlcmlmIiBmb250LXNpemU9IjE0IiBsZW5ndGhBZGp1c3Q9InNwYWNpbmciIHRleHRMZW5ndGg9IjExNCIgeD0iNTc3MiIgeT0iNDMyLjAyNzUiPnBob3RvX2ZhcnF1aGFyKCk8L3RleHQ+PHRleHQgZmlsbD0iIzAwMDAwMCIgZm9udC1mYW1pbHk9InNhbnMtc2VyaWYiIGZvbnQtc2l6ZT0iMTQiIGxlbmd0aEFkanVzdD0ic3BhY2luZyIgdGV4dExlbmd0aD0iMTcwIiB4PSI1NzcyIiB5PSI0NDcuMDExOSI+dG9wdF9kZWx0YVNfY29udmVyc2lvbigpPC90ZXh0PjwvZz48IS0tY2xhc3MgT3JnYW5pY1Jlc3BpcmF0aW9uLS0+PGcgaWQ9ImVsZW1fT3JnYW5pY1Jlc3BpcmF0aW9uIj48cmVjdCBjb2RlTGluZT0iNDAiIGZpbGw9IiNGMUYxRjEiIGhlaWdodD0iNjIuOTg0NCIgaWQ9Ik9yZ2FuaWNSZXNwaXJhdGlvbiIgcng9IjIuNSIgcnk9IjIuNSIgc3R5bGU9InN0cm9rZTojMTgxODE4O3N0cm9rZS13aWR0aDowLjU7IiB3aWR0aD0iMTU4IiB4PSI1NTczIiB5PSIzNTkuODQiLz48ZWxsaXBzZSBjeD0iNTU4OCIgY3k9IjM3NS44NCIgZmlsbD0iI0FERDFCMiIgcng9IjExIiByeT0iMTEiIHN0eWxlPSJzdHJva2U6IzE4MTgxODtzdHJva2Utd2lkdGg6MS4wOyIvPjxwYXRoIGQ9Ik01NTg1LjYyNSwzODAuMDkgTDU1ODUuNjI1LDM4MS44NCBMNTU5MC41NjI1LDM4MS44NCBMNTU5MC41NjI1LDM4MC4wOSBMNTU4NS42MjUsMzgwLjA5IFogTTU1ODYuMzEyNSwzODAuNzc3NSBRNTU4Ni4zMTI1LDM4MC43Nzc1IDU1ODYuMzEyNSwzNzEuNTkgTDU1ODQuNTYyNSwzNzEuNTkgUTU1ODQuNTYyNSwzNzEuNTkgNTU4NC41NjI1LDM4MC43Nzc1IEw1NTg2LjMxMjUsMzgwLjc3NzUgWiBNNTU4OS44NzUsMzgwLjc3NzUgTDU1OTEuNjI1LDM4MC43Nzc1IFE1NTkxLjYyNSwzODAuNzc3NSA1NTkxLjYyNSwzNzcuOTY1IEw1NTg5Ljg3NSwzNzcuOTY1IFE1NTg5Ljg3NSwzNzcuOTY1IDU1ODkuODc1LDM4MC43Nzc1IFogTTU1ODkuODc1LDM3MS41OSBRNTU4OS44NzUsMzcxLjU5IDU1ODkuODc1LDM3NC40MDI1IEw1NTkxLjYyNSwzNzQuNDAyNSBRNTU5MS42MjUsMzc0LjQwMjUgNTU5MS42MjUsMzcxLjU5IEw1NTg5Ljg3NSwzNzEuNTkgWiBNNTU4NS42MjUsMzcyLjI3NzUgTDU1OTAuNTYyNSwzNzIuMjc3NSBMNTU5MC41NjI1LDM3MC41Mjc1IEw1NTg1LjYyNSwzNzAuNTI3NSBMNTU4NS42MjUsMzcyLjI3NzUgWiAiIGZpbGw9IiMwMDAwMDAiLz48dGV4dCBmaWxsPSIjMDAwMDAwIiBmb250LWZhbWlseT0ic2Fucy1zZXJpZiIgZm9udC1zaXplPSIxNCIgbGVuZ3RoQWRqdXN0PSJzcGFjaW5nIiB0ZXh0TGVuZ3RoPSIxMjYiIHg9IjU2MDIiIHk9IjM4MS41ODIyIj5PcmdhbmljUmVzcGlyYXRpb248L3RleHQ+PGxpbmUgc3R5bGU9InN0cm9rZTojMTgxODE4O3N0cm9rZS13aWR0aDowLjU7IiB4MT0iNTU3NCIgeDI9IjU3MzAiIHkxPSIzOTEuODQiIHkyPSIzOTEuODQiLz48bGluZSBzdHlsZT0ic3Ryb2tlOiMxODE4MTg7c3Ryb2tlLXdpZHRoOjAuNTsiIHgxPSI1NTc0IiB4Mj0iNTczMCIgeTE9IjM5OS44NCIgeTI9IjM5OS44NCIvPjx0ZXh0IGZpbGw9IiMwMDAwMDAiIGZvbnQtZmFtaWx5PSJzYW5zLXNlcmlmIiBmb250LXNpemU9IjE0IiBsZW5ndGhBZGp1c3Q9InNwYWNpbmciIHRleHRMZW5ndGg9IjkzIiB4PSI1NTc5IiB5PSI0MTcuMDc0NCI+cmVzcGlyYXRpb24oKTwvdGV4dD48L2c+PCEtLWNsYXNzIEJyeW9waHl0ZUNhcmJvbi0tPjxnIGlkPSJlbGVtX0JyeW9waHl0ZUNhcmJvbiI+PHJlY3QgY29kZUxpbmU9IjQzIiBmaWxsPSIjRjFGMUYxIiBoZWlnaHQ9IjYyLjk4NDQiIGlkPSJCcnlvcGh5dGVDYXJib24iIHJ4PSIyLjUiIHJ5PSIyLjUiIHN0eWxlPSJzdHJva2U6IzE4MTgxODtzdHJva2Utd2lkdGg6MC41OyIgd2lkdGg9IjEzNyIgeD0iNTIyOC41IiB5PSIzNTkuODQiLz48ZWxsaXBzZSBjeD0iNTI0My41IiBjeT0iMzc1Ljg0IiBmaWxsPSIjQUREMUIyIiByeD0iMTEiIHJ5PSIxMSIgc3R5bGU9InN0cm9rZTojMTgxODE4O3N0cm9rZS13aWR0aDoxLjA7Ii8+PHBhdGggZD0iTTUyNDEuMTI1LDM4MC4wOSBMNTI0MS4xMjUsMzgxLjg0IEw1MjQ2LjA2MjUsMzgxLjg0IEw1MjQ2LjA2MjUsMzgwLjA5IEw1MjQxLjEyNSwzODAuMDkgWiBNNTI0MS44MTI1LDM4MC43Nzc1IFE1MjQxLjgxMjUsMzgwLjc3NzUgNTI0MS44MTI1LDM3MS41OSBMNTI0MC4wNjI1LDM3MS41OSBRNTI0MC4wNjI1LDM3MS41OSA1MjQwLjA2MjUsMzgwLjc3NzUgTDUyNDEuODEyNSwzODAuNzc3NSBaIE01MjQ1LjM3NSwzODAuNzc3NSBMNTI0Ny4xMjUsMzgwLjc3NzUgUTUyNDcuMTI1LDM4MC43Nzc1IDUyNDcuMTI1LDM3Ny45NjUgTDUyNDUuMzc1LDM3Ny45NjUgUTUyNDUuMzc1LDM3Ny45NjUgNTI0NS4zNzUsMzgwLjc3NzUgWiBNNTI0NS4zNzUsMzcxLjU5IFE1MjQ1LjM3NSwzNzEuNTkgNTI0NS4zNzUsMzc0LjQwMjUgTDUyNDcuMTI1LDM3NC40MDI1IFE1MjQ3LjEyNSwzNzQuNDAyNSA1MjQ3LjEyNSwzNzEuNTkgTDUyNDUuMzc1LDM3MS41OSBaIE01MjQxLjEyNSwzNzIuMjc3NSBMNTI0Ni4wNjI1LDM3Mi4yNzc1IEw1MjQ2LjA2MjUsMzcwLjUyNzUgTDUyNDEuMTI1LDM3MC41Mjc1IEw1MjQxLjEyNSwzNzIuMjc3NSBaICIgZmlsbD0iIzAwMDAwMCIvPjx0ZXh0IGZpbGw9IiMwMDAwMDAiIGZvbnQtZmFtaWx5PSJzYW5zLXNlcmlmIiBmb250LXNpemU9IjE0IiBsZW5ndGhBZGp1c3Q9InNwYWNpbmciIHRleHRMZW5ndGg9IjEwNSIgeD0iNTI1Ny41IiB5PSIzODEuNTgyMiI+QnJ5b3BoeXRlQ2FyYm9uPC90ZXh0PjxsaW5lIHN0eWxlPSJzdHJva2U6IzE4MTgxODtzdHJva2Utd2lkdGg6MC41OyIgeDE9IjUyMjkuNSIgeDI9IjUzNjQuNSIgeTE9IjM5MS44NCIgeTI9IjM5MS44NCIvPjxsaW5lIHN0eWxlPSJzdHJva2U6IzE4MTgxODtzdHJva2Utd2lkdGg6MC41OyIgeDE9IjUyMjkuNSIgeDI9IjUzNjQuNSIgeTE9IjM5OS44NCIgeTI9IjM5OS44NCIvPjx0ZXh0IGZpbGw9IiMwMDAwMDAiIGZvbnQtZmFtaWx5PSJzYW5zLXNlcmlmIiBmb250LXNpemU9IjE0IiBsZW5ndGhBZGp1c3Q9InNwYWNpbmciIHRleHRMZW5ndGg9IjEyMSIgeD0iNTIzNC41IiB5PSI0MTcuMDc0NCI+Y2FyYm9uX2V4Y2hhbmdlKCk8L3RleHQ+PC9nPjwhLS1jbGFzcyBTb2lsUmVzcGlyYXRpb24tLT48ZyBpZD0iZWxlbV9Tb2lsUmVzcGlyYXRpb24iPjxyZWN0IGNvZGVMaW5lPSI0NiIgZmlsbD0iI0YxRjFGMSIgaGVpZ2h0PSI2Mi45ODQ0IiBpZD0iU29pbFJlc3BpcmF0aW9uIiByeD0iMi41IiByeT0iMi41IiBzdHlsZT0ic3Ryb2tlOiMxODE4MTg7c3Ryb2tlLXdpZHRoOjAuNTsiIHdpZHRoPSIxMzciIHg9IjU0MDAuNSIgeT0iMzU5Ljg0Ii8+PGVsbGlwc2UgY3g9IjU0MTUuNSIgY3k9IjM3NS44NCIgZmlsbD0iI0FERDFCMiIgcng9IjExIiByeT0iMTEiIHN0eWxlPSJzdHJva2U6IzE4MTgxODtzdHJva2Utd2lkdGg6MS4wOyIvPjxwYXRoIGQ9Ik01NDEzLjEyNSwzODAuMDkgTDU0MTMuMTI1LDM4MS44NCBMNTQxOC4wNjI1LDM4MS44NCBMNTQxOC4wNjI1LDM4MC4wOSBMNTQxMy4xMjUsMzgwLjA5IFogTTU0MTMuODEyNSwzODAuNzc3NSBRNTQxMy44MTI1LDM4MC43Nzc1IDU0MTMuODEyNSwzNzEuNTkgTDU0MTIuMDYyNSwzNzEuNTkgUTU0MTIuMDYyNSwzNzEuNTkgNTQxMi4wNjI1LDM4MC43Nzc1IEw1NDEzLjgxMjUsMzgwLjc3NzUgWiBNNTQxNy4zNzUsMzgwLjc3NzUgTDU0MTkuMTI1LDM4MC43Nzc1IFE1NDE5LjEyNSwzODAuNzc3NSA1NDE5LjEyNSwzNzcuOTY1IEw1NDE3LjM3NSwzNzcuOTY1IFE1NDE3LjM3NSwzNzcuOTY1IDU0MTcuMzc1LDM4MC43Nzc1IFogTTU0MTcuMzc1LDM3MS41OSBRNTQxNy4zNzUsMzcxLjU5IDU0MTcuMzc1LDM3NC40MDI1IEw1NDE5LjEyNSwzNzQuNDAyNSBRNTQxOS4xMjUsMzc0LjQwMjUgNTQxOS4xMjUsMzcxLjU5IEw1NDE3LjM3NSwzNzEuNTkgWiBNNTQxMy4xMjUsMzcyLjI3NzUgTDU0MTguMDYyNSwzNzIuMjc3NSBMNTQxOC4wNjI1LDM3MC41Mjc1IEw1NDEzLjEyNSwzNzAuNTI3NSBMNTQxMy4xMjUsMzcyLjI3NzUgWiAiIGZpbGw9IiMwMDAwMDAiLz48dGV4dCBmaWxsPSIjMDAwMDAwIiBmb250LWZhbWlseT0ic2Fucy1zZXJpZiIgZm9udC1zaXplPSIxNCIgbGVuZ3RoQWRqdXN0PSJzcGFjaW5nIiB0ZXh0TGVuZ3RoPSIxMDUiIHg9IjU0MjkuNSIgeT0iMzgxLjU4MjIiPlNvaWxSZXNwaXJhdGlvbjwvdGV4dD48bGluZSBzdHlsZT0ic3Ryb2tlOiMxODE4MTg7c3Ryb2tlLXdpZHRoOjAuNTsiIHgxPSI1NDAxLjUiIHgyPSI1NTM2LjUiIHkxPSIzOTEuODQiIHkyPSIzOTEuODQiLz48bGluZSBzdHlsZT0ic3Ryb2tlOiMxODE4MTg7c3Ryb2tlLXdpZHRoOjAuNTsiIHgxPSI1NDAxLjUiIHgyPSI1NTM2LjUiIHkxPSIzOTkuODQiIHkyPSIzOTkuODQiLz48dGV4dCBmaWxsPSIjMDAwMDAwIiBmb250LWZhbWlseT0ic2Fucy1zZXJpZiIgZm9udC1zaXplPSIxNCIgbGVuZ3RoQWRqdXN0PSJzcGFjaW5nIiB0ZXh0TGVuZ3RoPSI5MyIgeD0iNTQwNi41IiB5PSI0MTcuMDc0NCI+cmVzcGlyYXRpb24oKTwvdGV4dD48L2c+PCEtLWNsYXNzIERlZ3JlZURheVNub3ctLT48ZyBpZD0iZWxlbV9EZWdyZWVEYXlTbm93Ij48cmVjdCBmaWxsPSIjRjFGMUYxIiBoZWlnaHQ9IjQ4IiBpZD0iRGVncmVlRGF5U25vdyIgcng9IjIuNSIgcnk9IjIuNSIgc3R5bGU9InN0cm9rZTojMTgxODE4O3N0cm9rZS13aWR0aDowLjU7IiB3aWR0aD0iMTI0IiB4PSI0NTE3IiB5PSIzNjcuMzQiLz48ZWxsaXBzZSBjeD0iNDUzMiIgY3k9IjM4My4zNCIgZmlsbD0iI0FERDFCMiIgcng9IjExIiByeT0iMTEiIHN0eWxlPSJzdHJva2U6IzE4MTgxODtzdHJva2Utd2lkdGg6MS4wOyIvPjxwYXRoIGQ9Ik00NTI5LjYyNSwzODcuNTkgTDQ1MjkuNjI1LDM4OS4zNCBMNDUzNC41NjI1LDM4OS4zNCBMNDUzNC41NjI1LDM4Ny41OSBMNDUyOS42MjUsMzg3LjU5IFogTTQ1MzAuMzEyNSwzODguMjc3NSBRNDUzMC4zMTI1LDM4OC4yNzc1IDQ1MzAuMzEyNSwzNzkuMDkgTDQ1MjguNTYyNSwzNzkuMDkgUTQ1MjguNTYyNSwzNzkuMDkgNDUyOC41NjI1LDM4OC4yNzc1IEw0NTMwLjMxMjUsMzg4LjI3NzUgWiBNNDUzMy44NzUsMzg4LjI3NzUgTDQ1MzUuNjI1LDM4OC4yNzc1IFE0NTM1LjYyNSwzODguMjc3NSA0NTM1LjYyNSwzODUuNDY1IEw0NTMzLjg3NSwzODUuNDY1IFE0NTMzLjg3NSwzODUuNDY1IDQ1MzMuODc1LDM4OC4yNzc1IFogTTQ1MzMuODc1LDM3OS4wOSBRNDUzMy44NzUsMzc5LjA5IDQ1MzMuODc1LDM4MS45MDI1IEw0NTM1LjYyNSwzODEuOTAyNSBRNDUzNS42MjUsMzgxLjkwMjUgNDUzNS42MjUsMzc5LjA5IEw0NTMzLjg3NSwzNzkuMDkgWiBNNDUyOS42MjUsMzc5Ljc3NzUgTDQ1MzQuNTYyNSwzNzkuNzc3NSBMNDUzNC41NjI1LDM3OC4wMjc1IEw0NTI5LjYyNSwzNzguMDI3NSBMNDUyOS42MjUsMzc5Ljc3NzUgWiAiIGZpbGw9IiMwMDAwMDAiLz48dGV4dCBmaWxsPSIjMDAwMDAwIiBmb250LWZhbWlseT0ic2Fucy1zZXJpZiIgZm9udC1zaXplPSIxNCIgbGVuZ3RoQWRqdXN0PSJzcGFjaW5nIiB0ZXh0TGVuZ3RoPSI5MiIgeD0iNDU0NiIgeT0iMzg5LjA4MjIiPkRlZ3JlZURheVNub3c8L3RleHQ+PGxpbmUgc3R5bGU9InN0cm9rZTojMTgxODE4O3N0cm9rZS13aWR0aDowLjU7IiB4MT0iNDUxOCIgeDI9IjQ2NDAiIHkxPSIzOTkuMzQiIHkyPSIzOTkuMzQiLz48bGluZSBzdHlsZT0ic3Ryb2tlOiMxODE4MTg7c3Ryb2tlLXdpZHRoOjAuNTsiIHgxPSI0NTE4IiB4Mj0iNDY0MCIgeTE9IjQwNy4zNCIgeTI9IjQwNy4zNCIvPjwvZz48IS0tY2xhc3MgUGxhbnRUeXBlLS0+PGcgaWQ9ImVsZW1fUGxhbnRUeXBlIj48cmVjdCBmaWxsPSIjRjFGMUYxIiBoZWlnaHQ9IjQ4IiBpZD0iUGxhbnRUeXBlIiByeD0iMi41IiByeT0iMi41IiBzdHlsZT0ic3Ryb2tlOiMxODE4MTg7c3Ryb2tlLXdpZHRoOjAuNTsiIHdpZHRoPSI5NSIgeD0iNDM4Ni41IiB5PSIzNjcuMzQiLz48ZWxsaXBzZSBjeD0iNDQwMS41IiBjeT0iMzgzLjM0IiBmaWxsPSIjQUREMUIyIiByeD0iMTEiIHJ5PSIxMSIgc3R5bGU9InN0cm9rZTojMTgxODE4O3N0cm9rZS13aWR0aDoxLjA7Ii8+PHBhdGggZD0iTTQzOTkuMTI1LDM4Ny41OSBMNDM5OS4xMjUsMzg5LjM0IEw0NDA0LjA2MjUsMzg5LjM0IEw0NDA0LjA2MjUsMzg3LjU5IEw0Mzk5LjEyNSwzODcuNTkgWiBNNDM5OS44MTI1LDM4OC4yNzc1IFE0Mzk5LjgxMjUsMzg4LjI3NzUgNDM5OS44MTI1LDM3OS4wOSBMNDM5OC4wNjI1LDM3OS4wOSBRNDM5OC4wNjI1LDM3OS4wOSA0Mzk4LjA2MjUsMzg4LjI3NzUgTDQzOTkuODEyNSwzODguMjc3NSBaIE00NDAzLjM3NSwzODguMjc3NSBMNDQwNS4xMjUsMzg4LjI3NzUgUTQ0MDUuMTI1LDM4OC4yNzc1IDQ0MDUuMTI1LDM4NS40NjUgTDQ0MDMuMzc1LDM4NS40NjUgUTQ0MDMuMzc1LDM4NS40NjUgNDQwMy4zNzUsMzg4LjI3NzUgWiBNNDQwMy4zNzUsMzc5LjA5IFE0NDAzLjM3NSwzNzkuMDkgNDQwMy4zNzUsMzgxLjkwMjUgTDQ0MDUuMTI1LDM4MS45MDI1IFE0NDA1LjEyNSwzODEuOTAyNSA0NDA1LjEyNSwzNzkuMDkgTDQ0MDMuMzc1LDM3OS4wOSBaIE00Mzk5LjEyNSwzNzkuNzc3NSBMNDQwNC4wNjI1LDM3OS43Nzc1IEw0NDA0LjA2MjUsMzc4LjAyNzUgTDQzOTkuMTI1LDM3OC4wMjc1IEw0Mzk5LjEyNSwzNzkuNzc3NSBaICIgZmlsbD0iIzAwMDAwMCIvPjx0ZXh0IGZpbGw9IiMwMDAwMDAiIGZvbnQtZmFtaWx5PSJzYW5zLXNlcmlmIiBmb250LXNpemU9IjE0IiBsZW5ndGhBZGp1c3Q9InNwYWNpbmciIHRleHRMZW5ndGg9IjYzIiB4PSI0NDE1LjUiIHk9IjM4OS4wODIyIj5QbGFudFR5cGU8L3RleHQ+PGxpbmUgc3R5bGU9InN0cm9rZTojMTgxODE4O3N0cm9rZS13aWR0aDowLjU7IiB4MT0iNDM4Ny41IiB4Mj0iNDQ4MC41IiB5MT0iMzk5LjM0IiB5Mj0iMzk5LjM0Ii8+PGxpbmUgc3R5bGU9InN0cm9rZTojMTgxODE4O3N0cm9rZS13aWR0aDowLjU7IiB4MT0iNDM4Ny41IiB4Mj0iNDQ4MC41IiB5MT0iNDA3LjM0IiB5Mj0iNDA3LjM0Ii8+PC9nPjwhLS1jbGFzcyBSYWRpYXRpb24tLT48ZyBpZD0iZWxlbV9SYWRpYXRpb24iPjxyZWN0IGZpbGw9IiNGMUYxRjEiIGhlaWdodD0iNDgiIGlkPSJSYWRpYXRpb24iIHJ4PSIyLjUiIHJ5PSIyLjUiIHN0eWxlPSJzdHJva2U6IzE4MTgxODtzdHJva2Utd2lkdGg6MC41OyIgd2lkdGg9Ijk1IiB4PSI0MjU2LjUiIHk9IjM2Ny4zNCIvPjxlbGxpcHNlIGN4PSI0MjcxLjUiIGN5PSIzODMuMzQiIGZpbGw9IiNBREQxQjIiIHJ4PSIxMSIgcnk9IjExIiBzdHlsZT0ic3Ryb2tlOiMxODE4MTg7c3Ryb2tlLXdpZHRoOjEuMDsiLz48cGF0aCBkPSJNNDI2OS4xMjUsMzg3LjU5IEw0MjY5LjEyNSwzODkuMzQgTDQyNzQuMDYyNSwzODkuMzQgTDQyNzQuMDYyNSwzODcuNTkgTDQyNjkuMTI1LDM4Ny41OSBaIE00MjY5LjgxMjUsMzg4LjI3NzUgUTQyNjkuODEyNSwzODguMjc3NSA0MjY5LjgxMjUsMzc5LjA5IEw0MjY4LjA2MjUsMzc5LjA5IFE0MjY4LjA2MjUsMzc5LjA5IDQyNjguMDYyNSwzODguMjc3NSBMNDI2OS44MTI1LDM4OC4yNzc1IFogTTQyNzMuMzc1LDM4OC4yNzc1IEw0Mjc1LjEyNSwzODguMjc3NSBRNDI3NS4xMjUsMzg4LjI3NzUgNDI3NS4xMjUsMzg1LjQ2NSBMNDI3My4zNzUsMzg1LjQ2NSBRNDI3My4zNzUsMzg1LjQ2NSA0MjczLjM3NSwzODguMjc3NSBaIE00MjczLjM3NSwzNzkuMDkgUTQyNzMuMzc1LDM3OS4wOSA0MjczLjM3NSwzODEuOTAyNSBMNDI3NS4xMjUsMzgxLjkwMjUgUTQyNzUuMTI1LDM4MS45MDI1IDQyNzUuMTI1LDM3OS4wOSBMNDI3My4zNzUsMzc5LjA5IFogTTQyNjkuMTI1LDM3OS43Nzc1IEw0Mjc0LjA2MjUsMzc5Ljc3NzUgTDQyNzQuMDYyNSwzNzguMDI3NSBMNDI2OS4xMjUsMzc4LjAyNzUgTDQyNjkuMTI1LDM3OS43Nzc1IFogIiBmaWxsPSIjMDAwMDAwIi8+PHRleHQgZmlsbD0iIzAwMDAwMCIgZm9udC1mYW1pbHk9InNhbnMtc2VyaWYiIGZvbnQtc2l6ZT0iMTQiIGxlbmd0aEFkanVzdD0ic3BhY2luZyIgdGV4dExlbmd0aD0iNjMiIHg9IjQyODUuNSIgeT0iMzg5LjA4MjIiPlJhZGlhdGlvbjwvdGV4dD48bGluZSBzdHlsZT0ic3Ryb2tlOiMxODE4MTg7c3Ryb2tlLXdpZHRoOjAuNTsiIHgxPSI0MjU3LjUiIHgyPSI0MzUwLjUiIHkxPSIzOTkuMzQiIHkyPSIzOTkuMzQiLz48bGluZSBzdHlsZT0ic3Ryb2tlOiMxODE4MTg7c3Ryb2tlLXdpZHRoOjAuNTsiIHgxPSI0MjU3LjUiIHgyPSI0MzUwLjUiIHkxPSI0MDcuMzQiIHkyPSI0MDcuMzQiLz48L2c+PCEtLWNsYXNzIE1pY3JvbWV0LS0+PGcgaWQ9ImVsZW1fTWljcm9tZXQiPjxyZWN0IGZpbGw9IiNGMUYxRjEiIGhlaWdodD0iNDgiIGlkPSJNaWNyb21ldCIgcng9IjIuNSIgcnk9IjIuNSIgc3R5bGU9InN0cm9rZTojMTgxODE4O3N0cm9rZS13aWR0aDowLjU7IiB3aWR0aD0iODkiIHg9IjQxMzIuNSIgeT0iMzY3LjM0Ii8+PGVsbGlwc2UgY3g9IjQxNDcuNSIgY3k9IjM4My4zNCIgZmlsbD0iI0FERDFCMiIgcng9IjExIiByeT0iMTEiIHN0eWxlPSJzdHJva2U6IzE4MTgxODtzdHJva2Utd2lkdGg6MS4wOyIvPjxwYXRoIGQ9Ik00MTQ1LjEyNSwzODcuNTkgTDQxNDUuMTI1LDM4OS4zNCBMNDE1MC4wNjI1LDM4OS4zNCBMNDE1MC4wNjI1LDM4Ny41OSBMNDE0NS4xMjUsMzg3LjU5IFogTTQxNDUuODEyNSwzODguMjc3NSBRNDE0NS44MTI1LDM4OC4yNzc1IDQxNDUuODEyNSwzNzkuMDkgTDQxNDQuMDYyNSwzNzkuMDkgUTQxNDQuMDYyNSwzNzkuMDkgNDE0NC4wNjI1LDM4OC4yNzc1IEw0MTQ1LjgxMjUsMzg4LjI3NzUgWiBNNDE0OS4zNzUsMzg4LjI3NzUgTDQxNTEuMTI1LDM4OC4yNzc1IFE0MTUxLjEyNSwzODguMjc3NSA0MTUxLjEyNSwzODUuNDY1IEw0MTQ5LjM3NSwzODUuNDY1IFE0MTQ5LjM3NSwzODUuNDY1IDQxNDkuMzc1LDM4OC4yNzc1IFogTTQxNDkuMzc1LDM3OS4wOSBRNDE0OS4zNzUsMzc5LjA5IDQxNDkuMzc1LDM4MS45MDI1IEw0MTUxLjEyNSwzODEuOTAyNSBRNDE1MS4xMjUsMzgxLjkwMjUgNDE1MS4xMjUsMzc5LjA5IEw0MTQ5LjM3NSwzNzkuMDkgWiBNNDE0NS4xMjUsMzc5Ljc3NzUgTDQxNTAuMDYyNSwzNzkuNzc3NSBMNDE1MC4wNjI1LDM3OC4wMjc1IEw0MTQ1LjEyNSwzNzguMDI3NSBMNDE0NS4xMjUsMzc5Ljc3NzUgWiAiIGZpbGw9IiMwMDAwMDAiLz48dGV4dCBmaWxsPSIjMDAwMDAwIiBmb250LWZhbWlseT0ic2Fucy1zZXJpZiIgZm9udC1zaXplPSIxNCIgbGVuZ3RoQWRqdXN0PSJzcGFjaW5nIiB0ZXh0TGVuZ3RoPSI1NyIgeD0iNDE2MS41IiB5PSIzODkuMDgyMiI+TWljcm9tZXQ8L3RleHQ+PGxpbmUgc3R5bGU9InN0cm9rZTojMTgxODE4O3N0cm9rZS13aWR0aDowLjU7IiB4MT0iNDEzMy41IiB4Mj0iNDIyMC41IiB5MT0iMzk5LjM0IiB5Mj0iMzk5LjM0Ii8+PGxpbmUgc3R5bGU9InN0cm9rZTojMTgxODE4O3N0cm9rZS13aWR0aDowLjU7IiB4MT0iNDEzMy41IiB4Mj0iNDIyMC41IiB5MT0iNDA3LjM0IiB5Mj0iNDA3LjM0Ii8+PC9nPjwhLS1jbGFzcyBGb3Jlc3RGbG9vci0tPjxnIGlkPSJlbGVtX0ZvcmVzdEZsb29yIj48cmVjdCBjb2RlTGluZT0iNTUiIGZpbGw9IiNGMUYxRjEiIGhlaWdodD0iNzcuOTY4OCIgaWQ9IkZvcmVzdEZsb29yIiByeD0iMi41IiByeT0iMi41IiBzdHlsZT0ic3Ryb2tlOiMxODE4MTg7c3Ryb2tlLXdpZHRoOjAuNTsiIHdpZHRoPSIxMDkiIHg9IjUwMTQuNSIgeT0iMzUyLjM0Ii8+PGVsbGlwc2UgY3g9IjUwMjkuNSIgY3k9IjM2OC4zNCIgZmlsbD0iI0FERDFCMiIgcng9IjExIiByeT0iMTEiIHN0eWxlPSJzdHJva2U6IzE4MTgxODtzdHJva2Utd2lkdGg6MS4wOyIvPjxwYXRoIGQ9Ik01MDI3LjEyNSwzNzIuNTkgTDUwMjcuMTI1LDM3NC4zNCBMNTAzMi4wNjI1LDM3NC4zNCBMNTAzMi4wNjI1LDM3Mi41OSBMNTAyNy4xMjUsMzcyLjU5IFogTTUwMjcuODEyNSwzNzMuMjc3NSBRNTAyNy44MTI1LDM3My4yNzc1IDUwMjcuODEyNSwzNjQuMDkgTDUwMjYuMDYyNSwzNjQuMDkgUTUwMjYuMDYyNSwzNjQuMDkgNTAyNi4wNjI1LDM3My4yNzc1IEw1MDI3LjgxMjUsMzczLjI3NzUgWiBNNTAzMS4zNzUsMzczLjI3NzUgTDUwMzMuMTI1LDM3My4yNzc1IFE1MDMzLjEyNSwzNzMuMjc3NSA1MDMzLjEyNSwzNzAuNDY1IEw1MDMxLjM3NSwzNzAuNDY1IFE1MDMxLjM3NSwzNzAuNDY1IDUwMzEuMzc1LDM3My4yNzc1IFogTTUwMzEuMzc1LDM2NC4wOSBRNTAzMS4zNzUsMzY0LjA5IDUwMzEuMzc1LDM2Ni45MDI1IEw1MDMzLjEyNSwzNjYuOTAyNSBRNTAzMy4xMjUsMzY2LjkwMjUgNTAzMy4xMjUsMzY0LjA5IEw1MDMxLjM3NSwzNjQuMDkgWiBNNTAyNy4xMjUsMzY0Ljc3NzUgTDUwMzIuMDYyNSwzNjQuNzc3NSBMNTAzMi4wNjI1LDM2My4wMjc1IEw1MDI3LjEyNSwzNjMuMDI3NSBMNTAyNy4xMjUsMzY0Ljc3NzUgWiAiIGZpbGw9IiMwMDAwMDAiLz48dGV4dCBmaWxsPSIjMDAwMDAwIiBmb250LWZhbWlseT0ic2Fucy1zZXJpZiIgZm9udC1zaXplPSIxNCIgbGVuZ3RoQWRqdXN0PSJzcGFjaW5nIiB0ZXh0TGVuZ3RoPSI3NyIgeD0iNTA0My41IiB5PSIzNzQuMDgyMiI+Rm9yZXN0Rmxvb3I8L3RleHQ+PGxpbmUgc3R5bGU9InN0cm9rZTojMTgxODE4O3N0cm9rZS13aWR0aDowLjU7IiB4MT0iNTAxNS41IiB4Mj0iNTEyMi41IiB5MT0iMzg0LjM0IiB5Mj0iMzg0LjM0Ii8+PGxpbmUgc3R5bGU9InN0cm9rZTojMTgxODE4O3N0cm9rZS13aWR0aDowLjU7IiB4MT0iNTAxNS41IiB4Mj0iNTEyMi41IiB5MT0iMzkyLjM0IiB5Mj0iMzkyLjM0Ii8+PHRleHQgZmlsbD0iIzAwMDAwMCIgZm9udC1mYW1pbHk9InNhbnMtc2VyaWYiIGZvbnQtc2l6ZT0iMTQiIGxlbmd0aEFkanVzdD0ic3BhY2luZyIgdGV4dExlbmd0aD0iMzciIHg9IjUwMjAuNSIgeT0iNDA5LjU3NDQiPnJ1bigpPC90ZXh0Pjx0ZXh0IGZpbGw9IiMwMDAwMDAiIGZvbnQtZmFtaWx5PSJzYW5zLXNlcmlmIiBmb250LXNpemU9IjE0IiBsZW5ndGhBZGp1c3Q9InNwYWNpbmciIHRleHRMZW5ndGg9IjU4IiB4PSI1MDIwLjUiIHk9IjQyNC41NTg4Ij51cGRhdGUoKTwvdGV4dD48L2c+PCEtLWNsYXNzIENhbm9weU1vZGVsLS0+PGcgaWQ9ImVsZW1fQ2Fub3B5TW9kZWwiPjxyZWN0IGNvZGVMaW5lPSI2MSIgZmlsbD0iI0YxRjFGMSIgaGVpZ2h0PSI5Mi45NTMxIiBpZD0iQ2Fub3B5TW9kZWwiIHJ4PSIyLjUiIHJ5PSIyLjUiIHN0eWxlPSJzdHJva2U6IzE4MTgxODtzdHJva2Utd2lkdGg6MC41OyIgd2lkdGg9IjEwOSIgeD0iNDg0OC41IiB5PSIzNDQuODQiLz48ZWxsaXBzZSBjeD0iNDg2My41IiBjeT0iMzYwLjg0IiBmaWxsPSIjQUREMUIyIiByeD0iMTEiIHJ5PSIxMSIgc3R5bGU9InN0cm9rZTojMTgxODE4O3N0cm9rZS13aWR0aDoxLjA7Ii8+PHBhdGggZD0iTTQ4NjEuMTI1LDM2NS4wOSBMNDg2MS4xMjUsMzY2Ljg0IEw0ODY2LjA2MjUsMzY2Ljg0IEw0ODY2LjA2MjUsMzY1LjA5IEw0ODYxLjEyNSwzNjUuMDkgWiBNNDg2MS44MTI1LDM2NS43Nzc1IFE0ODYxLjgxMjUsMzY1Ljc3NzUgNDg2MS44MTI1LDM1Ni41OSBMNDg2MC4wNjI1LDM1Ni41OSBRNDg2MC4wNjI1LDM1Ni41OSA0ODYwLjA2MjUsMzY1Ljc3NzUgTDQ4NjEuODEyNSwzNjUuNzc3NSBaIE00ODY1LjM3NSwzNjUuNzc3NSBMNDg2Ny4xMjUsMzY1Ljc3NzUgUTQ4NjcuMTI1LDM2NS43Nzc1IDQ4NjcuMTI1LDM2Mi45NjUgTDQ4NjUuMzc1LDM2Mi45NjUgUTQ4NjUuMzc1LDM2Mi45NjUgNDg2NS4zNzUsMzY1Ljc3NzUgWiBNNDg2NS4zNzUsMzU2LjU5IFE0ODY1LjM3NSwzNTYuNTkgNDg2NS4zNzUsMzU5LjQwMjUgTDQ4NjcuMTI1LDM1OS40MDI1IFE0ODY3LjEyNSwzNTkuNDAyNSA0ODY3LjEyNSwzNTYuNTkgTDQ4NjUuMzc1LDM1Ni41OSBaIE00ODYxLjEyNSwzNTcuMjc3NSBMNDg2Ni4wNjI1LDM1Ny4yNzc1IEw0ODY2LjA2MjUsMzU1LjUyNzUgTDQ4NjEuMTI1LDM1NS41Mjc1IEw0ODYxLjEyNSwzNTcuMjc3NSBaICIgZmlsbD0iIzAwMDAwMCIvPjx0ZXh0IGZpbGw9IiMwMDAwMDAiIGZvbnQtZmFtaWx5PSJzYW5zLXNlcmlmIiBmb250LXNpemU9IjE0IiBsZW5ndGhBZGp1c3Q9InNwYWNpbmciIHRleHRMZW5ndGg9Ijc3IiB4PSI0ODc3LjUiIHk9IjM2Ni41ODIyIj5DYW5vcHlNb2RlbDwvdGV4dD48bGluZSBzdHlsZT0ic3Ryb2tlOiMxODE4MTg7c3Ryb2tlLXdpZHRoOjAuNTsiIHgxPSI0ODQ5LjUiIHgyPSI0OTU2LjUiIHkxPSIzNzYuODQiIHkyPSIzNzYuODQiLz48bGluZSBzdHlsZT0ic3Ryb2tlOiMxODE4MTg7c3Ryb2tlLXdpZHRoOjAuNTsiIHgxPSI0ODQ5LjUiIHgyPSI0OTU2LjUiIHkxPSIzODQuODQiIHkyPSIzODQuODQiLz48dGV4dCBmaWxsPSIjMDAwMDAwIiBmb250LWZhbWlseT0ic2Fucy1zZXJpZiIgZm9udC1zaXplPSIxNCIgbGVuZ3RoQWRqdXN0PSJzcGFjaW5nIiB0ZXh0TGVuZ3RoPSIzNyIgeD0iNDg2OC41IiB5PSI0MDIuMDc0NCI+cnVuKCk8L3RleHQ+PHRleHQgZmlsbD0iIzAwMDAwMCIgZm9udC1mYW1pbHk9InNhbnMtc2VyaWYiIGZvbnQtc2l6ZT0iMTQiIGxlbmd0aEFkanVzdD0ic3BhY2luZyIgdGV4dExlbmd0aD0iNzkiIHg9IjQ4NjguNSIgeT0iNDE3LjA1ODgiPnJ1bl9kYWlseSgpPC90ZXh0Pjxwb2x5Z29uIGZpbGw9IiNGRkZGNDQiIHBvaW50cz0iNDg1OS41LDQyMi44MDA5LDQ4NjMuNSw0MjYuODAwOSw0ODU5LjUsNDMwLjgwMDksNDg1NS41LDQyNi44MDA5IiBzdHlsZT0ic3Ryb2tlOiNCMzhEMjI7c3Ryb2tlLXdpZHRoOjEuMDsiLz48dGV4dCBmaWxsPSIjMDAwMDAwIiBmb250LWZhbWlseT0ic2Fucy1zZXJpZiIgZm9udC1zaXplPSIxNCIgbGVuZ3RoQWRqdXN0PSJzcGFjaW5nIiB0ZXh0TGVuZ3RoPSI3MiIgeD0iNDg2OC41IiB5PSI0MzIuMDQzMSI+X3Jlc3RvcmUoKTwvdGV4dD48L2c+PCEtLWNsYXNzIEludGVyY2VwdGlvbi0tPjxnIGlkPSJlbGVtX0ludGVyY2VwdGlvbiI+PHJlY3QgY29kZUxpbmU9IjY4IiBmaWxsPSIjRjFGMUYxIiBoZWlnaHQ9Ijc3Ljk2ODgiIGlkPSJJbnRlcmNlcHRpb24iIHJ4PSIyLjUiIHJ5PSIyLjUiIHN0eWxlPSJzdHJva2U6IzE4MTgxODtzdHJva2Utd2lkdGg6MC41OyIgd2lkdGg9IjExNiIgeD0iNDY3NiIgeT0iMzUyLjM0Ii8+PGVsbGlwc2UgY3g9IjQ2OTEiIGN5PSIzNjguMzQiIGZpbGw9IiNBREQxQjIiIHJ4PSIxMSIgcnk9IjExIiBzdHlsZT0ic3Ryb2tlOiMxODE4MTg7c3Ryb2tlLXdpZHRoOjEuMDsiLz48cGF0aCBkPSJNNDY4OC42MjUsMzcyLjU5IEw0Njg4LjYyNSwzNzQuMzQgTDQ2OTMuNTYyNSwzNzQuMzQgTDQ2OTMuNTYyNSwzNzIuNTkgTDQ2ODguNjI1LDM3Mi41OSBaIE00Njg5LjMxMjUsMzczLjI3NzUgUTQ2ODkuMzEyNSwzNzMuMjc3NSA0Njg5LjMxMjUsMzY0LjA5IEw0Njg3LjU2MjUsMzY0LjA5IFE0Njg3LjU2MjUsMzY0LjA5IDQ2ODcuNTYyNSwzNzMuMjc3NSBMNDY4OS4zMTI1LDM3My4yNzc1IFogTTQ2OTIuODc1LDM3My4yNzc1IEw0Njk0LjYyNSwzNzMuMjc3NSBRNDY5NC42MjUsMzczLjI3NzUgNDY5NC42MjUsMzcwLjQ2NSBMNDY5Mi44NzUsMzcwLjQ2NSBRNDY5Mi44NzUsMzcwLjQ2NSA0NjkyLjg3NSwzNzMuMjc3NSBaIE00NjkyLjg3NSwzNjQuMDkgUTQ2OTIuODc1LDM2NC4wOSA0NjkyLjg3NSwzNjYuOTAyNSBMNDY5NC42MjUsMzY2LjkwMjUgUTQ2OTQuNjI1LDM2Ni45MDI1IDQ2OTQuNjI1LDM2NC4wOSBMNDY5Mi44NzUsMzY0LjA5IFogTTQ2ODguNjI1LDM2NC43Nzc1IEw0NjkzLjU2MjUsMzY0Ljc3NzUgTDQ2OTMuNTYyNSwzNjMuMDI3NSBMNDY4OC42MjUsMzYzLjAyNzUgTDQ2ODguNjI1LDM2NC43Nzc1IFogIiBmaWxsPSIjMDAwMDAwIi8+PHRleHQgZmlsbD0iIzAwMDAwMCIgZm9udC1mYW1pbHk9InNhbnMtc2VyaWYiIGZvbnQtc2l6ZT0iMTQiIGxlbmd0aEFkanVzdD0ic3BhY2luZyIgdGV4dExlbmd0aD0iODQiIHg9IjQ3MDUiIHk9IjM3NC4wODIyIj5JbnRlcmNlcHRpb248L3RleHQ+PGxpbmUgc3R5bGU9InN0cm9rZTojMTgxODE4O3N0cm9rZS13aWR0aDowLjU7IiB4MT0iNDY3NyIgeDI9IjQ3OTEiIHkxPSIzODQuMzQiIHkyPSIzODQuMzQiLz48bGluZSBzdHlsZT0ic3Ryb2tlOiMxODE4MTg7c3Ryb2tlLXdpZHRoOjAuNTsiIHgxPSI0Njc3IiB4Mj0iNDc5MSIgeTE9IjM5Mi4zNCIgeTI9IjM5Mi4zNCIvPjx0ZXh0IGZpbGw9IiMwMDAwMDAiIGZvbnQtZmFtaWx5PSJzYW5zLXNlcmlmIiBmb250LXNpemU9IjE0IiBsZW5ndGhBZGp1c3Q9InNwYWNpbmciIHRleHRMZW5ndGg9IjM3IiB4PSI0NjgyIiB5PSI0MDkuNTc0NCI+cnVuKCk8L3RleHQ+PHRleHQgZmlsbD0iIzAwMDAwMCIgZm9udC1mYW1pbHk9InNhbnMtc2VyaWYiIGZvbnQtc2l6ZT0iMTQiIGxlbmd0aEFkanVzdD0ic3BhY2luZyIgdGV4dExlbmd0aD0iNTgiIHg9IjQ2ODIiIHk9IjQyNC41NTg4Ij51cGRhdGUoKTwvdGV4dD48L2c+PCEtLWNsYXNzIFN0YXRpY0Z1bmN0aW9ucy0tPjxnIGlkPSJlbGVtX1N0YXRpY0Z1bmN0aW9ucyI+PHJlY3QgY29kZUxpbmU9Ijg1IiBmaWxsPSIjRjFGMUYxIiBoZWlnaHQ9IjYyLjk4NDQiIGlkPSJTdGF0aWNGdW5jdGlvbnMiIHJ4PSIyLjUiIHJ5PSIyLjUiIHN0eWxlPSJzdHJva2U6IzE4MTgxODtzdHJva2Utd2lkdGg6MC41OyIgd2lkdGg9IjI0NSIgeD0iMzgwNy41IiB5PSIzNTkuODQiLz48ZWxsaXBzZSBjeD0iMzg3My4yNSIgY3k9IjM3NS44NCIgZmlsbD0iI0FERDFCMiIgcng9IjExIiByeT0iMTEiIHN0eWxlPSJzdHJva2U6IzE4MTgxODtzdHJva2Utd2lkdGg6MS4wOyIvPjxwYXRoIGQ9Ik0zODc2Ljg3NSwzODEuODQgTDM4NzYuODc1LDM4MC4wOSBMMzg3MS41NjI1LDM4MC4wOSBRMzg3MS41NjI1LDM4MC4wOSAzODcxLjU2MjUsMzc2LjUyNzUgTDM4NzUuODEyNSwzNzYuNTI3NSBMMzg3NS44MTI1LDM3NC43Nzc1IEwzODcxLjU2MjUsMzc0Ljc3NzUgTDM4NzEuNTYyNSwzNzIuMjc3NSBMMzg3Ni44NzUsMzcyLjI3NzUgTDM4NzYuODc1LDM3MC41Mjc1IEwzODY5LjgxMjUsMzcwLjUyNzUgUTM4NjkuODEyNSwzNzAuNTI3NSAzODY5LjgxMjUsMzgxLjg0IEwzODc2Ljg3NSwzODEuODQgWiAiIGZpbGw9IiMwMDAwMDAiLz48dGV4dCBmaWxsPSIjMDAwMDAwIiBmb250LWZhbWlseT0ic2Fucy1zZXJpZiIgZm9udC1zaXplPSIxNCIgbGVuZ3RoQWRqdXN0PSJzcGFjaW5nIiB0ZXh0TGVuZ3RoPSIxMDUiIHg9IjM4OTMuNzUiIHk9IjM4MS41ODIyIj5TdGF0aWNGdW5jdGlvbnM8L3RleHQ+PGxpbmUgc3R5bGU9InN0cm9rZTojMTgxODE4O3N0cm9rZS13aWR0aDowLjU7IiB4MT0iMzgwOC41IiB4Mj0iNDA1MS41IiB5MT0iMzkxLjg0IiB5Mj0iMzkxLjg0Ii8+PGxpbmUgc3R5bGU9InN0cm9rZTojMTgxODE4O3N0cm9rZS13aWR0aDowLjU7IiB4MT0iMzgwOC41IiB4Mj0iNDA1MS41IiB5MT0iMzk5Ljg0IiB5Mj0iMzk5Ljg0Ii8+PHRleHQgZmlsbD0iIzAwMDAwMCIgZm9udC1mYW1pbHk9InNhbnMtc2VyaWYiIGZvbnQtc2l6ZT0iMTQiIGxlbmd0aEFkanVzdD0ic3BhY2luZyIgdGV4dExlbmd0aD0iMjMzIiB4PSIzODEzLjUiIHk9IjQxNy4wNzQ0Ij5sZWFmX2JvdW5kYXJ5X2xheWVyX2NvbmR1Y3RhbmNlKCk8L3RleHQ+PC9nPjwhLS1jbGFzcyBTdGF0aWNGdW5jdGlvbnMtLT48ZyBpZD0iZWxlbV9TdGF0aWNGdW5jdGlvbnMiPjxyZWN0IGNvZGVMaW5lPSI5MCIgZmlsbD0iI0YxRjFGMSIgaGVpZ2h0PSIxOTcuODQzOCIgaWQ9IlN0YXRpY0Z1bmN0aW9ucyIgcng9IjIuNSIgcnk9IjIuNSIgc3R5bGU9InN0cm9rZTojMTgxODE4O3N0cm9rZS13aWR0aDowLjU7IiB3aWR0aD0iMjExIiB4PSIzNTM5LjUiIHk9IjI5Mi4zNCIvPjxlbGxpcHNlIGN4PSIzNTg4LjI1IiBjeT0iMzA4LjM0IiBmaWxsPSIjQUREMUIyIiByeD0iMTEiIHJ5PSIxMSIgc3R5bGU9InN0cm9rZTojMTgxODE4O3N0cm9rZS13aWR0aDoxLjA7Ii8+PHBhdGggZD0iTTM1OTEuODc1LDMxNC4zNCBMMzU5MS44NzUsMzEyLjU5IEwzNTg2LjU2MjUsMzEyLjU5IFEzNTg2LjU2MjUsMzEyLjU5IDM1ODYuNTYyNSwzMDkuMDI3NSBMMzU5MC44MTI1LDMwOS4wMjc1IEwzNTkwLjgxMjUsMzA3LjI3NzUgTDM1ODYuNTYyNSwzMDcuMjc3NSBMMzU4Ni41NjI1LDMwNC43Nzc1IEwzNTkxLjg3NSwzMDQuNzc3NSBMMzU5MS44NzUsMzAzLjAyNzUgTDM1ODQuODEyNSwzMDMuMDI3NSBRMzU4NC44MTI1LDMwMy4wMjc1IDM1ODQuODEyNSwzMTQuMzQgTDM1OTEuODc1LDMxNC4zNCBaICIgZmlsbD0iIzAwMDAwMCIvPjx0ZXh0IGZpbGw9IiMwMDAwMDAiIGZvbnQtZmFtaWx5PSJzYW5zLXNlcmlmIiBmb250LXNpemU9IjE0IiBsZW5ndGhBZGp1c3Q9InNwYWNpbmciIHRleHRMZW5ndGg9IjEwNSIgeD0iMzYwOC43NSIgeT0iMzE0LjA4MjIiPlN0YXRpY0Z1bmN0aW9uczwvdGV4dD48bGluZSBzdHlsZT0ic3Ryb2tlOiMxODE4MTg7c3Ryb2tlLXdpZHRoOjAuNTsiIHgxPSIzNTQwLjUiIHgyPSIzNzQ5LjUiIHkxPSIzMjQuMzQiIHkyPSIzMjQuMzQiLz48bGluZSBzdHlsZT0ic3Ryb2tlOiMxODE4MTg7c3Ryb2tlLXdpZHRoOjAuNTsiIHgxPSIzNTQwLjUiIHgyPSIzNzQ5LjUiIHkxPSIzMzIuMzQiIHkyPSIzMzIuMzQiLz48dGV4dCBmaWxsPSIjMDAwMDAwIiBmb250LWZhbWlseT0ic2Fucy1zZXJpZiIgZm9udC1zaXplPSIxNCIgbGVuZ3RoQWRqdXN0PSJzcGFjaW5nIiB0ZXh0TGVuZ3RoPSIxMDciIHg9IjM1NDUuNSIgeT0iMzQ5LjU3NDQiPmxlYWRfQWdzX2ViYWwoKTwvdGV4dD48dGV4dCBmaWxsPSIjMDAwMDAwIiBmb250LWZhbWlseT0ic2Fucy1zZXJpZiIgZm9udC1zaXplPSIxNCIgbGVuZ3RoQWRqdXN0PSJzcGFjaW5nIiB0ZXh0TGVuZ3RoPSIxNDkiIHg9IjM1NDUuNSIgeT0iMzY0LjU1ODgiPnBob3RvX2MzX2FuYWx5dGljYWwoKTwvdGV4dD48dGV4dCBmaWxsPSIjMDAwMDAwIiBmb250LWZhbWlseT0ic2Fucy1zZXJpZiIgZm9udC1zaXplPSIxNCIgbGVuZ3RoQWRqdXN0PSJzcGFjaW5nIiB0ZXh0TGVuZ3RoPSIxMjIiIHg9IjM1NDUuNSIgeT0iMzc5LjU0MzEiPnBob3RvX2MzX21lZGx5bigpPC90ZXh0Pjx0ZXh0IGZpbGw9IiMwMDAwMDAiIGZvbnQtZmFtaWx5PSJzYW5zLXNlcmlmIiBmb250LXNpemU9IjE0IiBsZW5ndGhBZGp1c3Q9InNwYWNpbmciIHRleHRMZW5ndGg9IjE4NSIgeD0iMzU0NS41IiB5PSIzOTQuNTI3NSI+cGhvdG9fYzNfbWVkbHluX2ZhcnF1aGFyKCk8L3RleHQ+PHRleHQgZmlsbD0iIzAwMDAwMCIgZm9udC1mYW1pbHk9InNhbnMtc2VyaWYiIGZvbnQtc2l6ZT0iMTQiIGxlbmd0aEFkanVzdD0ic3BhY2luZyIgdGV4dExlbmd0aD0iMTAxIiB4PSIzNTQ1LjUiIHk9IjQwOS41MTE5Ij5waG90b19jM19id2IoKTwvdGV4dD48dGV4dCBmaWxsPSIjMDAwMDAwIiBmb250LWZhbWlseT0ic2Fucy1zZXJpZiIgZm9udC1zaXplPSIxNCIgbGVuZ3RoQWRqdXN0PSJzcGFjaW5nIiB0ZXh0TGVuZ3RoPSIxMTQiIHg9IjM1NDUuNSIgeT0iNDI0LjQ5NjMiPnBob3RvX2ZhcnF1aGFyKCk8L3RleHQ+PHRleHQgZmlsbD0iIzAwMDAwMCIgZm9udC1mYW1pbHk9InNhbnMtc2VyaWYiIGZvbnQtc2l6ZT0iMTQiIGxlbmd0aEFkanVzdD0ic3BhY2luZyIgdGV4dExlbmd0aD0iMTk5IiB4PSIzNTQ1LjUiIHk9IjQzOS40ODA2Ij5waG90b190ZW1wZXJhdHVyZV9yZXNwb25zZSgpPC90ZXh0Pjx0ZXh0IGZpbGw9IiMwMDAwMDAiIGZvbnQtZmFtaWx5PSJzYW5zLXNlcmlmIiBmb250LXNpemU9IjE0IiBsZW5ndGhBZGp1c3Q9InNwYWNpbmciIHRleHRMZW5ndGg9IjE3MCIgeD0iMzU0NS41IiB5PSI0NTQuNDY1Ij5hcHBhcmVudF9waG90b2NhcGFjaXR5KCk8L3RleHQ+PHRleHQgZmlsbD0iIzAwMDAwMCIgZm9udC1mYW1pbHk9InNhbnMtc2VyaWYiIGZvbnQtc2l6ZT0iMTQiIGxlbmd0aEFkanVzdD0ic3BhY2luZyIgdGV4dExlbmd0aD0iMTcwIiB4PSIzNTQ1LjUiIHk9IjQ2OS40NDk0Ij50b3B0X2RlbHRhU19jb252ZXJzaW9uKCk8L3RleHQ+PHRleHQgZmlsbD0iIzAwMDAwMCIgZm9udC1mYW1pbHk9InNhbnMtc2VyaWYiIGZvbnQtc2l6ZT0iMTQiIGxlbmd0aEFkanVzdD0ic3BhY2luZyIgdGV4dExlbmd0aD0iMTA4IiB4PSIzNTQ1LjUiIHk9IjQ4NC40MzM4Ij5waG90b19Ub3B0aW1hKCk8L3RleHQ+PC9nPjwhLS1jbGFzcyBNaWNyb21ldC0tPjxnIGlkPSJlbGVtX01pY3JvbWV0Ij48cmVjdCBjb2RlTGluZT0iMTA2IiBmaWxsPSIjRjFGMUYxIiBoZWlnaHQ9IjE2Ny44NzUiIGlkPSJNaWNyb21ldCIgcng9IjIuNSIgcnk9IjIuNSIgc3R5bGU9InN0cm9rZTojMTgxODE4O3N0cm9rZS13aWR0aDowLjU7IiB3aWR0aD0iMTgzIiB4PSIzMjUxLjUiIHk9IjMwNy4zNCIvPjxlbGxpcHNlIGN4PSIzMzEwLjI1IiBjeT0iMzIzLjM0IiBmaWxsPSIjQUREMUIyIiByeD0iMTEiIHJ5PSIxMSIgc3R5bGU9InN0cm9rZTojMTgxODE4O3N0cm9rZS13aWR0aDoxLjA7Ii8+PHBhdGggZD0iTTMzMDcuODc1LDMyNy41OSBMMzMwNy44NzUsMzI5LjM0IEwzMzEyLjgxMjUsMzI5LjM0IEwzMzEyLjgxMjUsMzI3LjU5IEwzMzA3Ljg3NSwzMjcuNTkgWiBNMzMwOC41NjI1LDMyOC4yNzc1IFEzMzA4LjU2MjUsMzI4LjI3NzUgMzMwOC41NjI1LDMxOS4wOSBMMzMwNi44MTI1LDMxOS4wOSBRMzMwNi44MTI1LDMxOS4wOSAzMzA2LjgxMjUsMzI4LjI3NzUgTDMzMDguNTYyNSwzMjguMjc3NSBaIE0zMzEyLjEyNSwzMjguMjc3NSBMMzMxMy44NzUsMzI4LjI3NzUgUTMzMTMuODc1LDMyOC4yNzc1IDMzMTMuODc1LDMyNS40NjUgTDMzMTIuMTI1LDMyNS40NjUgUTMzMTIuMTI1LDMyNS40NjUgMzMxMi4xMjUsMzI4LjI3NzUgWiBNMzMxMi4xMjUsMzE5LjA5IFEzMzEyLjEyNSwzMTkuMDkgMzMxMi4xMjUsMzIxLjkwMjUgTDMzMTMuODc1LDMyMS45MDI1IFEzMzEzLjg3NSwzMjEuOTAyNSAzMzEzLjg3NSwzMTkuMDkgTDMzMTIuMTI1LDMxOS4wOSBaIE0zMzA3Ljg3NSwzMTkuNzc3NSBMMzMxMi44MTI1LDMxOS43Nzc1IEwzMzEyLjgxMjUsMzE4LjAyNzUgTDMzMDcuODc1LDMxOC4wMjc1IEwzMzA3Ljg3NSwzMTkuNzc3NSBaICIgZmlsbD0iIzAwMDAwMCIvPjx0ZXh0IGZpbGw9IiMwMDAwMDAiIGZvbnQtZmFtaWx5PSJzYW5zLXNlcmlmIiBmb250LXNpemU9IjE0IiBsZW5ndGhBZGp1c3Q9InNwYWNpbmciIHRleHRMZW5ndGg9IjU3IiB4PSIzMzMwLjc1IiB5PSIzMjkuMDgyMiI+TWljcm9tZXQ8L3RleHQ+PGxpbmUgc3R5bGU9InN0cm9rZTojMTgxODE4O3N0cm9rZS13aWR0aDowLjU7IiB4MT0iMzI1Mi41IiB4Mj0iMzQzMy41IiB5MT0iMzM5LjM0IiB5Mj0iMzM5LjM0Ii8+PGxpbmUgc3R5bGU9InN0cm9rZTojMTgxODE4O3N0cm9rZS13aWR0aDowLjU7IiB4MT0iMzI1Mi41IiB4Mj0iMzQzMy41IiB5MT0iMzQ3LjM0IiB5Mj0iMzQ3LjM0Ii8+PHRleHQgZmlsbD0iIzAwMDAwMCIgZm9udC1mYW1pbHk9InNhbnMtc2VyaWYiIGZvbnQtc2l6ZT0iMTQiIGxlbmd0aEFkanVzdD0ic3BhY2luZyIgdGV4dExlbmd0aD0iMTY1IiB4PSIzMjU3LjUiIHk9IjM2NC41NzQ0Ij5ub3JtYWxpemVkX2Zsb3dfc3RhdHMoKTwvdGV4dD48dGV4dCBmaWxsPSIjMDAwMDAwIiBmb250LWZhbWlseT0ic2Fucy1zZXJpZiIgZm9udC1zaXplPSIxNCIgbGVuZ3RoQWRqdXN0PSJzcGFjaW5nIiB0ZXh0TGVuZ3RoPSIxMDAiIHg9IjMyNTcuNSIgeT0iMzc5LjU1ODgiPnVwZGF0ZV9zdGF0ZSgpPC90ZXh0Pjx0ZXh0IGZpbGw9IiMwMDAwMDAiIGZvbnQtZmFtaWx5PSJzYW5zLXNlcmlmIiBmb250LXNpemU9IjE0IiBsZW5ndGhBZGp1c3Q9InNwYWNpbmciIHRleHRMZW5ndGg9IjEyMSIgeD0iMzI1Ny41IiB5PSIzOTQuNTQzMSI+c2NhbGFyX3Byb2ZpbGVzKCk8L3RleHQ+PHRleHQgZmlsbD0iIzAwMDAwMCIgZm9udC1mYW1pbHk9InNhbnMtc2VyaWYiIGZvbnQtc2l6ZT0iMTQiIGxlbmd0aEFkanVzdD0ic3BhY2luZyIgdGV4dExlbmd0aD0iMTM2IiB4PSIzMjU3LjUiIHk9IjQwOS41Mjc1Ij5jbG9zdXJlXzFfbW9kZWxfVSgpPC90ZXh0Pjx0ZXh0IGZpbGw9IiMwMDAwMDAiIGZvbnQtZmFtaWx5PSJzYW5zLXNlcmlmIiBmb250LXNpemU9IjE0IiBsZW5ndGhBZGp1c3Q9InNwYWNpbmciIHRleHRMZW5ndGg9IjE3MSIgeD0iMzI1Ny41IiB5PSI0MjQuNTExOSI+Y2xvc3VyZV8xX21vZGVsX3NjYWxhcigpPC90ZXh0Pjx0ZXh0IGZpbGw9IiMwMDAwMDAiIGZvbnQtZmFtaWx5PSJzYW5zLXNlcmlmIiBmb250LXNpemU9IjE0IiBsZW5ndGhBZGp1c3Q9InNwYWNpbmciIHRleHRMZW5ndGg9IjEwOCIgeD0iMzI1Ny41IiB5PSI0MzkuNDk2MyI+bWl4aW5nX2xlbmd0aCgpPC90ZXh0Pjx0ZXh0IGZpbGw9IiMwMDAwMDAiIGZvbnQtZmFtaWx5PSJzYW5zLXNlcmlmIiBmb250LXNpemU9IjE0IiBsZW5ndGhBZGp1c3Q9InNwYWNpbmciIHRleHRMZW5ndGg9IjUxIiB4PSIzMjU3LjUiIHk9IjQ1NC40ODA2Ij5lX3NhdCgpPC90ZXh0Pjx0ZXh0IGZpbGw9IiMwMDAwMDAiIGZvbnQtZmFtaWx5PSJzYW5zLXNlcmlmIiBmb250LXNpemU9IjE0IiBsZW5ndGhBZGp1c3Q9InNwYWNpbmciIHRleHRMZW5ndGg9IjkzIiB4PSIzMjU3LjUiIHk9IjQ2OS40NjUiPmxhdGVudF9oZWF0KCk8L3RleHQ+PC9nPjwhLS1jbGFzcyBSYWRpYXRpb24tLT48ZyBpZD0iZWxlbV9SYWRpYXRpb24iPjxyZWN0IGNvZGVMaW5lPSIxMTgiIGZpbGw9IiNGMUYxRjEiIGhlaWdodD0iMjEyLjgyODEiIGlkPSJSYWRpYXRpb24iIHJ4PSIyLjUiIHJ5PSIyLjUiIHN0eWxlPSJzdHJva2U6IzE4MTgxODtzdHJva2Utd2lkdGg6MC41OyIgd2lkdGg9IjE5NiIgeD0iMjk5OSIgeT0iMjg0Ljg0Ii8+PGVsbGlwc2UgY3g9IjMwNjEuMjUiIGN5PSIzMDAuODQiIGZpbGw9IiNBREQxQjIiIHJ4PSIxMSIgcnk9IjExIiBzdHlsZT0ic3Ryb2tlOiMxODE4MTg7c3Ryb2tlLXdpZHRoOjEuMDsiLz48cGF0aCBkPSJNMzA1OC44NzUsMzA1LjA5IEwzMDU4Ljg3NSwzMDYuODQgTDMwNjMuODEyNSwzMDYuODQgTDMwNjMuODEyNSwzMDUuMDkgTDMwNTguODc1LDMwNS4wOSBaIE0zMDU5LjU2MjUsMzA1Ljc3NzUgUTMwNTkuNTYyNSwzMDUuNzc3NSAzMDU5LjU2MjUsMjk2LjU5IEwzMDU3LjgxMjUsMjk2LjU5IFEzMDU3LjgxMjUsMjk2LjU5IDMwNTcuODEyNSwzMDUuNzc3NSBMMzA1OS41NjI1LDMwNS43Nzc1IFogTTMwNjMuMTI1LDMwNS43Nzc1IEwzMDY0Ljg3NSwzMDUuNzc3NSBRMzA2NC44NzUsMzA1Ljc3NzUgMzA2NC44NzUsMzAyLjk2NSBMMzA2My4xMjUsMzAyLjk2NSBRMzA2My4xMjUsMzAyLjk2NSAzMDYzLjEyNSwzMDUuNzc3NSBaIE0zMDYzLjEyNSwyOTYuNTkgUTMwNjMuMTI1LDI5Ni41OSAzMDYzLjEyNSwyOTkuNDAyNSBMMzA2NC44NzUsMjk5LjQwMjUgUTMwNjQuODc1LDI5OS40MDI1IDMwNjQuODc1LDI5Ni41OSBMMzA2My4xMjUsMjk2LjU5IFogTTMwNTguODc1LDI5Ny4yNzc1IEwzMDYzLjgxMjUsMjk3LjI3NzUgTDMwNjMuODEyNSwyOTUuNTI3NSBMMzA1OC44NzUsMjk1LjUyNzUgTDMwNTguODc1LDI5Ny4yNzc1IFogIiBmaWxsPSIjMDAwMDAwIi8+PHRleHQgZmlsbD0iIzAwMDAwMCIgZm9udC1mYW1pbHk9InNhbnMtc2VyaWYiIGZvbnQtc2l6ZT0iMTQiIGxlbmd0aEFkanVzdD0ic3BhY2luZyIgdGV4dExlbmd0aD0iNjMiIHg9IjMwODEuNzUiIHk9IjMwNi41ODIyIj5SYWRpYXRpb248L3RleHQ+PGxpbmUgc3R5bGU9InN0cm9rZTojMTgxODE4O3N0cm9rZS13aWR0aDowLjU7IiB4MT0iMzAwMCIgeDI9IjMxOTQiIHkxPSIzMTYuODQiIHkyPSIzMTYuODQiLz48bGluZSBzdHlsZT0ic3Ryb2tlOiMxODE4MTg7c3Ryb2tlLXdpZHRoOjAuNTsiIHgxPSIzMDAwIiB4Mj0iMzE5NCIgeTE9IjMyNC44NCIgeTI9IjMyNC44NCIvPjx0ZXh0IGZpbGw9IiMwMDAwMDAiIGZvbnQtZmFtaWx5PSJzYW5zLXNlcmlmIiBmb250LXNpemU9IjE0IiBsZW5ndGhBZGp1c3Q9InNwYWNpbmciIHRleHRMZW5ndGg9IjE0MyIgeD0iMzAwNSIgeT0iMzQyLjA3NDQiPnNob3J0d2F2ZV9wcm9maWxlcygpPC90ZXh0Pjx0ZXh0IGZpbGw9IiMwMDAwMDAiIGZvbnQtZmFtaWx5PSJzYW5zLXNlcmlmIiBmb250LXNpemU9IjE0IiBsZW5ndGhBZGp1c3Q9InNwYWNpbmciIHRleHRMZW5ndGg9IjEzNiIgeD0iMzAwNSIgeT0iMzU3LjA1ODgiPmxvbmd3YXZlX3Byb2ZpbGVzKCk8L3RleHQ+PHRleHQgZmlsbD0iIzAwMDAwMCIgZm9udC1mYW1pbHk9InNhbnMtc2VyaWYiIGZvbnQtc2l6ZT0iMTQiIGxlbmd0aEFkanVzdD0ic3BhY2luZyIgdGV4dExlbmd0aD0iMTAwIiB4PSIzMDA1IiB5PSIzNzIuMDQzMSI+c29sYXJfYW5nbGVzKCk8L3RleHQ+PHRleHQgZmlsbD0iIzAwMDAwMCIgZm9udC1mYW1pbHk9InNhbnMtc2VyaWYiIGZvbnQtc2l6ZT0iMTQiIGxlbmd0aEFkanVzdD0ic3BhY2luZyIgdGV4dExlbmd0aD0iNTIiIHg9IjMwMDUiIHk9IjM4Ny4wMjc1Ij5rYmVhbSgpPC90ZXh0Pjx0ZXh0IGZpbGw9IiMwMDAwMDAiIGZvbnQtZmFtaWx5PSJzYW5zLXNlcmlmIiBmb250LXNpemU9IjE0IiBsZW5ndGhBZGp1c3Q9InNwYWNpbmciIHRleHRMZW5ndGg9IjcyIiB4PSIzMDA1IiB5PSI0MDIuMDExOSI+a2RpZmZ1c2UoKTwvdGV4dD48dGV4dCBmaWxsPSIjMDAwMDAwIiBmb250LWZhbWlseT0ic2Fucy1zZXJpZiIgZm9udC1zaXplPSIxNCIgbGVuZ3RoQWRqdXN0PSJzcGFjaW5nIiB0ZXh0TGVuZ3RoPSIxNTciIHg9IjMwMDUiIHk9IjQxNi45OTYzIj5jYW5vcHlfc3dfWmhhb1F1YWxscygpPC90ZXh0Pjx0ZXh0IGZpbGw9IiMwMDAwMDAiIGZvbnQtZmFtaWx5PSJzYW5zLXNlcmlmIiBmb250LXNpemU9IjE0IiBsZW5ndGhBZGp1c3Q9InNwYWNpbmciIHRleHRMZW5ndGg9IjE0MyIgeD0iMzAwNSIgeT0iNDMxLjk4MDYiPmNhbm9weV9zd19TcGl0dGVycygpPC90ZXh0Pjx0ZXh0IGZpbGw9IiMwMDAwMDAiIGZvbnQtZmFtaWx5PSJzYW5zLXNlcmlmIiBmb250LXNpemU9IjE0IiBsZW5ndGhBZGp1c3Q9InNwYWNpbmciIHRleHRMZW5ndGg9IjE0MyIgeD0iMzAwNSIgeT0iNDQ2Ljk2NSI+Y29tcHV0ZV9jbG91ZHNfcmFkKCk8L3RleHQ+PHRleHQgZmlsbD0iIzAwMDAwMCIgZm9udC1mYW1pbHk9InNhbnMtc2VyaWYiIGZvbnQtc2l6ZT0iMTQiIGxlbmd0aEFkanVzdD0ic3BhY2luZyIgdGV4dExlbmd0aD0iODAiIHg9IjMwMDUiIHk9IjQ2MS45NDk0Ij5jYW5vcHlfbHcoKTwvdGV4dD48dGV4dCBmaWxsPSIjMDAwMDAwIiBmb250LWZhbWlseT0ic2Fucy1zZXJpZiIgZm9udC1zaXplPSIxNCIgbGVuZ3RoQWRqdXN0PSJzcGFjaW5nIiB0ZXh0TGVuZ3RoPSIxNTciIHg9IjMwMDUiIHk9IjQ3Ni45MzM4Ij5jYW5vcHlfbHdfWmhhb1F1YWxscygpPC90ZXh0Pjx0ZXh0IGZpbGw9IiMwMDAwMDAiIGZvbnQtZmFtaWx5PSJzYW5zLXNlcmlmIiBmb250LXNpemU9IjE0IiBsZW5ndGhBZGp1c3Q9InNwYWNpbmciIHRleHRMZW5ndGg9IjE4NCIgeD0iMzAwNSIgeT0iNDkxLjkxODEiPnRlc3RfcmFkaWF0aW9uX2Z1bmN0aW9ucygpPC90ZXh0PjwvZz48IS0tY2xhc3MgUGxhbnRUeXBlLS0+PGcgaWQ9ImVsZW1fUGxhbnRUeXBlIj48cmVjdCBmaWxsPSIjRjFGMUYxIiBoZWlnaHQ9IjQ4IiBpZD0iUGxhbnRUeXBlIiByeD0iMi41IiByeT0iMi41IiBzdHlsZT0ic3Ryb2tlOiMxODE4MTg7c3Ryb2tlLXdpZHRoOjAuNTsiIHdpZHRoPSI5NSIgeD0iMjExMC41IiB5PSIzNjcuMzQiLz48ZWxsaXBzZSBjeD0iMjEyNS41IiBjeT0iMzgzLjM0IiBmaWxsPSIjQUREMUIyIiByeD0iMTEiIHJ5PSIxMSIgc3R5bGU9InN0cm9rZTojMTgxODE4O3N0cm9rZS13aWR0aDoxLjA7Ii8+PHBhdGggZD0iTTIxMjMuMTI1LDM4Ny41OSBMMjEyMy4xMjUsMzg5LjM0IEwyMTI4LjA2MjUsMzg5LjM0IEwyMTI4LjA2MjUsMzg3LjU5IEwyMTIzLjEyNSwzODcuNTkgWiBNMjEyMy44MTI1LDM4OC4yNzc1IFEyMTIzLjgxMjUsMzg4LjI3NzUgMjEyMy44MTI1LDM3OS4wOSBMMjEyMi4wNjI1LDM3OS4wOSBRMjEyMi4wNjI1LDM3OS4wOSAyMTIyLjA2MjUsMzg4LjI3NzUgTDIxMjMuODEyNSwzODguMjc3NSBaIE0yMTI3LjM3NSwzODguMjc3NSBMMjEyOS4xMjUsMzg4LjI3NzUgUTIxMjkuMTI1LDM4OC4yNzc1IDIxMjkuMTI1LDM4NS40NjUgTDIxMjcuMzc1LDM4NS40NjUgUTIxMjcuMzc1LDM4NS40NjUgMjEyNy4zNzUsMzg4LjI3NzUgWiBNMjEyNy4zNzUsMzc5LjA5IFEyMTI3LjM3NSwzNzkuMDkgMjEyNy4zNzUsMzgxLjkwMjUgTDIxMjkuMTI1LDM4MS45MDI1IFEyMTI5LjEyNSwzODEuOTAyNSAyMTI5LjEyNSwzNzkuMDkgTDIxMjcuMzc1LDM3OS4wOSBaIE0yMTIzLjEyNSwzNzkuNzc3NSBMMjEyOC4wNjI1LDM3OS43Nzc1IEwyMTI4LjA2MjUsMzc4LjAyNzUgTDIxMjMuMTI1LDM3OC4wMjc1IEwyMTIzLjEyNSwzNzkuNzc3NSBaICIgZmlsbD0iIzAwMDAwMCIvPjx0ZXh0IGZpbGw9IiMwMDAwMDAiIGZvbnQtZmFtaWx5PSJzYW5zLXNlcmlmIiBmb250LXNpemU9IjE0IiBsZW5ndGhBZGp1c3Q9InNwYWNpbmciIHRleHRMZW5ndGg9IjYzIiB4PSIyMTM5LjUiIHk9IjM4OS4wODIyIj5QbGFudFR5cGU8L3RleHQ+PGxpbmUgc3R5bGU9InN0cm9rZTojMTgxODE4O3N0cm9rZS13aWR0aDowLjU7IiB4MT0iMjExMS41IiB4Mj0iMjIwNC41IiB5MT0iMzk5LjM0IiB5Mj0iMzk5LjM0Ii8+PGxpbmUgc3R5bGU9InN0cm9rZTojMTgxODE4O3N0cm9rZS13aWR0aDowLjU7IiB4MT0iMjExMS41IiB4Mj0iMjIwNC41IiB5MT0iNDA3LjM0IiB5Mj0iNDA3LjM0Ii8+PC9nPjwhLS1jbGFzcyBQaG90b19jeWNsZS0tPjxnIGlkPSJlbGVtX1Bob3RvX2N5Y2xlIj48cmVjdCBjb2RlTGluZT0iMTM1IiBmaWxsPSIjRjFGMUYxIiBoZWlnaHQ9IjYyLjk4NDQiIGlkPSJQaG90b19jeWNsZSIgcng9IjIuNSIgcnk9IjIuNSIgc3R5bGU9InN0cm9rZTojMTgxODE4O3N0cm9rZS13aWR0aDowLjU7IiB3aWR0aD0iMTA5IiB4PSIyNzg1LjUiIHk9IjM1OS44NCIvPjxlbGxpcHNlIGN4PSIyODAwLjUiIGN5PSIzNzUuODQiIGZpbGw9IiNBREQxQjIiIHJ4PSIxMSIgcnk9IjExIiBzdHlsZT0ic3Ryb2tlOiMxODE4MTg7c3Ryb2tlLXdpZHRoOjEuMDsiLz48cGF0aCBkPSJNMjc5OC4xMjUsMzgwLjA5IEwyNzk4LjEyNSwzODEuODQgTDI4MDMuMDYyNSwzODEuODQgTDI4MDMuMDYyNSwzODAuMDkgTDI3OTguMTI1LDM4MC4wOSBaIE0yNzk4LjgxMjUsMzgwLjc3NzUgUTI3OTguODEyNSwzODAuNzc3NSAyNzk4LjgxMjUsMzcxLjU5IEwyNzk3LjA2MjUsMzcxLjU5IFEyNzk3LjA2MjUsMzcxLjU5IDI3OTcuMDYyNSwzODAuNzc3NSBMMjc5OC44MTI1LDM4MC43Nzc1IFogTTI4MDIuMzc1LDM4MC43Nzc1IEwyODA0LjEyNSwzODAuNzc3NSBRMjgwNC4xMjUsMzgwLjc3NzUgMjgwNC4xMjUsMzc3Ljk2NSBMMjgwMi4zNzUsMzc3Ljk2NSBRMjgwMi4zNzUsMzc3Ljk2NSAyODAyLjM3NSwzODAuNzc3NSBaIE0yODAyLjM3NSwzNzEuNTkgUTI4MDIuMzc1LDM3MS41OSAyODAyLjM3NSwzNzQuNDAyNSBMMjgwNC4xMjUsMzc0LjQwMjUgUTI4MDQuMTI1LDM3NC40MDI1IDI4MDQuMTI1LDM3MS41OSBMMjgwMi4zNzUsMzcxLjU5IFogTTI3OTguMTI1LDM3Mi4yNzc1IEwyODAzLjA2MjUsMzcyLjI3NzUgTDI4MDMuMDYyNSwzNzAuNTI3NSBMMjc5OC4xMjUsMzcwLjUyNzUgTDI3OTguMTI1LDM3Mi4yNzc1IFogIiBmaWxsPSIjMDAwMDAwIi8+PHRleHQgZmlsbD0iIzAwMDAwMCIgZm9udC1mYW1pbHk9InNhbnMtc2VyaWYiIGZvbnQtc2l6ZT0iMTQiIGxlbmd0aEFkanVzdD0ic3BhY2luZyIgdGV4dExlbmd0aD0iNzciIHg9IjI4MTQuNSIgeT0iMzgxLjU4MjIiPlBob3RvX2N5Y2xlPC90ZXh0PjxsaW5lIHN0eWxlPSJzdHJva2U6IzE4MTgxODtzdHJva2Utd2lkdGg6MC41OyIgeDE9IjI3ODYuNSIgeDI9IjI4OTMuNSIgeTE9IjM5MS44NCIgeTI9IjM5MS44NCIvPjxsaW5lIHN0eWxlPSJzdHJva2U6IzE4MTgxODtzdHJva2Utd2lkdGg6MC41OyIgeDE9IjI3ODYuNSIgeDI9IjI4OTMuNSIgeTE9IjM5OS44NCIgeTI9IjM5OS44NCIvPjx0ZXh0IGZpbGw9IiMwMDAwMDAiIGZvbnQtZmFtaWx5PSJzYW5zLXNlcmlmIiBmb250LXNpemU9IjE0IiBsZW5ndGhBZGp1c3Q9InNwYWNpbmciIHRleHRMZW5ndGg9IjM3IiB4PSIyNzkxLjUiIHk9IjQxNy4wNzQ0Ij5ydW4oKTwvdGV4dD48L2c+PCEtLWNsYXNzIExBSV9jeWNsZS0tPjxnIGlkPSJlbGVtX0xBSV9jeWNsZSI+PHJlY3QgY29kZUxpbmU9IjEzOCIgZmlsbD0iI0YxRjFGMSIgaGVpZ2h0PSI3Ny45Njg4IiBpZD0iTEFJX2N5Y2xlIiByeD0iMi41IiByeT0iMi41IiBzdHlsZT0ic3Ryb2tlOiMxODE4MTg7c3Ryb2tlLXdpZHRoOjAuNTsiIHdpZHRoPSI5NSIgeD0iMjY1NS41IiB5PSIzNTIuMzQiLz48ZWxsaXBzZSBjeD0iMjY3MC41IiBjeT0iMzY4LjM0IiBmaWxsPSIjQUREMUIyIiByeD0iMTEiIHJ5PSIxMSIgc3R5bGU9InN0cm9rZTojMTgxODE4O3N0cm9rZS13aWR0aDoxLjA7Ii8+PHBhdGggZD0iTTI2NjguMTI1LDM3Mi41OSBMMjY2OC4xMjUsMzc0LjM0IEwyNjczLjA2MjUsMzc0LjM0IEwyNjczLjA2MjUsMzcyLjU5IEwyNjY4LjEyNSwzNzIuNTkgWiBNMjY2OC44MTI1LDM3My4yNzc1IFEyNjY4LjgxMjUsMzczLjI3NzUgMjY2OC44MTI1LDM2NC4wOSBMMjY2Ny4wNjI1LDM2NC4wOSBRMjY2Ny4wNjI1LDM2NC4wOSAyNjY3LjA2MjUsMzczLjI3NzUgTDI2NjguODEyNSwzNzMuMjc3NSBaIE0yNjcyLjM3NSwzNzMuMjc3NSBMMjY3NC4xMjUsMzczLjI3NzUgUTI2NzQuMTI1LDM3My4yNzc1IDI2NzQuMTI1LDM3MC40NjUgTDI2NzIuMzc1LDM3MC40NjUgUTI2NzIuMzc1LDM3MC40NjUgMjY3Mi4zNzUsMzczLjI3NzUgWiBNMjY3Mi4zNzUsMzY0LjA5IFEyNjcyLjM3NSwzNjQuMDkgMjY3Mi4zNzUsMzY2LjkwMjUgTDI2NzQuMTI1LDM2Ni45MDI1IFEyNjc0LjEyNSwzNjYuOTAyNSAyNjc0LjEyNSwzNjQuMDkgTDI2NzIuMzc1LDM2NC4wOSBaIE0yNjY4LjEyNSwzNjQuNzc3NSBMMjY3My4wNjI1LDM2NC43Nzc1IEwyNjczLjA2MjUsMzYzLjAyNzUgTDI2NjguMTI1LDM2My4wMjc1IEwyNjY4LjEyNSwzNjQuNzc3NSBaICIgZmlsbD0iIzAwMDAwMCIvPjx0ZXh0IGZpbGw9IiMwMDAwMDAiIGZvbnQtZmFtaWx5PSJzYW5zLXNlcmlmIiBmb250LXNpemU9IjE0IiBsZW5ndGhBZGp1c3Q9InNwYWNpbmciIHRleHRMZW5ndGg9IjYzIiB4PSIyNjg0LjUiIHk9IjM3NC4wODIyIj5MQUlfY3ljbGU8L3RleHQ+PGxpbmUgc3R5bGU9InN0cm9rZTojMTgxODE4O3N0cm9rZS13aWR0aDowLjU7IiB4MT0iMjY1Ni41IiB4Mj0iMjc0OS41IiB5MT0iMzg0LjM0IiB5Mj0iMzg0LjM0Ii8+PGxpbmUgc3R5bGU9InN0cm9rZTojMTgxODE4O3N0cm9rZS13aWR0aDowLjU7IiB4MT0iMjY1Ni41IiB4Mj0iMjc0OS41IiB5MT0iMzkyLjM0IiB5Mj0iMzkyLjM0Ii8+PHRleHQgZmlsbD0iIzAwMDAwMCIgZm9udC1mYW1pbHk9InNhbnMtc2VyaWYiIGZvbnQtc2l6ZT0iMTQiIGxlbmd0aEFkanVzdD0ic3BhY2luZyIgdGV4dExlbmd0aD0iMzciIHg9IjI2NjEuNSIgeT0iNDA5LjU3NDQiPnJ1bigpPC90ZXh0Pjx0ZXh0IGZpbGw9IiMwMDAwMDAiIGZvbnQtZmFtaWx5PSJzYW5zLXNlcmlmIiBmb250LXNpemU9IjE0IiBsZW5ndGhBZGp1c3Q9InNwYWNpbmciIHRleHRMZW5ndGg9Ijc5IiB4PSIyNjYxLjUiIHk9IjQyNC41NTg4Ij5kYXlsZW5ndGgoKTwvdGV4dD48L2c+PCEtLWNsYXNzIFBsYW50VHlwZS0tPjxnIGlkPSJlbGVtX1BsYW50VHlwZSI+PHJlY3QgY29kZUxpbmU9IjE0NCIgZmlsbD0iI0YxRjFGMSIgaGVpZ2h0PSIxMDcuOTM3NSIgaWQ9IlBsYW50VHlwZSIgcng9IjIuNSIgcnk9IjIuNSIgc3R5bGU9InN0cm9rZTojMTgxODE4O3N0cm9rZS13aWR0aDowLjU7IiB3aWR0aD0iMTYxIiB4PSIyNDM3LjUiIHk9IjMzNy4zNCIvPjxlbGxpcHNlIGN4PSIyNDgyLjI1IiBjeT0iMzUzLjM0IiBmaWxsPSIjQUREMUIyIiByeD0iMTEiIHJ5PSIxMSIgc3R5bGU9InN0cm9rZTojMTgxODE4O3N0cm9rZS13aWR0aDoxLjA7Ii8+PHBhdGggZD0iTTI0NzkuODc1LDM1Ny41OSBMMjQ3OS44NzUsMzU5LjM0IEwyNDg0LjgxMjUsMzU5LjM0IEwyNDg0LjgxMjUsMzU3LjU5IEwyNDc5Ljg3NSwzNTcuNTkgWiBNMjQ4MC41NjI1LDM1OC4yNzc1IFEyNDgwLjU2MjUsMzU4LjI3NzUgMjQ4MC41NjI1LDM0OS4wOSBMMjQ3OC44MTI1LDM0OS4wOSBRMjQ3OC44MTI1LDM0OS4wOSAyNDc4LjgxMjUsMzU4LjI3NzUgTDI0ODAuNTYyNSwzNTguMjc3NSBaIE0yNDg0LjEyNSwzNTguMjc3NSBMMjQ4NS44NzUsMzU4LjI3NzUgUTI0ODUuODc1LDM1OC4yNzc1IDI0ODUuODc1LDM1NS40NjUgTDI0ODQuMTI1LDM1NS40NjUgUTI0ODQuMTI1LDM1NS40NjUgMjQ4NC4xMjUsMzU4LjI3NzUgWiBNMjQ4NC4xMjUsMzQ5LjA5IFEyNDg0LjEyNSwzNDkuMDkgMjQ4NC4xMjUsMzUxLjkwMjUgTDI0ODUuODc1LDM1MS45MDI1IFEyNDg1Ljg3NSwzNTEuOTAyNSAyNDg1Ljg3NSwzNDkuMDkgTDI0ODQuMTI1LDM0OS4wOSBaIE0yNDc5Ljg3NSwzNDkuNzc3NSBMMjQ4NC44MTI1LDM0OS43Nzc1IEwyNDg0LjgxMjUsMzQ4LjAyNzUgTDI0NzkuODc1LDM0OC4wMjc1IEwyNDc5Ljg3NSwzNDkuNzc3NSBaICIgZmlsbD0iIzAwMDAwMCIvPjx0ZXh0IGZpbGw9IiMwMDAwMDAiIGZvbnQtZmFtaWx5PSJzYW5zLXNlcmlmIiBmb250LXNpemU9IjE0IiBsZW5ndGhBZGp1c3Q9InNwYWNpbmciIHRleHRMZW5ndGg9IjYzIiB4PSIyNTAyLjc1IiB5PSIzNTkuMDgyMiI+UGxhbnRUeXBlPC90ZXh0PjxsaW5lIHN0eWxlPSJzdHJva2U6IzE4MTgxODtzdHJva2Utd2lkdGg6MC41OyIgeDE9IjI0MzguNSIgeDI9IjI1OTcuNSIgeTE9IjM2OS4zNCIgeTI9IjM2OS4zNCIvPjxsaW5lIHN0eWxlPSJzdHJva2U6IzE4MTgxODtzdHJva2Utd2lkdGg6MC41OyIgeDE9IjI0MzguNSIgeDI9IjI1OTcuNSIgeTE9IjM3Ny4zNCIgeTI9IjM3Ny4zNCIvPjx0ZXh0IGZpbGw9IiMwMDAwMDAiIGZvbnQtZmFtaWx5PSJzYW5zLXNlcmlmIiBmb250LXNpemU9IjE0IiBsZW5ndGhBZGp1c3Q9InNwYWNpbmciIHRleHRMZW5ndGg9IjM3IiB4PSIyNDU3LjUiIHk9IjM5NC41NzQ0Ij5ydW4oKTwvdGV4dD48dGV4dCBmaWxsPSIjMDAwMDAwIiBmb250LWZhbWlseT0ic2Fucy1zZXJpZiIgZm9udC1zaXplPSIxNCIgbGVuZ3RoQWRqdXN0PSJzcGFjaW5nIiB0ZXh0TGVuZ3RoPSIxMDAiIHg9IjI0NTcuNSIgeT0iNDA5LjU1ODgiPnVwZGF0ZV9kYWlseSgpPC90ZXh0Pjx0ZXh0IGZpbGw9IiMwMDAwMDAiIGZvbnQtZmFtaWx5PSJzYW5zLXNlcmlmIiBmb250LXNpemU9IjE0IiBsZW5ndGhBZGp1c3Q9InNwYWNpbmciIHRleHRMZW5ndGg9IjEzNSIgeD0iMjQ1Ny41IiB5PSI0MjQuNTQzMSI+bGVhZl9nYXNfZXhjaGFuZ2UoKTwvdGV4dD48cG9seWdvbiBmaWxsPSIjRkZGRjQ0IiBwb2ludHM9IjI0NDguNSw0MzAuMjg1MywyNDUyLjUsNDM0LjI4NTMsMjQ0OC41LDQzOC4yODUzLDI0NDQuNSw0MzQuMjg1MyIgc3R5bGU9InN0cm9rZTojQjM4RDIyO3N0cm9rZS13aWR0aDoxLjA7Ii8+PHRleHQgZmlsbD0iIzAwMDAwMCIgZm9udC1mYW1pbHk9InNhbnMtc2VyaWYiIGZvbnQtc2l6ZT0iMTQiIGxlbmd0aEFkanVzdD0ic3BhY2luZyIgdGV4dExlbmd0aD0iNzIiIHg9IjI0NTcuNSIgeT0iNDM5LjUyNzUiPl9vdXRwdXRzKCk8L3RleHQ+PC9nPjwhLS1jbGFzcyBSb290VXB0YWtlLS0+PGcgaWQ9ImVsZW1fUm9vdFVwdGFrZSI+PHJlY3QgY29kZUxpbmU9IjE1MiIgZmlsbD0iI0YxRjFGMSIgaGVpZ2h0PSI3Ny45Njg4IiBpZD0iUm9vdFVwdGFrZSIgcng9IjIuNSIgcnk9IjIuNSIgc3R5bGU9InN0cm9rZTojMTgxODE4O3N0cm9rZS13aWR0aDowLjU7IiB3aWR0aD0iMTQwIiB4PSIyMjQxIiB5PSIzNTIuMzQiLz48ZWxsaXBzZSBjeD0iMjI3My4xIiBjeT0iMzY4LjM0IiBmaWxsPSIjQUREMUIyIiByeD0iMTEiIHJ5PSIxMSIgc3R5bGU9InN0cm9rZTojMTgxODE4O3N0cm9rZS13aWR0aDoxLjA7Ii8+PHBhdGggZD0iTTIyNzAuNzI1LDM3Mi41OSBMMjI3MC43MjUsMzc0LjM0IEwyMjc1LjY2MjUsMzc0LjM0IEwyMjc1LjY2MjUsMzcyLjU5IEwyMjcwLjcyNSwzNzIuNTkgWiBNMjI3MS40MTI1LDM3My4yNzc1IFEyMjcxLjQxMjUsMzczLjI3NzUgMjI3MS40MTI1LDM2NC4wOSBMMjI2OS42NjI1LDM2NC4wOSBRMjI2OS42NjI1LDM2NC4wOSAyMjY5LjY2MjUsMzczLjI3NzUgTDIyNzEuNDEyNSwzNzMuMjc3NSBaIE0yMjc0Ljk3NSwzNzMuMjc3NSBMMjI3Ni43MjUsMzczLjI3NzUgUTIyNzYuNzI1LDM3My4yNzc1IDIyNzYuNzI1LDM3MC40NjUgTDIyNzQuOTc1LDM3MC40NjUgUTIyNzQuOTc1LDM3MC40NjUgMjI3NC45NzUsMzczLjI3NzUgWiBNMjI3NC45NzUsMzY0LjA5IFEyMjc0Ljk3NSwzNjQuMDkgMjI3NC45NzUsMzY2LjkwMjUgTDIyNzYuNzI1LDM2Ni45MDI1IFEyMjc2LjcyNSwzNjYuOTAyNSAyMjc2LjcyNSwzNjQuMDkgTDIyNzQuOTc1LDM2NC4wOSBaIE0yMjcwLjcyNSwzNjQuNzc3NSBMMjI3NS42NjI1LDM2NC43Nzc1IEwyMjc1LjY2MjUsMzYzLjAyNzUgTDIyNzAuNzI1LDM2My4wMjc1IEwyMjcwLjcyNSwzNjQuNzc3NSBaICIgZmlsbD0iIzAwMDAwMCIvPjx0ZXh0IGZpbGw9IiMwMDAwMDAiIGZvbnQtZmFtaWx5PSJzYW5zLXNlcmlmIiBmb250LXNpemU9IjE0IiBsZW5ndGhBZGp1c3Q9InNwYWNpbmciIHRleHRMZW5ndGg9IjcwIiB4PSIyMjkwLjkiIHk9IjM3NC4wODIyIj5Sb290VXB0YWtlPC90ZXh0PjxsaW5lIHN0eWxlPSJzdHJva2U6IzE4MTgxODtzdHJva2Utd2lkdGg6MC41OyIgeDE9IjIyNDIiIHgyPSIyMzgwIiB5MT0iMzg0LjM0IiB5Mj0iMzg0LjM0Ii8+PGxpbmUgc3R5bGU9InN0cm9rZTojMTgxODE4O3N0cm9rZS13aWR0aDowLjU7IiB4MT0iMjI0MiIgeDI9IjIzODAiIHkxPSIzOTIuMzQiIHkyPSIzOTIuMzQiLz48dGV4dCBmaWxsPSIjMDAwMDAwIiBmb250LWZhbWlseT0ic2Fucy1zZXJpZiIgZm9udC1zaXplPSIxNCIgbGVuZ3RoQWRqdXN0PSJzcGFjaW5nIiB0ZXh0TGVuZ3RoPSI5NCIgeD0iMjI0NyIgeT0iNDA5LjU3NDQiPndhdGVydXB0YWtlKCk8L3RleHQ+PHRleHQgZmlsbD0iIzAwMDAwMCIgZm9udC1mYW1pbHk9InNhbnMtc2VyaWYiIGZvbnQtc2l6ZT0iMTQiIGxlbmd0aEFkanVzdD0ic3BhY2luZyIgdGV4dExlbmd0aD0iMTI4IiB4PSIyMjQ3IiB5PSI0MjQuNTU4OCI+Um9vdERpc3RyaWJ1dGlvbigpPC90ZXh0PjwvZz48IS0tZW50aXR5IHBhcmFsbGVsQVBFUy0tPjxnIGlkPSJlbGVtX3BhcmFsbGVsQVBFUyI+PHJlY3QgZmlsbD0iI0YxRjFGMSIgaGVpZ2h0PSI0NC45ODQ0IiByeD0iMi41IiByeT0iMi41IiBzdHlsZT0ic3Ryb2tlOiMxODE4MTg7c3Ryb2tlLXdpZHRoOjAuNTsiIHdpZHRoPSIxMjQiIHg9IjE5MSIgeT0iMzY4Ljg0Ii8+PHJlY3QgZmlsbD0iI0YxRjFGMSIgaGVpZ2h0PSIxMCIgc3R5bGU9InN0cm9rZTojMTgxODE4O3N0cm9rZS13aWR0aDowLjU7IiB3aWR0aD0iMTUiIHg9IjI5NSIgeT0iMzczLjg0Ii8+PHJlY3QgZmlsbD0iI0YxRjFGMSIgaGVpZ2h0PSIyIiBzdHlsZT0ic3Ryb2tlOiMxODE4MTg7c3Ryb2tlLXdpZHRoOjAuNTsiIHdpZHRoPSI0IiB4PSIyOTMiIHk9IjM3NS44NCIvPjxyZWN0IGZpbGw9IiNGMUYxRjEiIGhlaWdodD0iMiIgc3R5bGU9InN0cm9rZTojMTgxODE4O3N0cm9rZS13aWR0aDowLjU7IiB3aWR0aD0iNCIgeD0iMjkzIiB5PSIzNzkuODQiLz48dGV4dCBmaWxsPSIjMDAwMDAwIiBmb250LWZhbWlseT0ic2Fucy1zZXJpZiIgZm9udC1zaXplPSIxNCIgbGVuZ3RoQWRqdXN0PSJzcGFjaW5nIiB0ZXh0TGVuZ3RoPSI4NCIgeD0iMjA2IiB5PSI0MDIuMDc0NCI+cGFyYWxsZWxBUEVTPC90ZXh0PjwvZz48IS0tZW50aXR5IHB5QVBFU19NTE0tLT48ZyBpZD0iZWxlbV9weUFQRVNfTUxNIj48cmVjdCBmaWxsPSIjRjFGMUYxIiBoZWlnaHQ9IjQ0Ljk4NDQiIHJ4PSIyLjUiIHJ5PSIyLjUiIHN0eWxlPSJzdHJva2U6IzE4MTgxODtzdHJva2Utd2lkdGg6MC41OyIgd2lkdGg9IjExMCIgeD0iNDYiIHk9IjM2OC44NCIvPjxyZWN0IGZpbGw9IiNGMUYxRjEiIGhlaWdodD0iMTAiIHN0eWxlPSJzdHJva2U6IzE4MTgxODtzdHJva2Utd2lkdGg6MC41OyIgd2lkdGg9IjE1IiB4PSIxMzYiIHk9IjM3My44NCIvPjxyZWN0IGZpbGw9IiNGMUYxRjEiIGhlaWdodD0iMiIgc3R5bGU9InN0cm9rZTojMTgxODE4O3N0cm9rZS13aWR0aDowLjU7IiB3aWR0aD0iNCIgeD0iMTM0IiB5PSIzNzUuODQiLz48cmVjdCBmaWxsPSIjRjFGMUYxIiBoZWlnaHQ9IjIiIHN0eWxlPSJzdHJva2U6IzE4MTgxODtzdHJva2Utd2lkdGg6MC41OyIgd2lkdGg9IjQiIHg9IjEzNCIgeT0iMzc5Ljg0Ii8+PHRleHQgZmlsbD0iIzAwMDAwMCIgZm9udC1mYW1pbHk9InNhbnMtc2VyaWYiIGZvbnQtc2l6ZT0iMTQiIGxlbmd0aEFkanVzdD0ic3BhY2luZyIgdGV4dExlbmd0aD0iNzAiIHg9IjYxIiB5PSI0MDIuMDc0NCI+cHlBUEVTX01MTTwvdGV4dD48L2c+PCEtLWNsYXNzIERlZ3JlZURheVNub3ctLT48ZyBpZD0iZWxlbV9EZWdyZWVEYXlTbm93Ij48cmVjdCBjb2RlTGluZT0iMTYzIiBmaWxsPSIjRjFGMUYxIiBoZWlnaHQ9Ijc3Ljk2ODgiIGlkPSJEZWdyZWVEYXlTbm93IiByeD0iMi41IiByeT0iMi41IiBzdHlsZT0ic3Ryb2tlOiMxODE4MTg7c3Ryb2tlLXdpZHRoOjAuNTsiIHdpZHRoPSIxMjQiIHg9IjE5MDYiIHk9IjM1Mi4zNCIvPjxlbGxpcHNlIGN4PSIxOTIxIiBjeT0iMzY4LjM0IiBmaWxsPSIjQUREMUIyIiByeD0iMTEiIHJ5PSIxMSIgc3R5bGU9InN0cm9rZTojMTgxODE4O3N0cm9rZS13aWR0aDoxLjA7Ii8+PHBhdGggZD0iTTE5MTguNjI1LDM3Mi41OSBMMTkxOC42MjUsMzc0LjM0IEwxOTIzLjU2MjUsMzc0LjM0IEwxOTIzLjU2MjUsMzcyLjU5IEwxOTE4LjYyNSwzNzIuNTkgWiBNMTkxOS4zMTI1LDM3My4yNzc1IFExOTE5LjMxMjUsMzczLjI3NzUgMTkxOS4zMTI1LDM2NC4wOSBMMTkxNy41NjI1LDM2NC4wOSBRMTkxNy41NjI1LDM2NC4wOSAxOTE3LjU2MjUsMzczLjI3NzUgTDE5MTkuMzEyNSwzNzMuMjc3NSBaIE0xOTIyLjg3NSwzNzMuMjc3NSBMMTkyNC42MjUsMzczLjI3NzUgUTE5MjQuNjI1LDM3My4yNzc1IDE5MjQuNjI1LDM3MC40NjUgTDE5MjIuODc1LDM3MC40NjUgUTE5MjIuODc1LDM3MC40NjUgMTkyMi44NzUsMzczLjI3NzUgWiBNMTkyMi44NzUsMzY0LjA5IFExOTIyLjg3NSwzNjQuMDkgMTkyMi44NzUsMzY2LjkwMjUgTDE5MjQuNjI1LDM2Ni45MDI1IFExOTI0LjYyNSwzNjYuOTAyNSAxOTI0LjYyNSwzNjQuMDkgTDE5MjIuODc1LDM2NC4wOSBaIE0xOTE4LjYyNSwzNjQuNzc3NSBMMTkyMy41NjI1LDM2NC43Nzc1IEwxOTIzLjU2MjUsMzYzLjAyNzUgTDE5MTguNjI1LDM2My4wMjc1IEwxOTE4LjYyNSwzNjQuNzc3NSBaICIgZmlsbD0iIzAwMDAwMCIvPjx0ZXh0IGZpbGw9IiMwMDAwMDAiIGZvbnQtZmFtaWx5PSJzYW5zLXNlcmlmIiBmb250LXNpemU9IjE0IiBsZW5ndGhBZGp1c3Q9InNwYWNpbmciIHRleHRMZW5ndGg9IjkyIiB4PSIxOTM1IiB5PSIzNzQuMDgyMiI+RGVncmVlRGF5U25vdzwvdGV4dD48bGluZSBzdHlsZT0ic3Ryb2tlOiMxODE4MTg7c3Ryb2tlLXdpZHRoOjAuNTsiIHgxPSIxOTA3IiB4Mj0iMjAyOSIgeTE9IjM4NC4zNCIgeTI9IjM4NC4zNCIvPjxsaW5lIHN0eWxlPSJzdHJva2U6IzE4MTgxODtzdHJva2Utd2lkdGg6MC41OyIgeDE9IjE5MDciIHgyPSIyMDI5IiB5MT0iMzkyLjM0IiB5Mj0iMzkyLjM0Ii8+PHRleHQgZmlsbD0iIzAwMDAwMCIgZm9udC1mYW1pbHk9InNhbnMtc2VyaWYiIGZvbnQtc2l6ZT0iMTQiIGxlbmd0aEFkanVzdD0ic3BhY2luZyIgdGV4dExlbmd0aD0iNTgiIHg9IjE5MTIiIHk9IjQwOS41NzQ0Ij51cGRhdGUoKTwvdGV4dD48dGV4dCBmaWxsPSIjMDAwMDAwIiBmb250LWZhbWlseT0ic2Fucy1zZXJpZiIgZm9udC1zaXplPSIxNCIgbGVuZ3RoQWRqdXN0PSJzcGFjaW5nIiB0ZXh0TGVuZ3RoPSIzNyIgeD0iMTkxMiIgeT0iNDI0LjU1ODgiPnJ1bigpPC90ZXh0PjwvZz48IS0tY2xhc3MgU29pbF8xRC0tPjxnIGlkPSJlbGVtX1NvaWxfMUQiPjxyZWN0IGNvZGVMaW5lPSIxNzAiIGZpbGw9IiNGMUYxRjEiIGhlaWdodD0iOTIuOTUzMSIgaWQ9IlNvaWxfMUQiIHJ4PSIyLjUiIHJ5PSIyLjUiIHN0eWxlPSJzdHJva2U6IzE4MTgxODtzdHJva2Utd2lkdGg6MC41OyIgd2lkdGg9IjEyNyIgeD0iMTY5OC41IiB5PSIzNDQuODQiLz48ZWxsaXBzZSBjeD0iMTczNC4yIiBjeT0iMzYwLjg0IiBmaWxsPSIjQUREMUIyIiByeD0iMTEiIHJ5PSIxMSIgc3R5bGU9InN0cm9rZTojMTgxODE4O3N0cm9rZS13aWR0aDoxLjA7Ii8+PHBhdGggZD0iTTE3MzEuODI1LDM2NS4wOSBMMTczMS44MjUsMzY2Ljg0IEwxNzM2Ljc2MjUsMzY2Ljg0IEwxNzM2Ljc2MjUsMzY1LjA5IEwxNzMxLjgyNSwzNjUuMDkgWiBNMTczMi41MTI1LDM2NS43Nzc1IFExNzMyLjUxMjUsMzY1Ljc3NzUgMTczMi41MTI1LDM1Ni41OSBMMTczMC43NjI1LDM1Ni41OSBRMTczMC43NjI1LDM1Ni41OSAxNzMwLjc2MjUsMzY1Ljc3NzUgTDE3MzIuNTEyNSwzNjUuNzc3NSBaIE0xNzM2LjA3NSwzNjUuNzc3NSBMMTczNy44MjUsMzY1Ljc3NzUgUTE3MzcuODI1LDM2NS43Nzc1IDE3MzcuODI1LDM2Mi45NjUgTDE3MzYuMDc1LDM2Mi45NjUgUTE3MzYuMDc1LDM2Mi45NjUgMTczNi4wNzUsMzY1Ljc3NzUgWiBNMTczNi4wNzUsMzU2LjU5IFExNzM2LjA3NSwzNTYuNTkgMTczNi4wNzUsMzU5LjQwMjUgTDE3MzcuODI1LDM1OS40MDI1IFExNzM3LjgyNSwzNTkuNDAyNSAxNzM3LjgyNSwzNTYuNTkgTDE3MzYuMDc1LDM1Ni41OSBaIE0xNzMxLjgyNSwzNTcuMjc3NSBMMTczNi43NjI1LDM1Ny4yNzc1IEwxNzM2Ljc2MjUsMzU1LjUyNzUgTDE3MzEuODI1LDM1NS41Mjc1IEwxNzMxLjgyNSwzNTcuMjc3NSBaICIgZmlsbD0iIzAwMDAwMCIvPjx0ZXh0IGZpbGw9IiMwMDAwMDAiIGZvbnQtZmFtaWx5PSJzYW5zLXNlcmlmIiBmb250LXNpemU9IjE0IiBsZW5ndGhBZGp1c3Q9InNwYWNpbmciIHRleHRMZW5ndGg9IjQ5IiB4PSIxNzUyLjgiIHk9IjM2Ni41ODIyIj5Tb2lsXzFEPC90ZXh0PjxsaW5lIHN0eWxlPSJzdHJva2U6IzE4MTgxODtzdHJva2Utd2lkdGg6MC41OyIgeDE9IjE2OTkuNSIgeDI9IjE4MjQuNSIgeTE9IjM3Ni44NCIgeTI9IjM3Ni44NCIvPjxsaW5lIHN0eWxlPSJzdHJva2U6IzE4MTgxODtzdHJva2Utd2lkdGg6MC41OyIgeDE9IjE2OTkuNSIgeDI9IjE4MjQuNSIgeTE9IjM4NC44NCIgeTI9IjM4NC44NCIvPjx0ZXh0IGZpbGw9IiMwMDAwMDAiIGZvbnQtZmFtaWx5PSJzYW5zLXNlcmlmIiBmb250LXNpemU9IjE0IiBsZW5ndGhBZGp1c3Q9InNwYWNpbmciIHRleHRMZW5ndGg9IjM3IiB4PSIxNzE4LjUiIHk9IjQwMi4wNzQ0Ij5ydW4oKTwvdGV4dD48cG9seWdvbiBmaWxsPSIjRkZGRjQ0IiBwb2ludHM9IjE3MDkuNSw0MDcuODE2NiwxNzEzLjUsNDExLjgxNjYsMTcwOS41LDQxNS44MTY2LDE3MDUuNSw0MTEuODE2NiIgc3R5bGU9InN0cm9rZTojQjM4RDIyO3N0cm9rZS13aWR0aDoxLjA7Ii8+PHRleHQgZmlsbD0iIzAwMDAwMCIgZm9udC1mYW1pbHk9InNhbnMtc2VyaWYiIGZvbnQtc2l6ZT0iMTQiIGxlbmd0aEFkanVzdD0ic3BhY2luZyIgdGV4dExlbmd0aD0iNTEiIHg9IjE3MTguNSIgeT0iNDE3LjA1ODgiPl9maWxsKCk8L3RleHQ+PHRleHQgZmlsbD0iIzAwMDAwMCIgZm9udC1mYW1pbHk9InNhbnMtc2VyaWYiIGZvbnQtc2l6ZT0iMTQiIGxlbmd0aEFkanVzdD0ic3BhY2luZyIgdGV4dExlbmd0aD0iMTAxIiB4PSIxNzE4LjUiIHk9IjQzMi4wNDMxIj5mb3JtX3Byb2ZpbGUoKTwvdGV4dD48L2c+PCEtLWNsYXNzIEhlYXRfMUQtLT48ZyBpZD0iZWxlbV9IZWF0XzFEIj48cmVjdCBjb2RlTGluZT0iMTc3IiBmaWxsPSIjRjFGMUYxIiBoZWlnaHQ9IjE4Mi44NTk0IiBpZD0iSGVhdF8xRCIgcng9IjIuNSIgcnk9IjIuNSIgc3R5bGU9InN0cm9rZTojMTgxODE4O3N0cm9rZS13aWR0aDowLjU7IiB3aWR0aD0iMjM5IiB4PSIxNDAzLjUiIHk9IjI5OS44NCIvPjxlbGxpcHNlIGN4PSIxNDk0LjI1IiBjeT0iMzE1Ljg0IiBmaWxsPSIjQUREMUIyIiByeD0iMTEiIHJ5PSIxMSIgc3R5bGU9InN0cm9rZTojMTgxODE4O3N0cm9rZS13aWR0aDoxLjA7Ii8+PHBhdGggZD0iTTE0OTEuODc1LDMyMC4wOSBMMTQ5MS44NzUsMzIxLjg0IEwxNDk2LjgxMjUsMzIxLjg0IEwxNDk2LjgxMjUsMzIwLjA5IEwxNDkxLjg3NSwzMjAuMDkgWiBNMTQ5Mi41NjI1LDMyMC43Nzc1IFExNDkyLjU2MjUsMzIwLjc3NzUgMTQ5Mi41NjI1LDMxMS41OSBMMTQ5MC44MTI1LDMxMS41OSBRMTQ5MC44MTI1LDMxMS41OSAxNDkwLjgxMjUsMzIwLjc3NzUgTDE0OTIuNTYyNSwzMjAuNzc3NSBaIE0xNDk2LjEyNSwzMjAuNzc3NSBMMTQ5Ny44NzUsMzIwLjc3NzUgUTE0OTcuODc1LDMyMC43Nzc1IDE0OTcuODc1LDMxNy45NjUgTDE0OTYuMTI1LDMxNy45NjUgUTE0OTYuMTI1LDMxNy45NjUgMTQ5Ni4xMjUsMzIwLjc3NzUgWiBNMTQ5Ni4xMjUsMzExLjU5IFExNDk2LjEyNSwzMTEuNTkgMTQ5Ni4xMjUsMzE0LjQwMjUgTDE0OTcuODc1LDMxNC40MDI1IFExNDk3Ljg3NSwzMTQuNDAyNSAxNDk3Ljg3NSwzMTEuNTkgTDE0OTYuMTI1LDMxMS41OSBaIE0xNDkxLjg3NSwzMTIuMjc3NSBMMTQ5Ni44MTI1LDMxMi4yNzc1IEwxNDk2LjgxMjUsMzEwLjUyNzUgTDE0OTEuODc1LDMxMC41Mjc1IEwxNDkxLjg3NSwzMTIuMjc3NSBaICIgZmlsbD0iIzAwMDAwMCIvPjx0ZXh0IGZpbGw9IiMwMDAwMDAiIGZvbnQtZmFtaWx5PSJzYW5zLXNlcmlmIiBmb250LXNpemU9IjE0IiBsZW5ndGhBZGp1c3Q9InNwYWNpbmciIHRleHRMZW5ndGg9IjQ5IiB4PSIxNTE0Ljc1IiB5PSIzMjEuNTgyMiI+SGVhdF8xRDwvdGV4dD48bGluZSBzdHlsZT0ic3Ryb2tlOiMxODE4MTg7c3Ryb2tlLXdpZHRoOjAuNTsiIHgxPSIxNDA0LjUiIHgyPSIxNjQxLjUiIHkxPSIzMzEuODQiIHkyPSIzMzEuODQiLz48bGluZSBzdHlsZT0ic3Ryb2tlOiMxODE4MTg7c3Ryb2tlLXdpZHRoOjAuNTsiIHgxPSIxNDA0LjUiIHgyPSIxNjQxLjUiIHkxPSIzMzkuODQiIHkyPSIzMzkuODQiLz48dGV4dCBmaWxsPSIjMDAwMDAwIiBmb250LWZhbWlseT0ic2Fucy1zZXJpZiIgZm9udC1zaXplPSIxNCIgbGVuZ3RoQWRqdXN0PSJzcGFjaW5nIiB0ZXh0TGVuZ3RoPSIzNyIgeD0iMTQwOS41IiB5PSIzNTcuMDc0NCI+cnVuKCk8L3RleHQ+PHRleHQgZmlsbD0iIzAwMDAwMCIgZm9udC1mYW1pbHk9InNhbnMtc2VyaWYiIGZvbnQtc2l6ZT0iMTQiIGxlbmd0aEFkanVzdD0ic3BhY2luZyIgdGV4dExlbmd0aD0iMTAwIiB4PSIxNDA5LjUiIHk9IjM3Mi4wNTg4Ij51cGRhdGVfc3RhdGUoKTwvdGV4dD48dGV4dCBmaWxsPSIjMDAwMDAwIiBmb250LWZhbWlseT0ic2Fucy1zZXJpZiIgZm9udC1zaXplPSIxNCIgbGVuZ3RoQWRqdXN0PSJzcGFjaW5nIiB0ZXh0TGVuZ3RoPSI4NyIgeD0iMTQwOS41IiB5PSIzODcuMDQzMSI+aGVhdGZsb3cxRCgpPC90ZXh0Pjx0ZXh0IGZpbGw9IiMwMDAwMDAiIGZvbnQtZmFtaWx5PSJzYW5zLXNlcmlmIiBmb250LXNpemU9IjE0IiBsZW5ndGhBZGp1c3Q9InNwYWNpbmciIHRleHRMZW5ndGg9IjEwMCIgeD0iMTQwOS41IiB5PSI0MDIuMDI3NSI+aGVhdF9jb250ZW50KCk8L3RleHQ+PHRleHQgZmlsbD0iIzAwMDAwMCIgZm9udC1mYW1pbHk9InNhbnMtc2VyaWYiIGZvbnQtc2l6ZT0iMTQiIGxlbmd0aEFkanVzdD0ic3BhY2luZyIgdGV4dExlbmd0aD0iMTAwIiB4PSIxNDA5LjUiIHk9IjQxNy4wMTE5Ij5oZWF0X2JhbGFuY2UoKTwvdGV4dD48dGV4dCBmaWxsPSIjMDAwMDAwIiBmb250LWZhbWlseT0ic2Fucy1zZXJpZiIgZm9udC1zaXplPSIxNCIgbGVuZ3RoQWRqdXN0PSJzcGFjaW5nIiB0ZXh0TGVuZ3RoPSIxMDEiIHg9IjE0MDkuNSIgeT0iNDMxLjk5NjMiPmZyb3plbl93YXRlcigpPC90ZXh0Pjx0ZXh0IGZpbGw9IiMwMDAwMDAiIGZvbnQtZmFtaWx5PSJzYW5zLXNlcmlmIiBmb250LXNpemU9IjE0IiBsZW5ndGhBZGp1c3Q9InNwYWNpbmciIHRleHRMZW5ndGg9IjIyNyIgeD0iMTQwOS41IiB5PSI0NDYuOTgwNiI+c29saWRfdm9sdW1ldHJpY19oZWF0X2NhcGFjaXR5KCk8L3RleHQ+PHRleHQgZmlsbD0iIzAwMDAwMCIgZm9udC1mYW1pbHk9InNhbnMtc2VyaWYiIGZvbnQtc2l6ZT0iMTQiIGxlbmd0aEFkanVzdD0ic3BhY2luZyIgdGV4dExlbmd0aD0iMTg1IiB4PSIxNDA5LjUiIHk9IjQ2MS45NjUiPnZvbHVtZXRyaWNfaGVhdF9jYXBhY2l0eSgpPC90ZXh0Pjx0ZXh0IGZpbGw9IiMwMDAwMDAiIGZvbnQtZmFtaWx5PSJzYW5zLXNlcmlmIiBmb250LXNpemU9IjE0IiBsZW5ndGhBZGp1c3Q9InNwYWNpbmciIHRleHRMZW5ndGg9IjE1NyIgeD0iMTQwOS41IiB5PSI0NzYuOTQ5NCI+dGhlcm1hbF9jb25kdWN0aXZpdHkoKTwvdGV4dD48L2c+PCEtLWNsYXNzIFdhdGVyXzFELS0+PGcgaWQ9ImVsZW1fV2F0ZXJfMUQiPjxyZWN0IGNvZGVMaW5lPSIxOTAiIGZpbGw9IiNGMUYxRjEiIGhlaWdodD0iNzcuOTY4OCIgaWQ9IldhdGVyXzFEIiByeD0iMi41IiByeT0iMi41IiBzdHlsZT0ic3Ryb2tlOiMxODE4MTg7c3Ryb2tlLXdpZHRoOjAuNTsiIHdpZHRoPSIxMTIiIHg9IjEyMzYiIHk9IjM1Mi4zNCIvPjxlbGxpcHNlIGN4PSIxMjYxLjgiIGN5PSIzNjguMzQiIGZpbGw9IiNBREQxQjIiIHJ4PSIxMSIgcnk9IjExIiBzdHlsZT0ic3Ryb2tlOiMxODE4MTg7c3Ryb2tlLXdpZHRoOjEuMDsiLz48cGF0aCBkPSJNMTI1OS40MjUsMzcyLjU5IEwxMjU5LjQyNSwzNzQuMzQgTDEyNjQuMzYyNSwzNzQuMzQgTDEyNjQuMzYyNSwzNzIuNTkgTDEyNTkuNDI1LDM3Mi41OSBaIE0xMjYwLjExMjUsMzczLjI3NzUgUTEyNjAuMTEyNSwzNzMuMjc3NSAxMjYwLjExMjUsMzY0LjA5IEwxMjU4LjM2MjUsMzY0LjA5IFExMjU4LjM2MjUsMzY0LjA5IDEyNTguMzYyNSwzNzMuMjc3NSBMMTI2MC4xMTI1LDM3My4yNzc1IFogTTEyNjMuNjc1LDM3My4yNzc1IEwxMjY1LjQyNSwzNzMuMjc3NSBRMTI2NS40MjUsMzczLjI3NzUgMTI2NS40MjUsMzcwLjQ2NSBMMTI2My42NzUsMzcwLjQ2NSBRMTI2My42NzUsMzcwLjQ2NSAxMjYzLjY3NSwzNzMuMjc3NSBaIE0xMjYzLjY3NSwzNjQuMDkgUTEyNjMuNjc1LDM2NC4wOSAxMjYzLjY3NSwzNjYuOTAyNSBMMTI2NS40MjUsMzY2LjkwMjUgUTEyNjUuNDI1LDM2Ni45MDI1IDEyNjUuNDI1LDM2NC4wOSBMMTI2My42NzUsMzY0LjA5IFogTTEyNTkuNDI1LDM2NC43Nzc1IEwxMjY0LjM2MjUsMzY0Ljc3NzUgTDEyNjQuMzYyNSwzNjMuMDI3NSBMMTI1OS40MjUsMzYzLjAyNzUgTDEyNTkuNDI1LDM2NC43Nzc1IFogIiBmaWxsPSIjMDAwMDAwIi8+PHRleHQgZmlsbD0iIzAwMDAwMCIgZm9udC1mYW1pbHk9InNhbnMtc2VyaWYiIGZvbnQtc2l6ZT0iMTQiIGxlbmd0aEFkanVzdD0ic3BhY2luZyIgdGV4dExlbmd0aD0iNTYiIHg9IjEyNzguMiIgeT0iMzc0LjA4MjIiPldhdGVyXzFEPC90ZXh0PjxsaW5lIHN0eWxlPSJzdHJva2U6IzE4MTgxODtzdHJva2Utd2lkdGg6MC41OyIgeDE9IjEyMzciIHgyPSIxMzQ3IiB5MT0iMzg0LjM0IiB5Mj0iMzg0LjM0Ii8+PGxpbmUgc3R5bGU9InN0cm9rZTojMTgxODE4O3N0cm9rZS13aWR0aDowLjU7IiB4MT0iMTIzNyIgeDI9IjEzNDciIHkxPSIzOTIuMzQiIHkyPSIzOTIuMzQiLz48dGV4dCBmaWxsPSIjMDAwMDAwIiBmb250LWZhbWlseT0ic2Fucy1zZXJpZiIgZm9udC1zaXplPSIxNCIgbGVuZ3RoQWRqdXN0PSJzcGFjaW5nIiB0ZXh0TGVuZ3RoPSIzNyIgeD0iMTI0MiIgeT0iNDA5LjU3NDQiPnJ1bigpPC90ZXh0Pjx0ZXh0IGZpbGw9IiMwMDAwMDAiIGZvbnQtZmFtaWx5PSJzYW5zLXNlcmlmIiBmb250LXNpemU9IjE0IiBsZW5ndGhBZGp1c3Q9InNwYWNpbmciIHRleHRMZW5ndGg9IjEwMCIgeD0iMTI0MiIgeT0iNDI0LjU1ODgiPnVwZGF0ZV9zdGF0ZSgpPC90ZXh0PjwvZz48IS0tY2xhc3MgV2F0ZXJCdWNrZXQtLT48ZyBpZD0iZWxlbV9XYXRlckJ1Y2tldCI+PHJlY3QgY29kZUxpbmU9IjE5NCIgZmlsbD0iI0YxRjFGMSIgaGVpZ2h0PSIzMDIuNzM0NCIgaWQ9IldhdGVyQnVja2V0IiByeD0iMi41IiByeT0iMi41IiBzdHlsZT0ic3Ryb2tlOiMxODE4MTg7c3Ryb2tlLXdpZHRoOjAuNTsiIHdpZHRoPSIxODIiIHg9IjEwMTkiIHk9IjIzOS44NCIvPjxlbGxpcHNlIGN4PSIxMDY3LjI1IiBjeT0iMjU1Ljg0IiBmaWxsPSIjQUREMUIyIiByeD0iMTEiIHJ5PSIxMSIgc3R5bGU9InN0cm9rZTojMTgxODE4O3N0cm9rZS13aWR0aDoxLjA7Ii8+PHBhdGggZD0iTTEwNjQuODc1LDI2MC4wOSBMMTA2NC44NzUsMjYxLjg0IEwxMDY5LjgxMjUsMjYxLjg0IEwxMDY5LjgxMjUsMjYwLjA5IEwxMDY0Ljg3NSwyNjAuMDkgWiBNMTA2NS41NjI1LDI2MC43Nzc1IFExMDY1LjU2MjUsMjYwLjc3NzUgMTA2NS41NjI1LDI1MS41OSBMMTA2My44MTI1LDI1MS41OSBRMTA2My44MTI1LDI1MS41OSAxMDYzLjgxMjUsMjYwLjc3NzUgTDEwNjUuNTYyNSwyNjAuNzc3NSBaIE0xMDY5LjEyNSwyNjAuNzc3NSBMMTA3MC44NzUsMjYwLjc3NzUgUTEwNzAuODc1LDI2MC43Nzc1IDEwNzAuODc1LDI1Ny45NjUgTDEwNjkuMTI1LDI1Ny45NjUgUTEwNjkuMTI1LDI1Ny45NjUgMTA2OS4xMjUsMjYwLjc3NzUgWiBNMTA2OS4xMjUsMjUxLjU5IFExMDY5LjEyNSwyNTEuNTkgMTA2OS4xMjUsMjU0LjQwMjUgTDEwNzAuODc1LDI1NC40MDI1IFExMDcwLjg3NSwyNTQuNDAyNSAxMDcwLjg3NSwyNTEuNTkgTDEwNjkuMTI1LDI1MS41OSBaIE0xMDY0Ljg3NSwyNTIuMjc3NSBMMTA2OS44MTI1LDI1Mi4yNzc1IEwxMDY5LjgxMjUsMjUwLjUyNzUgTDEwNjQuODc1LDI1MC41Mjc1IEwxMDY0Ljg3NSwyNTIuMjc3NSBaICIgZmlsbD0iIzAwMDAwMCIvPjx0ZXh0IGZpbGw9IiMwMDAwMDAiIGZvbnQtZmFtaWx5PSJzYW5zLXNlcmlmIiBmb250LXNpemU9IjE0IiBsZW5ndGhBZGp1c3Q9InNwYWNpbmciIHRleHRMZW5ndGg9Ijc3IiB4PSIxMDg3Ljc1IiB5PSIyNjEuNTgyMiI+V2F0ZXJCdWNrZXQ8L3RleHQ+PGxpbmUgc3R5bGU9InN0cm9rZTojMTgxODE4O3N0cm9rZS13aWR0aDowLjU7IiB4MT0iMTAyMCIgeDI9IjEyMDAiIHkxPSIyNzEuODQiIHkyPSIyNzEuODQiLz48bGluZSBzdHlsZT0ic3Ryb2tlOiMxODE4MTg7c3Ryb2tlLXdpZHRoOjAuNTsiIHgxPSIxMDIwIiB4Mj0iMTIwMCIgeTE9IjI3OS44NCIgeTI9IjI3OS44NCIvPjx0ZXh0IGZpbGw9IiMwMDAwMDAiIGZvbnQtZmFtaWx5PSJzYW5zLXNlcmlmIiBmb250LXNpemU9IjE0IiBsZW5ndGhBZGp1c3Q9InNwYWNpbmciIHRleHRMZW5ndGg9IjEwMCIgeD0iMTAyNSIgeT0iMjk3LjA3NDQiPnVwZGF0ZV9zdGF0ZSgpPC90ZXh0Pjx0ZXh0IGZpbGw9IiMwMDAwMDAiIGZvbnQtZmFtaWx5PSJzYW5zLXNlcmlmIiBmb250LXNpemU9IjE0IiBsZW5ndGhBZGp1c3Q9InNwYWNpbmciIHRleHRMZW5ndGg9IjM3IiB4PSIxMDI1IiB5PSIzMTIuMDU4OCI+cnVuKCk8L3RleHQ+PHRleHQgZmlsbD0iIzAwMDAwMCIgZm9udC1mYW1pbHk9InNhbnMtc2VyaWYiIGZvbnQtc2l6ZT0iMTQiIGxlbmd0aEFkanVzdD0ic3BhY2luZyIgdGV4dExlbmd0aD0iOTUiIHg9IjEwMjUiIHk9IjMyNy4wNDMxIj53YXRlckZsb3cxRCgpPC90ZXh0Pjx0ZXh0IGZpbGw9IiMwMDAwMDAiIGZvbnQtZmFtaWx5PSJzYW5zLXNlcmlmIiBmb250LXNpemU9IjE0IiBsZW5ndGhBZGp1c3Q9InNwYWNpbmciIHRleHRMZW5ndGg9IjExNSIgeD0iMTAyNSIgeT0iMzQyLjAyNzUiPndhdGVyU3RvcmFnZTFEKCk8L3RleHQ+PHRleHQgZmlsbD0iIzAwMDAwMCIgZm9udC1mYW1pbHk9InNhbnMtc2VyaWYiIGZvbnQtc2l6ZT0iMTQiIGxlbmd0aEFkanVzdD0ic3BhY2luZyIgdGV4dExlbmd0aD0iMTM1IiB4PSIxMDI1IiB5PSIzNTcuMDExOSI+ZHJhaW5hZ2VfaG9vZ2hvdWQoKTwvdGV4dD48dGV4dCBmaWxsPSIjMDAwMDAwIiBmb250LWZhbWlseT0ic2Fucy1zZXJpZiIgZm9udC1zaXplPSIxNCIgbGVuZ3RoQWRqdXN0PSJzcGFjaW5nIiB0ZXh0TGVuZ3RoPSI3OSIgeD0iMTAyNSIgeT0iMzcxLjk5NjMiPnRoZXRhX3BzaSgpPC90ZXh0Pjx0ZXh0IGZpbGw9IiMwMDAwMDAiIGZvbnQtZmFtaWx5PSJzYW5zLXNlcmlmIiBmb250LXNpemU9IjE0IiBsZW5ndGhBZGp1c3Q9InNwYWNpbmciIHRleHRMZW5ndGg9Ijc5IiB4PSIxMDI1IiB5PSIzODYuOTgwNiI+cHNpX3RoZXRhKCk8L3RleHQ+PHRleHQgZmlsbD0iIzAwMDAwMCIgZm9udC1mYW1pbHk9InNhbnMtc2VyaWYiIGZvbnQtc2l6ZT0iMTQiIGxlbmd0aEFkanVzdD0ic3BhY2luZyIgdGV4dExlbmd0aD0iMTE1IiB4PSIxMDI1IiB5PSI0MDEuOTY1Ij5oX3RvX2NlbGxtb2lzdCgpPC90ZXh0Pjx0ZXh0IGZpbGw9IiMwMDAwMDAiIGZvbnQtZmFtaWx5PSJzYW5zLXNlcmlmIiBmb250LXNpemU9IjE0IiBsZW5ndGhBZGp1c3Q9InNwYWNpbmciIHRleHRMZW5ndGg9Ijg3IiB4PSIxMDI1IiB5PSI0MTYuOTQ5NCI+ZGlmZl93Y2FwYSgpPC90ZXh0Pjx0ZXh0IGZpbGw9IiMwMDAwMDAiIGZvbnQtZmFtaWx5PSJzYW5zLXNlcmlmIiBmb250LXNpemU9IjE0IiBsZW5ndGhBZGp1c3Q9InNwYWNpbmciIHRleHRMZW5ndGg9IjE3MCIgeD0iMTAyNSIgeT0iNDMxLjkzMzgiPmh5ZHJhdWxpY19jb25kdWN0aXZpdHkoKTwvdGV4dD48dGV4dCBmaWxsPSIjMDAwMDAwIiBmb250LWZhbWlseT0ic2Fucy1zZXJpZiIgZm9udC1zaXplPSIxNCIgbGVuZ3RoQWRqdXN0PSJzcGFjaW5nIiB0ZXh0TGVuZ3RoPSI2NSIgeD0iMTAyNSIgeT0iNDQ2LjkxODEiPnJlbGNvbmQoKTwvdGV4dD48dGV4dCBmaWxsPSIjMDAwMDAwIiBmb250LWZhbWlseT0ic2Fucy1zZXJpZiIgZm9udC1zaXplPSIxNCIgbGVuZ3RoQWRqdXN0PSJzcGFjaW5nIiB0ZXh0TGVuZ3RoPSI3MyIgeD0iMTAyNSIgeT0iNDYxLjkwMjUiPmd3bF9Xc3RvKCk8L3RleHQ+PHRleHQgZmlsbD0iIzAwMDAwMCIgZm9udC1mYW1pbHk9InNhbnMtc2VyaWYiIGZvbnQtc2l6ZT0iMTQiIGxlbmd0aEFkanVzdD0ic3BhY2luZyIgdGV4dExlbmd0aD0iNjYiIHg9IjEwMjUiIHk9IjQ3Ni44ODY5Ij5nZXRfZ3dsKCk8L3RleHQ+PHRleHQgZmlsbD0iIzAwMDAwMCIgZm9udC1mYW1pbHk9InNhbnMtc2VyaWYiIGZvbnQtc2l6ZT0iMTQiIGxlbmd0aEFkanVzdD0ic3BhY2luZyIgdGV4dExlbmd0aD0iMzgiIHg9IjEwMjUiIHk9IjQ5MS44NzEzIj5yZXcoKTwvdGV4dD48dGV4dCBmaWxsPSIjMDAwMDAwIiBmb250LWZhbWlseT0ic2Fucy1zZXJpZiIgZm9udC1zaXplPSIxNCIgbGVuZ3RoQWRqdXN0PSJzcGFjaW5nIiB0ZXh0TGVuZ3RoPSIzOCIgeD0iMTAyNSIgeT0iNTA2Ljg1NTYiPndyYygpPC90ZXh0Pjx0ZXh0IGZpbGw9IiMwMDAwMDAiIGZvbnQtZmFtaWx5PSJzYW5zLXNlcmlmIiBmb250LXNpemU9IjE0IiBsZW5ndGhBZGp1c3Q9InNwYWNpbmciIHRleHRMZW5ndGg9Ijc5IiB4PSIxMDI1IiB5PSI1MjEuODQiPnRoZXRhX3BzaSgpPC90ZXh0Pjx0ZXh0IGZpbGw9IiMwMDAwMDAiIGZvbnQtZmFtaWx5PSJzYW5zLXNlcmlmIiBmb250LXNpemU9IjE0IiBsZW5ndGhBZGp1c3Q9InNwYWNpbmciIHRleHRMZW5ndGg9Ijc5IiB4PSIxMDI1IiB5PSI1MzYuODI0NCI+cHNpX3RoZXRhKCk8L3RleHQ+PC9nPjwhLS1lbnRpdHkgbWxtX291dHB1dHMtLT48ZyBpZD0iZWxlbV9tbG1fb3V0cHV0cyI+PHJlY3QgZmlsbD0iI0YxRjFGMSIgaGVpZ2h0PSI0NC45ODQ0IiByeD0iMi41IiByeT0iMi41IiBzdHlsZT0ic3Ryb2tlOiMxODE4MTg7c3Ryb2tlLXdpZHRoOjAuNTsiIHdpZHRoPSIxMTkiIHg9IjYzMi41IiB5PSIzNjguODQiLz48cmVjdCBmaWxsPSIjRjFGMUYxIiBoZWlnaHQ9IjEwIiBzdHlsZT0ic3Ryb2tlOiMxODE4MTg7c3Ryb2tlLXdpZHRoOjAuNTsiIHdpZHRoPSIxNSIgeD0iNzMxLjUiIHk9IjM3My44NCIvPjxyZWN0IGZpbGw9IiNGMUYxRjEiIGhlaWdodD0iMiIgc3R5bGU9InN0cm9rZTojMTgxODE4O3N0cm9rZS13aWR0aDowLjU7IiB3aWR0aD0iNCIgeD0iNzI5LjUiIHk9IjM3NS44NCIvPjxyZWN0IGZpbGw9IiNGMUYxRjEiIGhlaWdodD0iMiIgc3R5bGU9InN0cm9rZTojMTgxODE4O3N0cm9rZS13aWR0aDowLjU7IiB3aWR0aD0iNCIgeD0iNzI5LjUiIHk9IjM3OS44NCIvPjx0ZXh0IGZpbGw9IiMwMDAwMDAiIGZvbnQtZmFtaWx5PSJzYW5zLXNlcmlmIiBmb250LXNpemU9IjE0IiBsZW5ndGhBZGp1c3Q9InNwYWNpbmciIHRleHRMZW5ndGg9Ijc5IiB4PSI2NDcuNSIgeT0iNDAyLjA3NDQiPm1sbV9vdXRwdXRzPC90ZXh0PjwvZz48IS0tZW50aXR5IG1sbV9wYXJhbWV0ZXJzLS0+PGcgaWQ9ImVsZW1fbWxtX3BhcmFtZXRlcnMiPjxyZWN0IGZpbGw9IiNGMUYxRjEiIGhlaWdodD0iNDQuOTg0NCIgcng9IjIuNSIgcnk9IjIuNSIgc3R5bGU9InN0cm9rZTojMTgxODE4O3N0cm9rZS13aWR0aDowLjU7IiB3aWR0aD0iMTQxIiB4PSI3ODYuNSIgeT0iMzY4Ljg0Ii8+PHJlY3QgZmlsbD0iI0YxRjFGMSIgaGVpZ2h0PSIxMCIgc3R5bGU9InN0cm9rZTojMTgxODE4O3N0cm9rZS13aWR0aDowLjU7IiB3aWR0aD0iMTUiIHg9IjkwNy41IiB5PSIzNzMuODQiLz48cmVjdCBmaWxsPSIjRjFGMUYxIiBoZWlnaHQ9IjIiIHN0eWxlPSJzdHJva2U6IzE4MTgxODtzdHJva2Utd2lkdGg6MC41OyIgd2lkdGg9IjQiIHg9IjkwNS41IiB5PSIzNzUuODQiLz48cmVjdCBmaWxsPSIjRjFGMUYxIiBoZWlnaHQ9IjIiIHN0eWxlPSJzdHJva2U6IzE4MTgxODtzdHJva2Utd2lkdGg6MC41OyIgd2lkdGg9IjQiIHg9IjkwNS41IiB5PSIzNzkuODQiLz48dGV4dCBmaWxsPSIjMDAwMDAwIiBmb250LWZhbWlseT0ic2Fucy1zZXJpZiIgZm9udC1zaXplPSIxNCIgbGVuZ3RoQWRqdXN0PSJzcGFjaW5nIiB0ZXh0TGVuZ3RoPSIxMDEiIHg9IjgwMS41IiB5PSI0MDIuMDc0NCI+bWxtX3BhcmFtZXRlcnM8L3RleHQ+PC9nPjwhLS1lbnRpdHkgcGFyYW1ldGVyX3Rvb2xzLS0+PGcgaWQ9ImVsZW1fcGFyYW1ldGVyX3Rvb2xzIj48cmVjdCBmaWxsPSIjRjFGMUYxIiBoZWlnaHQ9IjQ0Ljk4NDQiIHJ4PSIyLjUiIHJ5PSIyLjUiIHN0eWxlPSJzdHJva2U6IzE4MTgxODtzdHJva2Utd2lkdGg6MC41OyIgd2lkdGg9IjE0NiIgeD0iNjI2IiB5PSI2MDIuODQiLz48cmVjdCBmaWxsPSIjRjFGMUYxIiBoZWlnaHQ9IjEwIiBzdHlsZT0ic3Ryb2tlOiMxODE4MTg7c3Ryb2tlLXdpZHRoOjAuNTsiIHdpZHRoPSIxNSIgeD0iNzUyIiB5PSI2MDcuODQiLz48cmVjdCBmaWxsPSIjRjFGMUYxIiBoZWlnaHQ9IjIiIHN0eWxlPSJzdHJva2U6IzE4MTgxODtzdHJva2Utd2lkdGg6MC41OyIgd2lkdGg9IjQiIHg9Ijc1MCIgeT0iNjA5Ljg0Ii8+PHJlY3QgZmlsbD0iI0YxRjFGMSIgaGVpZ2h0PSIyIiBzdHlsZT0ic3Ryb2tlOiMxODE4MTg7c3Ryb2tlLXdpZHRoOjAuNTsiIHdpZHRoPSI0IiB4PSI3NTAiIHk9IjYxMy44NCIvPjx0ZXh0IGZpbGw9IiMwMDAwMDAiIGZvbnQtZmFtaWx5PSJzYW5zLXNlcmlmIiBmb250LXNpemU9IjE0IiBsZW5ndGhBZGp1c3Q9InNwYWNpbmciIHRleHRMZW5ndGg9IjEwNiIgeD0iNjQxIiB5PSI2MzYuMDc0NCI+cGFyYW1ldGVyX3Rvb2xzPC90ZXh0PjwvZz48IS0tZW50aXR5IHBhcmFtZXRlcnNldHMtLT48ZyBpZD0iZWxlbV9wYXJhbWV0ZXJzZXRzIj48cmVjdCBmaWxsPSIjRjFGMUYxIiBoZWlnaHQ9IjQ0Ljk4NDQiIHJ4PSIyLjUiIHJ5PSIyLjUiIHN0eWxlPSJzdHJva2U6IzE4MTgxODtzdHJva2Utd2lkdGg6MC41OyIgd2lkdGg9IjEzMiIgeD0iODA3IiB5PSI2MDIuODQiLz48cmVjdCBmaWxsPSIjRjFGMUYxIiBoZWlnaHQ9IjEwIiBzdHlsZT0ic3Ryb2tlOiMxODE4MTg7c3Ryb2tlLXdpZHRoOjAuNTsiIHdpZHRoPSIxNSIgeD0iOTE5IiB5PSI2MDcuODQiLz48cmVjdCBmaWxsPSIjRjFGMUYxIiBoZWlnaHQ9IjIiIHN0eWxlPSJzdHJva2U6IzE4MTgxODtzdHJva2Utd2lkdGg6MC41OyIgd2lkdGg9IjQiIHg9IjkxNyIgeT0iNjA5Ljg0Ii8+PHJlY3QgZmlsbD0iI0YxRjFGMSIgaGVpZ2h0PSIyIiBzdHlsZT0ic3Ryb2tlOiMxODE4MTg7c3Ryb2tlLXdpZHRoOjAuNTsiIHdpZHRoPSI0IiB4PSI5MTciIHk9IjYxMy44NCIvPjx0ZXh0IGZpbGw9IiMwMDAwMDAiIGZvbnQtZmFtaWx5PSJzYW5zLXNlcmlmIiBmb250LXNpemU9IjE0IiBsZW5ndGhBZGp1c3Q9InNwYWNpbmciIHRleHRMZW5ndGg9IjkyIiB4PSI4MjIiIHk9IjYzNi4wNzQ0Ij5wYXJhbWV0ZXJzZXRzPC90ZXh0PjwvZz48IS0tZW50aXR5IGNvbnN0YW50LS0+PGcgaWQ9ImVsZW1fY29uc3RhbnQiPjxyZWN0IGZpbGw9IiNGMUYxRjEiIGhlaWdodD0iNDQuOTg0NCIgcng9IjIuNSIgcnk9IjIuNSIgc3R5bGU9InN0cm9rZTojMTgxODE4O3N0cm9rZS13aWR0aDowLjU7IiB3aWR0aD0iOTYiIHg9IjM1MCIgeT0iMzY4Ljg0Ii8+PHJlY3QgZmlsbD0iI0YxRjFGMSIgaGVpZ2h0PSIxMCIgc3R5bGU9InN0cm9rZTojMTgxODE4O3N0cm9rZS13aWR0aDowLjU7IiB3aWR0aD0iMTUiIHg9IjQyNiIgeT0iMzczLjg0Ii8+PHJlY3QgZmlsbD0iI0YxRjFGMSIgaGVpZ2h0PSIyIiBzdHlsZT0ic3Ryb2tlOiMxODE4MTg7c3Ryb2tlLXdpZHRoOjAuNTsiIHdpZHRoPSI0IiB4PSI0MjQiIHk9IjM3NS44NCIvPjxyZWN0IGZpbGw9IiNGMUYxRjEiIGhlaWdodD0iMiIgc3R5bGU9InN0cm9rZTojMTgxODE4O3N0cm9rZS13aWR0aDowLjU7IiB3aWR0aD0iNCIgeD0iNDI0IiB5PSIzNzkuODQiLz48dGV4dCBmaWxsPSIjMDAwMDAwIiBmb250LWZhbWlseT0ic2Fucy1zZXJpZiIgZm9udC1zaXplPSIxNCIgbGVuZ3RoQWRqdXN0PSJzcGFjaW5nIiB0ZXh0TGVuZ3RoPSI1NiIgeD0iMzY1IiB5PSI0MDIuMDc0NCI+Y29uc3RhbnQ8L3RleHQ+PC9nPjwhLS1lbnRpdHkgaW90b29scy0tPjxnIGlkPSJlbGVtX2lvdG9vbHMiPjxyZWN0IGZpbGw9IiNGMUYxRjEiIGhlaWdodD0iNDQuOTg0NCIgcng9IjIuNSIgcnk9IjIuNSIgc3R5bGU9InN0cm9rZTojMTgxODE4O3N0cm9rZS13aWR0aDowLjU7IiB3aWR0aD0iODkiIHg9IjQ4MS41IiB5PSIzNjguODQiLz48cmVjdCBmaWxsPSIjRjFGMUYxIiBoZWlnaHQ9IjEwIiBzdHlsZT0ic3Ryb2tlOiMxODE4MTg7c3Ryb2tlLXdpZHRoOjAuNTsiIHdpZHRoPSIxNSIgeD0iNTUwLjUiIHk9IjM3My44NCIvPjxyZWN0IGZpbGw9IiNGMUYxRjEiIGhlaWdodD0iMiIgc3R5bGU9InN0cm9rZTojMTgxODE4O3N0cm9rZS13aWR0aDowLjU7IiB3aWR0aD0iNCIgeD0iNTQ4LjUiIHk9IjM3NS44NCIvPjxyZWN0IGZpbGw9IiNGMUYxRjEiIGhlaWdodD0iMiIgc3R5bGU9InN0cm9rZTojMTgxODE4O3N0cm9rZS13aWR0aDowLjU7IiB3aWR0aD0iNCIgeD0iNTQ4LjUiIHk9IjM3OS44NCIvPjx0ZXh0IGZpbGw9IiMwMDAwMDAiIGZvbnQtZmFtaWx5PSJzYW5zLXNlcmlmIiBmb250LXNpemU9IjE0IiBsZW5ndGhBZGp1c3Q9InNwYWNpbmciIHRleHRMZW5ndGg9IjQ5IiB4PSI0OTYuNSIgeT0iNDAyLjA3NDQiPmlvdG9vbHM8L3RleHQ+PC9nPjwhLS1lbnRpdHkgdXRpbGl0aWVzLS0+PGcgaWQ9ImVsZW1fdXRpbGl0aWVzIj48cmVjdCBmaWxsPSIjRjFGMUYxIiBoZWlnaHQ9IjQ0Ljk4NDQiIHJ4PSIyLjUiIHJ5PSIyLjUiIHN0eWxlPSJzdHJva2U6IzE4MTgxODtzdHJva2Utd2lkdGg6MC41OyIgd2lkdGg9IjEwMyIgeD0iMzUwLjUiIHk9IjYwMi44NCIvPjxyZWN0IGZpbGw9IiNGMUYxRjEiIGhlaWdodD0iMTAiIHN0eWxlPSJzdHJva2U6IzE4MTgxODtzdHJva2Utd2lkdGg6MC41OyIgd2lkdGg9IjE1IiB4PSI0MzMuNSIgeT0iNjA3Ljg0Ii8+PHJlY3QgZmlsbD0iI0YxRjFGMSIgaGVpZ2h0PSIyIiBzdHlsZT0ic3Ryb2tlOiMxODE4MTg7c3Ryb2tlLXdpZHRoOjAuNTsiIHdpZHRoPSI0IiB4PSI0MzEuNSIgeT0iNjA5Ljg0Ii8+PHJlY3QgZmlsbD0iI0YxRjFGMSIgaGVpZ2h0PSIyIiBzdHlsZT0ic3Ryb2tlOiMxODE4MTg7c3Ryb2tlLXdpZHRoOjAuNTsiIHdpZHRoPSI0IiB4PSI0MzEuNSIgeT0iNjEzLjg0Ii8+PHRleHQgZmlsbD0iIzAwMDAwMCIgZm9udC1mYW1pbHk9InNhbnMtc2VyaWYiIGZvbnQtc2l6ZT0iMTQiIGxlbmd0aEFkanVzdD0ic3BhY2luZyIgdGV4dExlbmd0aD0iNjMiIHg9IjM2NS41IiB5PSI2MzYuMDc0NCI+dXRpbGl0aWVzPC90ZXh0PjwvZz48IS0tZW50aXR5IGRhdGFwcm9jZXNzaW5nX3NjcmlwdHMtLT48ZyBpZD0iZWxlbV9kYXRhcHJvY2Vzc2luZ19zY3JpcHRzIj48cmVjdCBmaWxsPSIjRjFGMUYxIiBoZWlnaHQ9IjQ0Ljk4NDQiIHJ4PSIyLjUiIHJ5PSIyLjUiIHN0eWxlPSJzdHJva2U6IzE4MTgxODtzdHJva2Utd2lkdGg6MC41OyIgd2lkdGg9IjE5NCIgeD0iNjAyIiB5PSI3NjEuODQiLz48cmVjdCBmaWxsPSIjRjFGMUYxIiBoZWlnaHQ9IjEwIiBzdHlsZT0ic3Ryb2tlOiMxODE4MTg7c3Ryb2tlLXdpZHRoOjAuNTsiIHdpZHRoPSIxNSIgeD0iNzc2IiB5PSI3NjYuODQiLz48cmVjdCBmaWxsPSIjRjFGMUYxIiBoZWlnaHQ9IjIiIHN0eWxlPSJzdHJva2U6IzE4MTgxODtzdHJva2Utd2lkdGg6MC41OyIgd2lkdGg9IjQiIHg9Ijc3NCIgeT0iNzY4Ljg0Ii8+PHJlY3QgZmlsbD0iI0YxRjFGMSIgaGVpZ2h0PSIyIiBzdHlsZT0ic3Ryb2tlOiMxODE4MTg7c3Ryb2tlLXdpZHRoOjAuNTsiIHdpZHRoPSI0IiB4PSI3NzQiIHk9Ijc3Mi44NCIvPjx0ZXh0IGZpbGw9IiMwMDAwMDAiIGZvbnQtZmFtaWx5PSJzYW5zLXNlcmlmIiBmb250LXNpemU9IjE0IiBsZW5ndGhBZGp1c3Q9InNwYWNpbmciIHRleHRMZW5ndGg9IjE1NCIgeD0iNjE3IiB5PSI3OTUuMDc0NCI+ZGF0YXByb2Nlc3Npbmdfc2NyaXB0czwvdGV4dD48L2c+PCEtLWVudGl0eSBkaXJlY3Rvcnlfc3RydWN0dXJlLS0+PGcgaWQ9ImVsZW1fZGlyZWN0b3J5X3N0cnVjdHVyZSI+PHJlY3QgZmlsbD0iI0YxRjFGMSIgaGVpZ2h0PSI0NC45ODQ0IiByeD0iMi41IiByeT0iMi41IiBzdHlsZT0ic3Ryb2tlOiMxODE4MTg7c3Ryb2tlLXdpZHRoOjAuNTsiIHdpZHRoPSIxNzMiIHg9IjgzMS41IiB5PSI3NjEuODQiLz48cmVjdCBmaWxsPSIjRjFGMUYxIiBoZWlnaHQ9IjEwIiBzdHlsZT0ic3Ryb2tlOiMxODE4MTg7c3Ryb2tlLXdpZHRoOjAuNTsiIHdpZHRoPSIxNSIgeD0iOTg0LjUiIHk9Ijc2Ni44NCIvPjxyZWN0IGZpbGw9IiNGMUYxRjEiIGhlaWdodD0iMiIgc3R5bGU9InN0cm9rZTojMTgxODE4O3N0cm9rZS13aWR0aDowLjU7IiB3aWR0aD0iNCIgeD0iOTgyLjUiIHk9Ijc2OC44NCIvPjxyZWN0IGZpbGw9IiNGMUYxRjEiIGhlaWdodD0iMiIgc3R5bGU9InN0cm9rZTojMTgxODE4O3N0cm9rZS13aWR0aDowLjU7IiB3aWR0aD0iNCIgeD0iOTgyLjUiIHk9Ijc3Mi44NCIvPjx0ZXh0IGZpbGw9IiMwMDAwMDAiIGZvbnQtZmFtaWx5PSJzYW5zLXNlcmlmIiBmb250LXNpemU9IjE0IiBsZW5ndGhBZGp1c3Q9InNwYWNpbmciIHRleHRMZW5ndGg9IjEzMyIgeD0iODQ2LjUiIHk9Ijc5NS4wNzQ0Ij5kaXJlY3Rvcnlfc3RydWN0dXJlPC90ZXh0PjwvZz48IS0tZW50aXR5IHBhcmFtZXRlcl91dGlsaXRpZXMtLT48ZyBpZD0iZWxlbV9wYXJhbWV0ZXJfdXRpbGl0aWVzIj48cmVjdCBmaWxsPSIjRjFGMUYxIiBoZWlnaHQ9IjQ0Ljk4NDQiIHJ4PSIyLjUiIHJ5PSIyLjUiIHN0eWxlPSJzdHJva2U6IzE4MTgxODtzdHJva2Utd2lkdGg6MC41OyIgd2lkdGg9IjE3NCIgeD0iMTA0MCIgeT0iNzYxLjg0Ii8+PHJlY3QgZmlsbD0iI0YxRjFGMSIgaGVpZ2h0PSIxMCIgc3R5bGU9InN0cm9rZTojMTgxODE4O3N0cm9rZS13aWR0aDowLjU7IiB3aWR0aD0iMTUiIHg9IjExOTQiIHk9Ijc2Ni44NCIvPjxyZWN0IGZpbGw9IiNGMUYxRjEiIGhlaWdodD0iMiIgc3R5bGU9InN0cm9rZTojMTgxODE4O3N0cm9rZS13aWR0aDowLjU7IiB3aWR0aD0iNCIgeD0iMTE5MiIgeT0iNzY4Ljg0Ii8+PHJlY3QgZmlsbD0iI0YxRjFGMSIgaGVpZ2h0PSIyIiBzdHlsZT0ic3Ryb2tlOiMxODE4MTg7c3Ryb2tlLXdpZHRoOjAuNTsiIHdpZHRoPSI0IiB4PSIxMTkyIiB5PSI3NzIuODQiLz48dGV4dCBmaWxsPSIjMDAwMDAwIiBmb250LWZhbWlseT0ic2Fucy1zZXJpZiIgZm9udC1zaXplPSIxNCIgbGVuZ3RoQWRqdXN0PSJzcGFjaW5nIiB0ZXh0TGVuZ3RoPSIxMzQiIHg9IjEwNTUiIHk9Ijc5NS4wNzQ0Ij5wYXJhbWV0ZXJfdXRpbGl0aWVzPC90ZXh0PjwvZz48IS0tZW50aXR5IHBsb3R0aW5nLS0+PGcgaWQ9ImVsZW1fcGxvdHRpbmciPjxyZWN0IGZpbGw9IiNGMUYxRjEiIGhlaWdodD0iNDQuOTg0NCIgcng9IjIuNSIgcnk9IjIuNSIgc3R5bGU9InN0cm9rZTojMTgxODE4O3N0cm9rZS13aWR0aDowLjU7IiB3aWR0aD0iOTYiIHg9IjY1MSIgeT0iODY2Ljg0Ii8+PHJlY3QgZmlsbD0iI0YxRjFGMSIgaGVpZ2h0PSIxMCIgc3R5bGU9InN0cm9rZTojMTgxODE4O3N0cm9rZS13aWR0aDowLjU7IiB3aWR0aD0iMTUiIHg9IjcyNyIgeT0iODcxLjg0Ii8+PHJlY3QgZmlsbD0iI0YxRjFGMSIgaGVpZ2h0PSIyIiBzdHlsZT0ic3Ryb2tlOiMxODE4MTg7c3Ryb2tlLXdpZHRoOjAuNTsiIHdpZHRoPSI0IiB4PSI3MjUiIHk9Ijg3My44NCIvPjxyZWN0IGZpbGw9IiNGMUYxRjEiIGhlaWdodD0iMiIgc3R5bGU9InN0cm9rZTojMTgxODE4O3N0cm9rZS13aWR0aDowLjU7IiB3aWR0aD0iNCIgeD0iNzI1IiB5PSI4NzcuODQiLz48dGV4dCBmaWxsPSIjMDAwMDAwIiBmb250LWZhbWlseT0ic2Fucy1zZXJpZiIgZm9udC1zaXplPSIxNCIgbGVuZ3RoQWRqdXN0PSJzcGFjaW5nIiB0ZXh0TGVuZ3RoPSI1NiIgeD0iNjY2IiB5PSI5MDAuMDc0NCI+cGxvdHRpbmc8L3RleHQ+PC9nPjwhLS1lbnRpdHkgdGltZXNlcmllc190b29scy0tPjxnIGlkPSJlbGVtX3RpbWVzZXJpZXNfdG9vbHMiPjxyZWN0IGZpbGw9IiNGMUYxRjEiIGhlaWdodD0iNDQuOTg0NCIgcng9IjIuNSIgcnk9IjIuNSIgc3R5bGU9InN0cm9rZTojMTgxODE4O3N0cm9rZS13aWR0aDowLjU7IiB3aWR0aD0iMTUzIiB4PSI3ODIuNSIgeT0iODY2Ljg0Ii8+PHJlY3QgZmlsbD0iI0YxRjFGMSIgaGVpZ2h0PSIxMCIgc3R5bGU9InN0cm9rZTojMTgxODE4O3N0cm9rZS13aWR0aDowLjU7IiB3aWR0aD0iMTUiIHg9IjkxNS41IiB5PSI4NzEuODQiLz48cmVjdCBmaWxsPSIjRjFGMUYxIiBoZWlnaHQ9IjIiIHN0eWxlPSJzdHJva2U6IzE4MTgxODtzdHJva2Utd2lkdGg6MC41OyIgd2lkdGg9IjQiIHg9IjkxMy41IiB5PSI4NzMuODQiLz48cmVjdCBmaWxsPSIjRjFGMUYxIiBoZWlnaHQ9IjIiIHN0eWxlPSJzdHJva2U6IzE4MTgxODtzdHJva2Utd2lkdGg6MC41OyIgd2lkdGg9IjQiIHg9IjkxMy41IiB5PSI4NzcuODQiLz48dGV4dCBmaWxsPSIjMDAwMDAwIiBmb250LWZhbWlseT0ic2Fucy1zZXJpZiIgZm9udC1zaXplPSIxNCIgbGVuZ3RoQWRqdXN0PSJzcGFjaW5nIiB0ZXh0TGVuZ3RoPSIxMTMiIHg9Ijc5Ny41IiB5PSI5MDAuMDc0NCI+dGltZXNlcmllc190b29sczwvdGV4dD48L2c+PCEtLWVudGl0eSBtaW5lcmFsLS0+PGcgaWQ9ImVsZW1fbWluZXJhbCI+PHJlY3QgZmlsbD0iI0YxRjFGMSIgaGVpZ2h0PSI0NC45ODQ0IiByeD0iMi41IiByeT0iMi41IiBzdHlsZT0ic3Ryb2tlOiMxODE4MTg7c3Ryb2tlLXdpZHRoOjAuNTsiIHdpZHRoPSI5MCIgeD0iMTI0OSIgeT0iNzYxLjg0Ii8+PHJlY3QgZmlsbD0iI0YxRjFGMSIgaGVpZ2h0PSIxMCIgc3R5bGU9InN0cm9rZTojMTgxODE4O3N0cm9rZS13aWR0aDowLjU7IiB3aWR0aD0iMTUiIHg9IjEzMTkiIHk9Ijc2Ni44NCIvPjxyZWN0IGZpbGw9IiNGMUYxRjEiIGhlaWdodD0iMiIgc3R5bGU9InN0cm9rZTojMTgxODE4O3N0cm9rZS13aWR0aDowLjU7IiB3aWR0aD0iNCIgeD0iMTMxNyIgeT0iNzY4Ljg0Ii8+PHJlY3QgZmlsbD0iI0YxRjFGMSIgaGVpZ2h0PSIyIiBzdHlsZT0ic3Ryb2tlOiMxODE4MTg7c3Ryb2tlLXdpZHRoOjAuNTsiIHdpZHRoPSI0IiB4PSIxMzE3IiB5PSI3NzIuODQiLz48dGV4dCBmaWxsPSIjMDAwMDAwIiBmb250LWZhbWlseT0ic2Fucy1zZXJpZiIgZm9udC1zaXplPSIxNCIgbGVuZ3RoQWRqdXN0PSJzcGFjaW5nIiB0ZXh0TGVuZ3RoPSI1MCIgeD0iMTI2NCIgeT0iNzk1LjA3NDQiPm1pbmVyYWw8L3RleHQ+PC9nPjwhLS1lbnRpdHkgb3JnYW5pYy0tPjxnIGlkPSJlbGVtX29yZ2FuaWMiPjxyZWN0IGZpbGw9IiNGMUYxRjEiIGhlaWdodD0iNDQuOTg0NCIgcng9IjIuNSIgcnk9IjIuNSIgc3R5bGU9InN0cm9rZTojMTgxODE4O3N0cm9rZS13aWR0aDowLjU7IiB3aWR0aD0iODkiIHg9IjEzNzQuNSIgeT0iNzYxLjg0Ii8+PHJlY3QgZmlsbD0iI0YxRjFGMSIgaGVpZ2h0PSIxMCIgc3R5bGU9InN0cm9rZTojMTgxODE4O3N0cm9rZS13aWR0aDowLjU7IiB3aWR0aD0iMTUiIHg9IjE0NDMuNSIgeT0iNzY2Ljg0Ii8+PHJlY3QgZmlsbD0iI0YxRjFGMSIgaGVpZ2h0PSIyIiBzdHlsZT0ic3Ryb2tlOiMxODE4MTg7c3Ryb2tlLXdpZHRoOjAuNTsiIHdpZHRoPSI0IiB4PSIxNDQxLjUiIHk9Ijc2OC44NCIvPjxyZWN0IGZpbGw9IiNGMUYxRjEiIGhlaWdodD0iMiIgc3R5bGU9InN0cm9rZTojMTgxODE4O3N0cm9rZS13aWR0aDowLjU7IiB3aWR0aD0iNCIgeD0iMTQ0MS41IiB5PSI3NzIuODQiLz48dGV4dCBmaWxsPSIjMDAwMDAwIiBmb250LWZhbWlseT0ic2Fucy1zZXJpZiIgZm9udC1zaXplPSIxNCIgbGVuZ3RoQWRqdXN0PSJzcGFjaW5nIiB0ZXh0TGVuZ3RoPSI0OSIgeD0iMTM4OS41IiB5PSI3OTUuMDc0NCI+b3JnYW5pYzwvdGV4dD48L2c+PCEtLWVudGl0eSBzcGhhZ251bV9wZWF0LS0+PGcgaWQ9ImVsZW1fc3BoYWdudW1fcGVhdCI+PHJlY3QgZmlsbD0iI0YxRjFGMSIgaGVpZ2h0PSI0NC45ODQ0IiByeD0iMi41IiByeT0iMi41IiBzdHlsZT0ic3Ryb2tlOiMxODE4MTg7c3Ryb2tlLXdpZHRoOjAuNTsiIHdpZHRoPSIxMzIiIHg9IjEyNDkiIHk9Ijg2Ni44NCIvPjxyZWN0IGZpbGw9IiNGMUYxRjEiIGhlaWdodD0iMTAiIHN0eWxlPSJzdHJva2U6IzE4MTgxODtzdHJva2Utd2lkdGg6MC41OyIgd2lkdGg9IjE1IiB4PSIxMzYxIiB5PSI4NzEuODQiLz48cmVjdCBmaWxsPSIjRjFGMUYxIiBoZWlnaHQ9IjIiIHN0eWxlPSJzdHJva2U6IzE4MTgxODtzdHJva2Utd2lkdGg6MC41OyIgd2lkdGg9IjQiIHg9IjEzNTkiIHk9Ijg3My44NCIvPjxyZWN0IGZpbGw9IiNGMUYxRjEiIGhlaWdodD0iMiIgc3R5bGU9InN0cm9rZTojMTgxODE4O3N0cm9rZS13aWR0aDowLjU7IiB3aWR0aD0iNCIgeD0iMTM1OSIgeT0iODc3Ljg0Ii8+PHRleHQgZmlsbD0iIzAwMDAwMCIgZm9udC1mYW1pbHk9InNhbnMtc2VyaWYiIGZvbnQtc2l6ZT0iMTQiIGxlbmd0aEFkanVzdD0ic3BhY2luZyIgdGV4dExlbmd0aD0iOTIiIHg9IjEyNjQiIHk9IjkwMC4wNzQ0Ij5zcGhhZ251bV9wZWF0PC90ZXh0PjwvZz48IS0tbGluayBPcmdhbmljTGF5ZXIgdG8gQnJ5b3BoeXRlRmFycXVoYXItLT48ZyBpZD0ibGlua19PcmdhbmljTGF5ZXJfQnJ5b3BoeXRlRmFycXVoYXIiPjxwYXRoIGNvZGVMaW5lPSI1MCIgZD0iTTYwMDQuNDIsMzkxLjM0IEM1OTg1LjY3LDM5MS4zNCA1OTcyLjkxLDM5MS4zNCA1OTU0LjE2LDM5MS4zNCAiIGZpbGw9Im5vbmUiIGlkPSJPcmdhbmljTGF5ZXItdG8tQnJ5b3BoeXRlRmFycXVoYXIiIHN0eWxlPSJzdHJva2U6IzE4MTgxODtzdHJva2Utd2lkdGg6MS4wOyIvPjxwb2x5Z29uIGZpbGw9IiMxODE4MTgiIHBvaW50cz0iNTk0OC4xNiwzOTEuMzQsNTk1Ny4xNiwzOTUuMzQsNTk1My4xNiwzOTEuMzQsNTk1Ny4xNiwzODcuMzQsNTk0OC4xNiwzOTEuMzQiIHN0eWxlPSJzdHJva2U6IzE4MTgxODtzdHJva2Utd2lkdGg6MS4wOyIvPjwvZz48IS0tbGluayBPcmdhbmljTGF5ZXIgdG8gT3JnYW5pY1Jlc3BpcmF0aW9uLS0+PGcgaWQ9ImxpbmtfT3JnYW5pY0xheWVyX09yZ2FuaWNSZXNwaXJhdGlvbiI+PHBhdGggY29kZUxpbmU9IjUxIiBkPSJNNjA5NS41NywyNDcuMjMgQzYwNjcuNDcsMTcyLjcgNjAyMC45Miw4OC41OCA1OTQ2LjUsNDUuODQgQzU4NzcuMTMsNiA1ODM1Ljg3LDYgNTc2Ni41LDQ1Ljg0IEM1NjU2LjA5LDEwOS4yNiA1NjQ4LjQwMTYsMjgwLjg5MTggNTY1MC4yMDE2LDM1My42NTE4ICIgZmlsbD0ibm9uZSIgaWQ9Ik9yZ2FuaWNMYXllci10by1PcmdhbmljUmVzcGlyYXRpb24iIHN0eWxlPSJzdHJva2U6IzE4MTgxODtzdHJva2Utd2lkdGg6MS4wOyIvPjxwb2x5Z29uIGZpbGw9IiMxODE4MTgiIHBvaW50cz0iNTY1MC4zNSwzNTkuNjUsNTY1NC4xMjYyLDM1MC41NTM4LDU2NTAuMjI2MywzNTQuNjUxNSw1NjQ2LjEyODYsMzUwLjc1MTcsNTY1MC4zNSwzNTkuNjUiIHN0eWxlPSJzdHJva2U6IzE4MTgxODtzdHJva2Utd2lkdGg6MS4wOyIvPjwvZz48IS0tbGluayBGb3Jlc3RGbG9vciB0byBPcmdhbmljTGF5ZXItLT48ZyBpZD0ibGlua19Gb3Jlc3RGbG9vcl9PcmdhbmljTGF5ZXIiPjxwYXRoIGNvZGVMaW5lPSI3MyIgZD0iTTUwNzMuMDIsMzUyLjE5IEM1MDgzLjI2LDI3Ni4wNiA1MTE3Ljk1LDEwOS45MSA1MjI5LjUsNDUuODQgQzUyOTguNTgsNi4xNiA1ODc3LjQyLDYuMTYgNTk0Ni41LDQ1Ljg0IEM2MDIwLjkyLDg4LjU4IDYwNjUuMzUzMywxNjcuMDg1OCA2MDkzLjQ1MzMsMjQxLjYxNTggIiBmaWxsPSJub25lIiBpZD0iRm9yZXN0Rmxvb3ItdG8tT3JnYW5pY0xheWVyIiBzdHlsZT0ic3Ryb2tlOiMxODE4MTg7c3Ryb2tlLXdpZHRoOjEuMDsiLz48cG9seWdvbiBmaWxsPSIjMTgxODE4IiBwb2ludHM9IjYwOTUuNTcsMjQ3LjIzLDYwOTYuMTM3NywyMzcuMzk3NSw2MDkzLjgwNjEsMjQyLjU1MTUsNjA4OC42NTIxLDI0MC4yMTk4LDYwOTUuNTcsMjQ3LjIzIiBzdHlsZT0ic3Ryb2tlOiMxODE4MTg7c3Ryb2tlLXdpZHRoOjEuMDsiLz48L2c+PCEtLWxpbmsgRm9yZXN0Rmxvb3IgdG8gU29pbFJlc3BpcmF0aW9uLS0+PGcgaWQ9ImxpbmtfRm9yZXN0Rmxvb3JfU29pbFJlc3BpcmF0aW9uIj48cGF0aCBjb2RlTGluZT0iNzQiIGQ9Ik01MDczLjAyLDM1Mi4xOSBDNTA4My4yNiwyNzYuMDYgNTExNy45NSwxMDkuOTEgNTIyOS41LDQ1Ljg0IEM1MjgxLjkxLDE1LjczIDUzMTMuMDksMTUuNzMgNTM2NS41LDQ1Ljg0IEM1NDc0LjkxLDEwOC42OCA1NDc2LjU3MjIsMjgwLjY2MDkgNTQ3Mi4xNjIyLDM1My41ODA5ICIgZmlsbD0ibm9uZSIgaWQ9IkZvcmVzdEZsb29yLXRvLVNvaWxSZXNwaXJhdGlvbiIgc3R5bGU9InN0cm9rZTojMTgxODE4O3N0cm9rZS13aWR0aDoxLjA7Ii8+PHBvbHlnb24gZmlsbD0iIzE4MTgxOCIgcG9pbnRzPSI1NDcxLjgsMzU5LjU3LDU0NzYuMzM2LDM1MC44Mjc5LDU0NzIuMTAxOCwzNTQuNTc5MSw1NDY4LjM1MDYsMzUwLjM0NDksNTQ3MS44LDM1OS41NyIgc3R5bGU9InN0cm9rZTojMTgxODE4O3N0cm9rZS13aWR0aDoxLjA7Ii8+PC9nPjwhLS1saW5rIEZvcmVzdEZsb29yIHRvIERlZ3JlZURheVNub3ctLT48ZyBpZD0ibGlua19Gb3Jlc3RGbG9vcl9EZWdyZWVEYXlTbm93Ij48cGF0aCBjb2RlTGluZT0iNzUiIGQ9Ik01MDcxLjA1LDM1Mi4yNyBDNTA3Mi42MSwyNzUuNSA1MDYzLjE3LDEwNy4xMSA0OTU2LjUsNDUuODQgQzQ5MDIuNzQsMTQuOTYgNDczMS4yNiwxNC45NiA0Njc3LjUsNDUuODQgQzQ1NjQuNDYsMTEwLjc3IDQ1NjkuODA5NywyOTMuOTgzNSA0NTc1Ljc3OTcsMzYxLjI2MzUgIiBmaWxsPSJub25lIiBpZD0iRm9yZXN0Rmxvb3ItdG8tRGVncmVlRGF5U25vdyIgc3R5bGU9InN0cm9rZTojMTgxODE4O3N0cm9rZS13aWR0aDoxLjA7Ii8+PHBvbHlnb24gZmlsbD0iIzE4MTgxOCIgcG9pbnRzPSI0NTc2LjMxLDM2Ny4yNCw0NTc5LjQ5ODksMzU3LjkyMTcsNDU3NS44NjgxLDM2Mi4yNTk2LDQ1NzEuNTMwMiwzNTguNjI4OCw0NTc2LjMxLDM2Ny4yNCIgc3R5bGU9InN0cm9rZTojMTgxODE4O3N0cm9rZS13aWR0aDoxLjA7Ii8+PC9nPjwhLS1saW5rIENhbm9weU1vZGVsIHRvIFBsYW50VHlwZS0tPjxnIGlkPSJsaW5rX0Nhbm9weU1vZGVsX1BsYW50VHlwZSI+PHBhdGggY29kZUxpbmU9Ijc2IiBkPSJNNDkwNS4xNiwzNDQuNjIgQzQ5MDUuOSwyNjQuODIgNDg5My43NSwxMDUuMTQgNDc5MC41LDQ1Ljg0IEM0NzM3Ljg5LDE1LjYyIDQ1NzAuMTEsMTUuNjIgNDUxNy41LDQ1Ljg0IEM0NDA1LjY2LDExMC4wOCA0NDE5Ljk1ODksMjkzLjc2NjUgNDQyOS4yNzg5LDM2MS4yMjY1ICIgZmlsbD0ibm9uZSIgaWQ9IkNhbm9weU1vZGVsLXRvLVBsYW50VHlwZSIgc3R5bGU9InN0cm9rZTojMTgxODE4O3N0cm9rZS13aWR0aDoxLjA7Ii8+PHBvbHlnb24gZmlsbD0iIzE4MTgxOCIgcG9pbnRzPSI0NDMwLjEsMzY3LjE3LDQ0MzIuODMwNywzNTcuNzA3Myw0NDI5LjQxNTcsMzYyLjIxNyw0NDI0LjkwNTksMzU4LjgwMjEsNDQzMC4xLDM2Ny4xNyIgc3R5bGU9InN0cm9rZTojMTgxODE4O3N0cm9rZS13aWR0aDoxLjA7Ii8+PC9nPjwhLS1saW5rIENhbm9weU1vZGVsIHRvIEZvcmVzdEZsb29yLS0+PGcgaWQ9ImxpbmtfQ2Fub3B5TW9kZWxfRm9yZXN0Rmxvb3IiPjxwYXRoIGNvZGVMaW5lPSI3NyIgZD0iTTQ5NTcuNzksMzkxLjM0IEM0OTc2LjYyLDM5MS4zNCA0OTg5LjQ0LDM5MS4zNCA1MDA4LjI3LDM5MS4zNCAiIGZpbGw9Im5vbmUiIGlkPSJDYW5vcHlNb2RlbC10by1Gb3Jlc3RGbG9vciIgc3R5bGU9InN0cm9rZTojMTgxODE4O3N0cm9rZS13aWR0aDoxLjA7Ii8+PHBvbHlnb24gZmlsbD0iIzE4MTgxOCIgcG9pbnRzPSI1MDE0LjI3LDM5MS4zNCw1MDA1LjI3LDM4Ny4zNCw1MDA5LjI3LDM5MS4zNCw1MDA1LjI3LDM5NS4zNCw1MDE0LjI3LDM5MS4zNCIgc3R5bGU9InN0cm9rZTojMTgxODE4O3N0cm9rZS13aWR0aDoxLjA7Ii8+PC9nPjwhLS1saW5rIENhbm9weU1vZGVsIHRvIFJhZGlhdGlvbi0tPjxnIGlkPSJsaW5rX0Nhbm9weU1vZGVsX1JhZGlhdGlvbiI+PHBhdGggY29kZUxpbmU9Ijc4IiBkPSJNNDkwNS4xNiwzNDQuNjIgQzQ5MDUuOSwyNjQuODIgNDg5My43NSwxMDUuMTQgNDc5MC41LDQ1Ljg0IEM0NzUxLjU3LDIzLjQ4IDQ0MjUuNDMsMjMuNDggNDM4Ni41LDQ1Ljg0IEM0Mjc0Ljc0LDExMC4wMyA0Mjg5LjYyOTIsMjkzLjc0OTIgNDI5OS4xNzkyLDM2MS4yMjkyICIgZmlsbD0ibm9uZSIgaWQ9IkNhbm9weU1vZGVsLXRvLVJhZGlhdGlvbiIgc3R5bGU9InN0cm9rZTojMTgxODE4O3N0cm9rZS13aWR0aDoxLjA7Ii8+PHBvbHlnb24gZmlsbD0iIzE4MTgxOCIgcG9pbnRzPSI0MzAwLjAyLDM2Ny4xNyw0MzAyLjcxOTQsMzU3LjY5ODMsNDI5OS4zMTk0LDM2Mi4yMTkzLDQyOTQuNzk4MywzNTguODE5Myw0MzAwLjAyLDM2Ny4xNyIgc3R5bGU9InN0cm9rZTojMTgxODE4O3N0cm9rZS13aWR0aDoxLjA7Ii8+PC9nPjwhLS1saW5rIENhbm9weU1vZGVsIHRvIE1pY3JvbWV0LS0+PGcgaWQ9ImxpbmtfQ2Fub3B5TW9kZWxfTWljcm9tZXQiPjxwYXRoIGNvZGVMaW5lPSI3OSIgZD0iTTQ5MDUuMTYsMzQ0LjYyIEM0OTA1LjksMjY0LjgyIDQ4OTMuNzUsMTA1LjE0IDQ3OTAuNSw0NS44NCBDNDczOS4wNSwxNi4yOSA0MzA3Ljk1LDE2LjI5IDQyNTYuNSw0NS44NCBDNDE0NC45NSwxMDkuOTEgNDE2MS42NTExLDI5My43MTc3IDQxNzEuODgxMSwzNjEuMjI3NyAiIGZpbGw9Im5vbmUiIGlkPSJDYW5vcHlNb2RlbC10by1NaWNyb21ldCIgc3R5bGU9InN0cm9rZTojMTgxODE4O3N0cm9rZS13aWR0aDoxLjA7Ii8+PHBvbHlnb24gZmlsbD0iIzE4MTgxOCIgcG9pbnRzPSI0MTcyLjc4LDM2Ny4xNiw0MTc1LjM4NjQsMzU3LjY2MjMsNDE3Mi4wMzA5LDM2Mi4yMTY0LDQxNjcuNDc2NywzNTguODYwOSw0MTcyLjc4LDM2Ny4xNiIgc3R5bGU9InN0cm9rZTojMTgxODE4O3N0cm9rZS13aWR0aDoxLjA7Ii8+PC9nPjwhLS1saW5rIENhbm9weU1vZGVsIHRvIEludGVyY2VwdGlvbi0tPjxnIGlkPSJsaW5rX0Nhbm9weU1vZGVsX0ludGVyY2VwdGlvbiI+PHBhdGggY29kZUxpbmU9IjgwIiBkPSJNNDg0OC40MSwzOTEuMzQgQzQ4MjkuNjQsMzkxLjM0IDQ4MTYuODcsMzkxLjM0IDQ3OTguMDksMzkxLjM0ICIgZmlsbD0ibm9uZSIgaWQ9IkNhbm9weU1vZGVsLXRvLUludGVyY2VwdGlvbiIgc3R5bGU9InN0cm9rZTojMTgxODE4O3N0cm9rZS13aWR0aDoxLjA7Ii8+PHBvbHlnb24gZmlsbD0iIzE4MTgxOCIgcG9pbnRzPSI0NzkyLjA5LDM5MS4zNCw0ODAxLjA5LDM5NS4zNCw0Nzk3LjA5LDM5MS4zNCw0ODAxLjA5LDM4Ny4zNCw0NzkyLjA5LDM5MS4zNCIgc3R5bGU9InN0cm9rZTojMTgxODE4O3N0cm9rZS13aWR0aDoxLjA7Ii8+PC9nPjwhLS1saW5rIFBsYW50VHlwZSB0byBQaG90b19jeWNsZS0tPjxnIGlkPSJsaW5rX1BsYW50VHlwZV9QaG90b19jeWNsZSI+PHBhdGggY29kZUxpbmU9IjE1NyIgZD0iTTIxNTQuMTgsMzY3LjE4IEMyMTQ1LjA5LDI5OS43MiAyMTMwLjU5LDExMC4xMiAyMjQyLjUsNDUuODQgQzIyOTEuNDUsMTcuNzMgMjcwMS41NSwxNy43MyAyNzUwLjUsNDUuODQgQzI4NTguOSwxMDguMSAyODUyLjY2NjMsMjgwLjg0MzggMjg0NC44ODYzLDM1My43OTM4ICIgZmlsbD0ibm9uZSIgaWQ9IlBsYW50VHlwZS10by1QaG90b19jeWNsZSIgc3R5bGU9InN0cm9rZTojMTgxODE4O3N0cm9rZS13aWR0aDoxLjA7Ii8+PHBvbHlnb24gZmlsbD0iIzE4MTgxOCIgcG9pbnRzPSIyODQ0LjI1LDM1OS43NiwyODQ5LjE4MTksMzUxLjIzNDksMjg0NC43ODAyLDM1NC43ODgyLDI4NDEuMjI3LDM1MC4zODY2LDI4NDQuMjUsMzU5Ljc2IiBzdHlsZT0ic3Ryb2tlOiMxODE4MTg7c3Ryb2tlLXdpZHRoOjEuMDsiLz48L2c+PCEtLWxpbmsgUGxhbnRUeXBlIHRvIExBSV9jeWNsZS0tPjxnIGlkPSJsaW5rX1BsYW50VHlwZV9MQUlfY3ljbGUiPjxwYXRoIGNvZGVMaW5lPSIxNTgiIGQ9Ik0yMTU0LjE4LDM2Ny4xOCBDMjE0NS4wOSwyOTkuNzIgMjEzMC41OSwxMTAuMTIgMjI0Mi41LDQ1Ljg0IEMyMzEwLjkxLDYuNTUgMjUyOS4wOSw2LjU1IDI1OTcuNSw0NS44NCBDMjcwMy41NSwxMDYuNzUgMjcwOS41MDczLDI2OS4zMzU1IDI3MDYuMjA3MywzNDYuMjE1NSAiIGZpbGw9Im5vbmUiIGlkPSJQbGFudFR5cGUtdG8tTEFJX2N5Y2xlIiBzdHlsZT0ic3Ryb2tlOiMxODE4MTg7c3Ryb2tlLXdpZHRoOjEuMDsiLz48cG9seWdvbiBmaWxsPSIjMTgxODE4IiBwb2ludHM9IjI3MDUuOTUsMzUyLjIxLDI3MTAuMzMyMywzNDMuMzg5OCwyNzA2LjE2NDQsMzQ3LjIxNDYsMjcwMi4zMzk2LDM0My4wNDY3LDI3MDUuOTUsMzUyLjIxIiBzdHlsZT0ic3Ryb2tlOiMxODE4MTg7c3Ryb2tlLXdpZHRoOjEuMDsiLz48L2c+PCEtLWxpbmsgUGxhbnRUeXBlIHRvIFJvb3RVcHRha2UtLT48ZyBpZD0ibGlua19QbGFudFR5cGVfUm9vdFVwdGFrZSI+PHBhdGggY29kZUxpbmU9IjE1OSIgZD0iTTIyMDUuNTEsMzkxLjM0IEMyMjE3LjMzLDM5MS4zNCAyMjIzLjE0LDM5MS4zNCAyMjM0Ljk1LDM5MS4zNCAiIGZpbGw9Im5vbmUiIGlkPSJQbGFudFR5cGUtdG8tUm9vdFVwdGFrZSIgc3R5bGU9InN0cm9rZTojMTgxODE4O3N0cm9rZS13aWR0aDoxLjA7Ii8+PHBvbHlnb24gZmlsbD0iIzE4MTgxOCIgcG9pbnRzPSIyMjQwLjk1LDM5MS4zNCwyMjMxLjk1LDM4Ny4zNCwyMjM1Ljk1LDM5MS4zNCwyMjMxLjk1LDM5NS4zNCwyMjQwLjk1LDM5MS4zNCIgc3R5bGU9InN0cm9rZTojMTgxODE4O3N0cm9rZS13aWR0aDoxLjA7Ii8+PC9nPjwhLS1saW5rIFNvaWxfMUQgdG8gV2F0ZXJfMUQtLT48ZyBpZD0ibGlua19Tb2lsXzFEX1dhdGVyXzFEIj48cGF0aCBjb2RlTGluZT0iMjE0IiBkPSJNMTc2Mi44LDM0NC43MSBDMTc2MS4yMywyNjUuMDYgMTc0NC41NywxMDUuNjEgMTY0MC41LDQ1Ljg0IEMxNTk1LjIyLDE5LjgzIDE0NTAuNzgsMTkuODMgMTQwNS41LDQ1Ljg0IEMxMjk4Ljc0LDEwNy4xNiAxMjg4LjY2NzYsMjY5LjUzMDkgMTI4OS45Nzc2LDM0Ni4yODA5ICIgZmlsbD0ibm9uZSIgaWQ9IlNvaWxfMUQtdG8tV2F0ZXJfMUQiIHN0eWxlPSJzdHJva2U6IzE4MTgxODtzdHJva2Utd2lkdGg6MS4wOyIvPjxwb2x5Z29uIGZpbGw9IiMxODE4MTgiIHBvaW50cz0iMTI5MC4wOCwzNTIuMjgsMTI5My45MjU4LDM0My4yMTMsMTI4OS45OTQ3LDM0Ny4yODA3LDEyODUuOTI3LDM0My4zNDk2LDEyOTAuMDgsMzUyLjI4IiBzdHlsZT0ic3Ryb2tlOiMxODE4MTg7c3Ryb2tlLXdpZHRoOjEuMDsiLz48L2c+PCEtLWxpbmsgU29pbF8xRCB0byBIZWF0XzFELS0+PGcgaWQ9ImxpbmtfU29pbF8xRF9IZWF0XzFEIj48cGF0aCBjb2RlTGluZT0iMjE1IiBkPSJNMTY5OC4zLDM5MS4zNCBDMTY3OS44NSwzOTEuMzQgMTY2Ny40MSwzOTEuMzQgMTY0OC45NywzOTEuMzQgIiBmaWxsPSJub25lIiBpZD0iU29pbF8xRC10by1IZWF0XzFEIiBzdHlsZT0ic3Ryb2tlOiMxODE4MTg7c3Ryb2tlLXdpZHRoOjEuMDsiLz48cG9seWdvbiBmaWxsPSIjMTgxODE4IiBwb2ludHM9IjE2NDIuOTcsMzkxLjM0LDE2NTEuOTcsMzk1LjM0LDE2NDcuOTcsMzkxLjM0LDE2NTEuOTcsMzg3LjM0LDE2NDIuOTcsMzkxLjM0IiBzdHlsZT0ic3Ryb2tlOiMxODE4MTg7c3Ryb2tlLXdpZHRoOjEuMDsiLz48L2c+PCEtLVNSQz1baExiQlJ6aXU0QnhkTG5aOVBWVkdHdFJsMVRBY21IUDhpRGN3SE82ejQ2RGdCMTZYSTJyOXNMS01fVXl4ZkZuR3hBNWFSd0FKZVZhcTdDeHA4bXJRc3RNalZZWEpOWkdXZHczNHNNTkp0Sm4tY2JfRV9oc09xUkR4bFIwWHM1ZjNYc3VoWXUtcVRNQ0RjYTA4U0VZanFhRG5XY1ptVmxQWDhwcUduaVVydmZUVlp6d3NKRzQxNkc3ZjJUUG5hV2VYWTBMZUNGOUdfRkZZLURWMFRrakFDNGVVUk16bF92eXp1WnVZcGprMnk4N1ZJMzhOSjI3TTk3UzJWeVdBSkNhWFVxMzIxcEc1NmdkR1B0NFpZWG1rRFNoMEUyVy1lSzlOV25SSWNnQUxHUXJLdzFZT1J6cUk5MGU4ekhRUUtPV2hRQW8zZUFtSGVOQXNCSWtuU1JMOGxpeGttSTVqRDdxZE14VkE2MWowRDV1bkNkZWhhZnBwVWJTdVEzTFBDQkxEMkV0NnpoR0RxTDNjcVR1dk9zaGhfR2QtWTBLVzVoT3IxUllrenkzODVuQ3ZBeTRqaENiS2MtamlLdEsxeHkzenFyUldjQkFKemhVbkwxZFZZS0REaGJjWGE0MGpXZFRXS3piV25OOVowSFQyc21ISGUwdW1ac3ZPZVZGYXhRbU5aZWhuMl9mNnpJN1lzaWZVVWVCQWRTUy05aFRvX2FnMmRDaXVkTkNBei1qanRGeVF6ZzNQa19WN0tTdVlabnJzaUxVendfNElaNnN3SjdqVnNqWHViemhRSjhVeUl1MngyN1hUYXZfOC1yZkpjSHJQa2hWWk92OHpNNGdpYS1zV2p3ODBmUmFxbFhCeW45YW1LbmRnT25BUnc2cFVxQ3kzbkRqeFIxWUVWR1FhWkNYWDNsOHIxeGw1cVk3VUdaU3RUaHEzM1RyRWU0VVFtazVocnMwRUM1MlFXdG8xR2hzcXYwM21lQUlwRE9RU1ZFWlgyb3haRFM4b0hzU3NSUGhiMTc0c1hNdnNFUVZIaGtIVFFzSFNtYnlvT09uQmw1ZEZKb3RyVFNPS3VnUnEwZWFjUExrc185cmUyVVlFajhzWlFZbnFQd09IT3FEVzFyc2k1X3pkWUZJMFc3TTNCYXZpWkVMQV9sQlNzOEFjOEh2Z1dhWFZaU29rYXFSSlZsY2wxNVNySjBKcDhGZGdjQnJJcXRTMUNxYk9SbkFTUm8zUno2UzJSTW5hU2tlUDJxNGpVdnF1ZzMtVmVkZkEwOFpDbm93TFBZY2RyM1BvOGQ0andiWHJ1amk5YzV1aEh3RklNS0hlRDZNZUUzdWZZOUdueHVjQm5BMTZXZG5VRlJialgtNFRsNmowWjhUelBMck8wcjZXNFV6ZVF5ZWZaQlZIbktHZlVGN0owZzdjdFhUZ2tNcFBCRS1kZV8xaHlOUzV6Z3lNakZRWmk3Y1owZExBNWFKRVFZYjNBOFBqdUdLdkJBejloeVRhdXlPNDZXUFk1bXdudDdRbnlxZ2dZTENkcURKOXI1REplUjdRYlhkZ3lEWnRlYXZnRjZhV1N3Smxfa1JwNkhoWUtxMzdQbHBLQkUzc0VqWkJUVzJWSUlzb0YyV0RpWEJ5c0E3WElqV3NLQnh1Q3lsR3NsMUNscERMSUQ5bEpPMGRSWWxma0RXY0FNREZfRkhNLVUzS2Vac0hQRV96NWJkQ0ZZNXVtMnhRbDdYbEVmVWpkbFhKOWI2WkFFOXVaeG5XTzhuSnlkU2RCbUJGYmozWDVTeEdnRXBqSmNJRXVsaHN2NUl4NGpHREVNZjFmdW53c29wRm93N09fN2RaX2VadDljU09UeUFySlBvZnJ4VXZFbnFZMzc0VWROVDNiTlJseDNFUV9adzhkbklnNDJraE1uaHdKaWQtSGNZNG5QbTFGVTdrUG84MG9NZS0wal9KZFN4UlhFMWRKbC03TFp3bk42V1lkaG01UUpUdGtKMGR3UG1FWExHb0JBMW1lMG05SE1Mak1UN2VWQ2lSQjE1eDRjZlRNc2ZqdEVCNDNDR3cxbGlyenJ5RVRLR21hZEFqbk5TdzRkQ1kzOEI0aDNnRTdRb1RWMkZGU0RjdlFLbGx0Y3lKeTVZb1FHdWljRzA3TDN0NFl0QmlORFZSVU5VUGFtLUtpNER5QXdRT01aczF5UlhUd0MxSWNjcXdQb0o1YTNCVjE1UXJpbGJiZXI4TDVGOUJ6ZHlKWTNyZWlGZ0JNSDhQb2o1UHpDS0huejMxSkxfY3Y5bHh1Z3BTRG5NS2ZZTEZubTRtdGdBZTNtMEQ1dWRVbnRFNmJxdXJjVFdMb2c2YTBZVC03MW5MMlByVjlXOXV1QXlaamNQM2U0TFA4UHFUcVFFWlJ1VGZxNl9YTzJzaktRU19ROHc0VkswVXhYLXNOX195M20wMF0tLT48L2c+PC9zdmc+;" vertex="1" parent="1">
            <mxGeometry x="-2840" y="-80" width="13122.36" height="2030" as="geometry" />
          </mxCell>
        </UserObject>
      </root>
    </mxGraphModel>
  </diagram>
  <diagram id="EeSSJdqNTE1-qyrq3BQP" name="class-diagram">
    <mxGraphModel dx="479" dy="700" grid="1" gridSize="10" guides="1" tooltips="1" connect="1" arrows="1" fold="1" page="1" pageScale="1" pageWidth="827" pageHeight="1169" math="0" shadow="0">
      <root>
        <mxCell id="0" />
        <mxCell id="1" parent="0" />
      </root>
    </mxGraphModel>
  </diagram>
</mxfile>
